<svg height="28" viewBox="0 0 28 28" width="28" xmlns="http://www.w3.org/2000/svg" xmlns:xlink="http://www.w3.org/1999/xlink"><clipPath id="a"><path d="m0 0h28v28h-28z"/></clipPath><g clip-path="url(#a)"><g transform="translate(-2 -2)"><path d="m5.736 26.749v-1.4h8.872v-.934h-11.208a.467.467 0 0 1 -.467-.467v-17.278h21.482v7.939h.934v-5.609h1.868v4.67h.934v-7.47a1.4 1.4 0 0 0 -1.4-1.4h-1.4v-1.4a1.4 1.4 0 0 0 -1.4-1.4h-20.551a1.4 1.4 0 0 0 -1.4 1.4v20.548a1.4 1.4 0 0 0 1.4 1.4h1.4v1.4a1.4 1.4 0 0 0 1.4 1.4h11.677v-.934h-11.677a.467.467 0 0 1 -.464-.465zm21.013-21.013a.467.467 0 0 1 .467.467v1.868h-1.867v-2.335zm-23.349-2.802h20.548a.467.467 0 0 1 .467.467v2.335h-21.481v-2.336a.467.467 0 0 1 .466-.466z" fill="#cea955"/><path d="m52.269 52.868a.467.467 0 0 1 -.467.467h-2.802v.934h2.8a1.4 1.4 0 0 0 1.4-1.4v-1.869h-.934z" fill="#cea955" transform="translate(-25.052 -26.118)"/><g fill="#131a46"><path d="m8 6h.934v.934h-.934z" transform="translate(-3.198 -2.132)"/><path d="m12 6h.934v.934h-.934z" transform="translate(-5.33 -2.132)"/><path d="m16 6h.934v.934h-.934z" transform="translate(-7.462 -2.132)"/><path d="m14.071 21.6a.467.467 0 0 0 .467-.467v-4.67a.467.467 0 0 0 -.467-.463h-5.6a.467.467 0 0 0 -.471.467v4.67a.467.467 0 0 0 .467.467zm-5.137-4.67h4.666v3.74h-4.666z" transform="translate(-3.198 -7.462)"/></g><path d="m26 16h.934v.934h-.934z" fill="#cea955" transform="translate(-12.793 -7.462)"/><path d="m30 16h.934v.934h-.934z" fill="#cea955" transform="translate(-14.925 -7.462)"/><path d="m34 16h3.736v.934h-3.736z" fill="#131a46" transform="translate(-17.057 -7.462)"/><path d="m26 20h7.472v.934h-7.472z" fill="#cea955" transform="translate(-12.793 -9.595)"/><path d="m26 24h7.472v.934h-7.472z" fill="#131a46" transform="translate(-12.793 -11.727)"/><path d="m26 28h7.472v.934h-7.472z" fill="#cea955" transform="translate(-12.793 -13.859)"/><path d="m8 32h8.405v.934h-8.405z" fill="#131a46" transform="translate(-3.198 -15.991)"/><path d="m8 36h8.405v.934h-8.405z" fill="#cea955" transform="translate(-3.198 -18.123)"/><path d="m8 40h8.405v.934h-8.405z" fill="#131a46" transform="translate(-3.198 -20.255)"/><path d="m8 44h8.405v.934h-8.405z" fill="#cea955" transform="translate(-3.198 -22.387)"/><path d="m36.414 39.808 3.533-.509a1.4 1.4 0 0 0 2.221-1.668l-1.168-2.023a1.4 1.4 0 0 0 -1.4-2.428l-1.167-2.022a1.4 1.4 0 0 0 -2.555 1.09l-2.889 3.67-2.349 1.354a1.4 1.4 0 0 0 -.514 1.915l.934 1.618a1.4 1.4 0 0 0 1.915.514l1.634 2.831a1.4 1.4 0 0 0 1.915.514l.809-.467a1.4 1.4 0 0 0 .514-1.915zm4.286-5.646a.467.467 0 0 1 -.17.638l-.467-.809a.467.467 0 0 1 .637.171zm-3.719-2.705a.467.467 0 0 1 .638.17l3.738 6.473a.467.467 0 1 1 -.808.467l-3.736-6.471a.467.467 0 0 1 .17-.637zm-.635 1.7 3.054 5.278-3.983.573-1.552-2.687zm-3.222 3.76 1.4 2.428-.809.467-1.4-2.428zm-1.261 3.423-.934-1.618a.467.467 0 0 1 .171-.638l.4-.233 1.4 2.428-.4.233a.467.467 0 0 1 -.636-.173zm5 3.047-.809.467a.467.467 0 0 1 -.638-.171l-1.634-2.831 1.541-.887.093-.014 1.616 2.8a.467.467 0 0 1 -.169.636z" fill="#131a46" transform="translate(-14.892 -15.176)"/><path d="m0 0h1.868v.934h-1.868z" fill="#cea955" transform="matrix(.866 -.5 .5 .866 27.195 17.648)"/><path d="m0 0h1.981v.934h-1.981z" fill="#cea955" transform="matrix(.25897077 -.96588516 .96588516 .25897077 25.645 16.548)"/><path d="m0 0h.934v1.981h-.934z" fill="#cea955" transform="matrix(.25897077 -.96588516 .96588516 .25897077 27.844 20.356)"/></g></g></svg>