<svg height="28" viewBox="0 0 28 28" width="28" xmlns="http://www.w3.org/2000/svg" xmlns:xlink="http://www.w3.org/1999/xlink"><clipPath id="a"><path d="m0 0h28v28h-28z"/></clipPath><g clip-path="url(#a)"><path d="m74.216 191.276h-3.277v-17.276a.41.41 0 1 0 -.819 0v17.355a.743.743 0 0 0 .742.742h3.354a.41.41 0 0 0 0-.819z" fill="#cea955" transform="translate(-70.12 -164.095)"/><path d="m96.489 0h-25.37c-.551 0-1 .333-1 .742v7.222c0 .226.247.41.551.41s.551-.183.551-.41v-7.145h25.164v26.362h-18.085c-.3 0-.551.183-.551.41s.247.41.551.41h18.189c.551 0 1-.333 1-.742v-26.517c0-.409-.448-.742-1-.742z" fill="#cea955" transform="translate(-70.12)"/><path d="m158.658 52a4.82 4.82 0 0 1 3.055 1.094.41.41 0 0 0 .52-.633 5.623 5.623 0 1 0 1.32 1.565.41.41 0 0 0 -.712.406 4.811 4.811 0 0 1 -.031 4.81 2.185 2.185 0 0 0 -2.141-1.765 2.379 2.379 0 1 0 -4.021 0 2.185 2.185 0 0 0 -2.141 1.765 4.81 4.81 0 0 1 4.151-7.242zm-2.011 6.3h.993a.41.41 0 0 0 .212-.76 1.56 1.56 0 1 1 1.613 0 .41.41 0 0 0 .212.76h.992a1.364 1.364 0 0 1 1.363 1.363v.582l-.043.042-.063.059a4.8 4.8 0 0 1 -2.4 1.2 4.887 4.887 0 0 1 -1.725 0 4.8 4.8 0 0 1 -2.406-1.206l-.061-.058-.044-.043v-.582a1.364 1.364 0 0 1 1.357-1.365z" fill="#252258" transform="translate(-144.493 -47.378)"/><path d="m133.663 293.681a.41.41 0 0 0 .41.41h5a.41.41 0 1 0 0-.819h-5a.41.41 0 0 0 -.41.409z" fill="#252258" transform="translate(-126.188 -276.233)"/><g fill="#cea955"><path d="m134.073 330.612h5a.41.41 0 1 0 0-.819h-5a.41.41 0 1 0 0 .819z" transform="translate(-126.188 -310.757)"/><path d="m277.342 293.271h-5a.41.41 0 1 0 0 .819h5a.41.41 0 0 0 0-.819z" transform="translate(-256.896 -276.233)"/><path d="m130.721 368.56a1.483 1.483 0 1 0 -1.483 1.483 1.485 1.485 0 0 0 1.483-1.483zm-1.483.664a.664.664 0 1 1 .664-.664.665.665 0 0 1 -.664.664z" transform="translate(-120.603 -346.002)"/></g><path d="m230.827 367.076a1.483 1.483 0 1 0 1.483 1.483 1.485 1.485 0 0 0 -1.483-1.483zm0 2.147a.664.664 0 1 1 .664-.664.665.665 0 0 1 -.664.664z" fill="#252258" transform="translate(-216.636 -346.001)"/><path d="m330 368.56a1.483 1.483 0 1 0 1.483-1.483 1.485 1.485 0 0 0 -1.483 1.483zm2.147 0a.664.664 0 1 1 -.664-.664.665.665 0 0 1 .667.664z" fill="#cea955" transform="translate(-311.79 -346.002)"/></g></svg>