<svg height="28" viewBox="0 0 28 28" width="28" xmlns="http://www.w3.org/2000/svg" xmlns:xlink="http://www.w3.org/1999/xlink"><clipPath id="a"><path d="m0 0h28v28h-28z"/></clipPath><g clip-path="url(#a)"><path d="m310.918 307.667a.467.467 0 0 0 -.467-.467h-2.8a.467.467 0 1 0 0 .933h2.8a.467.467 0 0 0 .467-.466z" fill="#252258" transform="translate(-290.318 -290.4)"/><path d="m325.184 45.467v-2.333a.467.467 0 1 0 -.933 0v2.333a2.336 2.336 0 0 0 2.333 2.333h4.2v8.867a.467.467 0 1 0 .933 0v-9.333a.467.467 0 0 0 -.467-.467h-4.667a1.4 1.4 0 0 1 -1.399-1.4z" fill="#cea955" transform="translate(-306.451 -40.334)"/><path d="m294.317 204.8h-3.733a.467.467 0 0 0 0 .933h3.733a.467.467 0 1 0 0-.933z" fill="#252258" transform="translate(-274.184 -193.6)"/><path d="m208.518 205.267a.467.467 0 0 0 -.467-.467h-2.8a.467.467 0 0 0 0 .933h2.8a.467.467 0 0 0 .467-.466z" fill="#cea955" transform="translate(-193.518 -193.6)"/><g fill="#252258"><path d="m205.251 256a.467.467 0 1 0 0 .933h.933a.467.467 0 0 0 0-.933z" transform="translate(-193.517 -242)"/><path d="m205.251 154.534h4.667a.467.467 0 0 0 0-.933h-4.667a.467.467 0 1 0 0 .933z" transform="translate(-193.517 -145.201)"/><path d="m256.451 256.934h4.667a.467.467 0 0 0 0-.933h-4.667a.467.467 0 0 0 0 .933z" transform="translate(-241.917 -242.001)"/><path d="m307.651 358.4a.467.467 0 0 0 0 .933h.933a.467.467 0 0 0 0-.933z" transform="translate(-290.317 -338.8)"/></g><path d="m208.984 307.2h-3.733a.467.467 0 1 0 0 .933h3.733a.467.467 0 1 0 0-.933z" fill="#cea955" transform="translate(-193.517 -290.4)"/><path d="m208.984 358.4h-3.733a.467.467 0 0 0 0 .933h3.733a.467.467 0 1 0 0-.933z" fill="#cea955" transform="translate(-193.517 -338.8)"/><path d="m316.895 326.074-.933-.933a1.753 1.753 0 0 0 -2.526 0l-6.114 6.114a.467.467 0 0 0 -.137.33v2.8a.467.467 0 0 0 .467.467h2.8a.467.467 0 0 0 .33-.137l6.114-6.114a1.71 1.71 0 0 0 -.001-2.527zm-4.063.99.74.74-4.054 4.054-.74-.74zm-4.714 6.854v-2.14l2.14 2.14zm2.8-.66-.74-.74 4.054-4.054.74.74zm5.318-5.318-.6.6-2.14-2.14.6-.6a.8.8 0 0 1 1.207 0l.933.933a.785.785 0 0 1 -.001 1.207z" fill="#cea955" transform="translate(-290.317 -306.851)"/><path d="m31.518 27.067h-12.134a1.4 1.4 0 0 1 -1.4-1.4v-23.334a1.4 1.4 0 0 1 1.4-1.4h14.74l4.53 4.53a.467.467 0 0 0 .66-.66l-4.666-4.666a.466.466 0 0 0 -.33-.137h-14.934a2.336 2.336 0 0 0 -2.333 2.333v23.334a2.336 2.336 0 0 0 2.333 2.333h12.134a.467.467 0 0 0 0-.933z" fill="#cea955" transform="translate(-16.051)"/><path d="m208.984 409.6h-3.733a.467.467 0 0 0 0 .933h3.733a.467.467 0 1 0 0-.933z" fill="#252258" transform="translate(-193.517 -387.2)"/><path d="m103.452 259.592a.467.467 0 0 0 .33.137.376.376 0 0 0 .046 0 .465.465 0 0 0 .342-.205l1.867-2.8a.467.467 0 1 0 -.777-.518l-1.551 2.326-.531-.531a.467.467 0 1 0 -.66.66z" fill="#252258" transform="translate(-96.715 -241.996)"/><path d="m103.452 259.592a.467.467 0 0 0 .33.137.376.376 0 0 0 .046 0 .465.465 0 0 0 .342-.205l1.867-2.8a.467.467 0 1 0 -.777-.518l-1.551 2.326-.531-.531a.467.467 0 1 0 -.66.66z" fill="#252258" transform="translate(-96.715 -236.23)"/><path d="m103.452 259.592a.467.467 0 0 0 .33.137.376.376 0 0 0 .046 0 .465.465 0 0 0 .342-.205l1.867-2.8a.467.467 0 1 0 -.777-.518l-1.551 2.326-.531-.531a.467.467 0 1 0 -.66.66z" fill="#252258" transform="translate(-96.715 -247.762)"/></g></svg>