<svg height="28" viewBox="0 0 28 28" width="28" xmlns="http://www.w3.org/2000/svg" xmlns:xlink="http://www.w3.org/1999/xlink"><clipPath id="a"><path d="m0 0h28v28h-28z"/></clipPath><g clip-path="url(#a)"><path d="m0 0h28v28h-28z" fill="#fff"/><g><path d="m410.486 500.867a.467.467 0 0 0 .415.254.461.461 0 0 0 .211-.051 39.948 39.948 0 0 1 4.116-1.831.465.465 0 0 0 -.281-.887 39.907 39.907 0 0 0 -4.258 1.89.466.466 0 0 0 -.2.626zm0 0" fill="#131a46" transform="translate(-394.619 -487.608)"/><path d="m410.9 419.2a.464.464 0 0 0 .211-.051 39.912 39.912 0 0 1 4.116-1.831.466.466 0 0 0 -.281-.888 39.921 39.921 0 0 0 -4.258 1.89.465.465 0 0 0 .212.88zm0 0" fill="#131a46" transform="translate(-394.619 -411.27)"/><path d="m205.781 348.294a.465.465 0 0 0 -.465.465v18.141a1.4 1.4 0 0 1 -1.4 1.4h-11.161v-1.07a13.713 13.713 0 0 1 4.187-.79 23.991 23.991 0 0 1 6.832.907.465.465 0 0 0 .612-.442v-20.471a.465.465 0 0 0 -.364-.454s-.365-.081-.988-.2a.465.465 0 0 0 -.168.915c.238.044.437.082.59.113v19.473a26.264 26.264 0 0 0 -6.513-.777 14.613 14.613 0 0 0 -4.634.891 10.9 10.9 0 0 0 -4.205-.891 31.354 31.354 0 0 0 -6.978.8v-19.511a30.622 30.622 0 0 1 6.978-.825 10.089 10.089 0 0 1 3.722.767v18.307a.465.465 0 0 0 .7.4 53.257 53.257 0 0 1 8.746-4.144.465.465 0 0 0 .318-.442v-19.075a.466.466 0 0 0 -.629-.436 49.49 49.49 0 0 0 -7.526 3.763.465.465 0 0 0 .493.789 49.665 49.665 0 0 1 6.732-3.436v18.06a52.128 52.128 0 0 0 -7.909 3.712v-17.8a.466.466 0 0 0 -.257-.416 10.771 10.771 0 0 0 -4.395-.979 30.205 30.205 0 0 0 -7.571.948.465.465 0 0 0 -.337.447v20.467a.465.465 0 0 0 .465.465.461.461 0 0 0 .128-.018 29.883 29.883 0 0 1 7.316-.912 10.064 10.064 0 0 1 3.722.767v1.098h-11.163a1.4 1.4 0 0 1 -1.4-1.4v-18.14a.465.465 0 1 0 -.93 0v18.14a2.329 2.329 0 0 0 2.326 2.326h23.265a2.329 2.329 0 0 0 2.326-2.326v-18.14a.465.465 0 0 0 -.465-.465zm0 0" fill="#cea955" transform="translate(-178.333 -341.294)"/><path d="m0 0h27.935v28h-27.935z" fill="none"/><g fill="#131a46"><path d="m410.486 459.907a.466.466 0 0 0 .626.2 39.9 39.9 0 0 1 4.116-1.832.465.465 0 0 0 -.281-.888 39.927 39.927 0 0 0 -4.258 1.89.466.466 0 0 0 -.2.626zm0 0" transform="translate(-394.619 -449.44)"/><path d="m410.486 541.825a.465.465 0 0 0 .626.2 39.879 39.879 0 0 1 4.116-1.831.466.466 0 0 0 -.281-.888 39.9 39.9 0 0 0 -4.258 1.89.465.465 0 0 0 -.2.625zm0 0" transform="translate(-394.619 -525.775)"/><path d="m253.218 464.488a14.768 14.768 0 0 0 -6.275.221.465.465 0 0 0 .12.915.473.473 0 0 0 .121-.016 14.016 14.016 0 0 1 5.821-.215.465.465 0 1 0 .212-.906zm0 0" transform="translate(-241.946 -455.833)"/><path d="m253.218 505.452a14.777 14.777 0 0 0 -6.275.221.465.465 0 0 0 .12.915.459.459 0 0 0 .121-.016 14.024 14.024 0 0 1 5.821-.214.465.465 0 1 0 .212-.906zm0 0" transform="translate(-241.946 -494.006)"/><path d="m410.486 582.786a.466.466 0 0 0 .626.2 39.89 39.89 0 0 1 4.116-1.832.465.465 0 0 0 -.281-.888 39.935 39.935 0 0 0 -4.258 1.89.465.465 0 0 0 -.2.625zm0 0" transform="translate(-394.619 -563.945)"/><path d="m253.218 546.41a14.763 14.763 0 0 0 -6.275.222.465.465 0 0 0 .12.915.475.475 0 0 0 .121-.016 14.022 14.022 0 0 1 5.821-.215.465.465 0 1 0 .212-.906zm0 0" transform="translate(-241.946 -532.172)"/><path d="m253.218 628.328a14.768 14.768 0 0 0 -6.275.222.466.466 0 0 0 .12.915.478.478 0 0 0 .121-.016 14.015 14.015 0 0 1 5.821-.215.465.465 0 1 0 .212-.906zm0 0" transform="translate(-241.946 -608.508)"/><path d="m253.218 587.368a14.756 14.756 0 0 0 -6.275.221.465.465 0 0 0 .12.915.475.475 0 0 0 .121-.016 14.021 14.021 0 0 1 5.821-.215.465.465 0 1 0 .212-.906zm0 0" transform="translate(-241.946 -570.339)"/></g></g></g></svg>