<svg height="140" viewBox="0 0 140 140" width="140" xmlns="http://www.w3.org/2000/svg" xmlns:xlink="http://www.w3.org/1999/xlink"><clipPath id="a"><path d="m0 0h140v140h-140z"/></clipPath><g clip-path="url(#a)"><path d="m0 0s3.717 1.782 5.2 3.566" fill="#ffd9b6" transform="translate(67.362 57.675)"/><path d="m0 0 7.347 7.342" fill="#e6e6e6" transform="translate(15.899 101.726)"/><path d="m9.574 11.793a2.219 2.219 0 0 1 -1.574-.652l-7.348-7.341a2.226 2.226 0 0 1 3.148-3.148l7.347 7.342a2.225 2.225 0 0 1 -1.574 3.8" fill="#252258" transform="translate(13.672 99.5)"/><path d="m7.347 0-7.347 7.342" fill="#e6e6e6" transform="translate(15.899 101.726)"/><path d="m2.226 11.793a2.225 2.225 0 0 1 -1.574-3.8l7.348-7.341a2.226 2.226 0 0 1 3.148 3.148l-7.348 7.341a2.219 2.219 0 0 1 -1.574.652" fill="#252258" transform="translate(13.672 99.5)"/><path d="m2.226 14.835a2.226 2.226 0 0 1 -2.226-2.225v-10.385a2.226 2.226 0 0 1 4.453 0v10.385a2.226 2.226 0 0 1 -2.226 2.225" fill="#252258" transform="translate(105.645 16.384)"/><path d="m12.617 4.45h-10.391a2.225 2.225 0 1 1 0-4.45h10.39a2.225 2.225 0 1 1 0 4.45" fill="#252258" transform="translate(100.45 21.576)"/><path d="m2.226 14.835a2.226 2.226 0 0 1 -2.226-2.225v-10.385a2.226 2.226 0 0 1 4.453 0v10.385a2.226 2.226 0 0 1 -2.226 2.225" fill="#cea955" transform="translate(110.84 112.81)"/><path d="m12.617 4.45h-10.391a2.225 2.225 0 1 1 0-4.45h10.39a2.225 2.225 0 1 1 0 4.45" fill="#cea955" transform="translate(105.645 118.002)"/><path d="m0 0v10.384" fill="#e6e6e6" transform="translate(44.788 6)"/><path d="m2.226 14.835a2.226 2.226 0 0 1 -2.226-2.225v-10.385a2.226 2.226 0 0 1 4.453 0v10.385a2.226 2.226 0 0 1 -2.226 2.225" fill="#cea955" transform="translate(44.402 7.454)"/><path d="m10.39 0h-10.39" fill="#e6e6e6" transform="translate(39.592 11.192)"/><path d="m12.617 4.45h-10.391a2.225 2.225 0 1 1 0-4.45h10.39a2.225 2.225 0 1 1 0 4.45" fill="#cea955" transform="translate(39.207 12.646)"/><path d="m2.226 14.835a2.226 2.226 0 0 1 -2.226-2.225v-10.385a2.226 2.226 0 0 1 4.453 0v10.385a2.226 2.226 0 0 1 -2.226 2.225" fill="#252258" transform="translate(6.195 47.537)"/><path d="m8.236 16.464a8.232 8.232 0 1 1 8.236-8.233 8.244 8.244 0 0 1 -8.236 8.233zm0-11.985a3.753 3.753 0 1 0 3.755 3.752 3.758 3.758 0 0 0 -3.755-3.751z" fill="#252258" transform="translate(58.057 116.905)"/><path d="m12.617 4.45h-10.391a2.225 2.225 0 1 1 0-4.45h10.39a2.225 2.225 0 1 1 0 4.45" fill="#252258" transform="translate(1 52.729)"/><path d="m0 0 7.347 7.342" fill="#f2f2f2" transform="translate(129.45 62.414)"/><path d="m9.574 11.793a2.219 2.219 0 0 1 -1.574-.652l-7.348-7.341a2.226 2.226 0 0 1 3.148-3.148l7.347 7.342a2.225 2.225 0 0 1 -1.574 3.8" fill="#f5f0ff" transform="translate(127.223 60.188)"/><path d="m7.347 0-7.347 7.342" fill="#f2f2f2" transform="translate(129.45 62.414)"/><path d="m2.226 11.793a2.225 2.225 0 0 1 -1.574-3.8l7.348-7.341a2.226 2.226 0 0 1 3.148 3.148l-7.348 7.341a2.219 2.219 0 0 1 -1.574.652" fill="#f5f0ff" transform="translate(127.223 60.188)"/><path d="m2.681 17.861a2.68 2.68 0 0 1 -2.681-2.679v-12.503a2.681 2.681 0 0 1 5.361 0v12.5a2.68 2.68 0 0 1 -2.681 2.679" fill="#252258" transform="translate(70.68 14.871)"/><path d="m15.19 5.358h-12.509a2.679 2.679 0 1 1 0-5.358h12.509a2.679 2.679 0 1 1 0 5.358" fill="#252258" transform="translate(64.425 21.122)"/><path d="m2.681 17.861a2.68 2.68 0 0 1 -2.681-2.679v-12.503a2.681 2.681 0 0 1 5.361 0v12.5a2.68 2.68 0 0 1 -2.681 2.679" fill="#252258" transform="matrix(.70710678 -.70710678 .70710678 .70710678 65.15 19.382)"/><path d="m2.681 17.861a2.68 2.68 0 0 1 -2.681-2.679v-12.503a2.681 2.681 0 0 1 5.361 0v12.5a2.68 2.68 0 0 1 -2.681 2.679" fill="#252258" transform="matrix(-.70710678 -.70710678 .70710678 -.70710678 68.942 32.012)"/><g fill="#cea955"><path d="m1.532 10.209a1.532 1.532 0 0 1 -1.532-1.531v-7.147a1.532 1.532 0 0 1 3.065 0v7.147a1.532 1.532 0 0 1 -1.532 1.531" transform="translate(118.104 57.913)"/><path d="m8.683 3.063h-7.151a1.531 1.531 0 1 1 0-3.063h7.151a1.531 1.531 0 1 1 0 3.063" transform="translate(114.529 61.486)"/><path d="m1.532 10.209a1.532 1.532 0 0 1 -1.532-1.531v-7.147a1.532 1.532 0 0 1 3.065 0v7.147a1.532 1.532 0 0 1 -1.532 1.531" transform="matrix(.70710678 -.70710678 .70710678 .70710678 114.944 60.492)"/><path d="m1.532 10.209a1.532 1.532 0 0 1 -1.532-1.531v-7.147a1.532 1.532 0 0 1 3.065 0v7.147a1.532 1.532 0 0 1 -1.532 1.531" transform="matrix(-.70710678 -.70710678 .70710678 -.70710678 117.111 67.711)"/><path d="m1.532 10.209a1.532 1.532 0 0 1 -1.532-1.531v-7.147a1.532 1.532 0 0 1 3.065 0v7.147a1.532 1.532 0 0 1 -1.532 1.531" transform="translate(27.121 33.599)"/><path d="m8.683 3.063h-7.151a1.531 1.531 0 1 1 0-3.063h7.151a1.531 1.531 0 1 1 0 3.063" transform="translate(23.546 37.172)"/><path d="m1.532 10.209a1.532 1.532 0 0 1 -1.532-1.531v-7.147a1.532 1.532 0 0 1 3.065 0v7.147a1.532 1.532 0 0 1 -1.532 1.531" transform="matrix(.70710678 -.70710678 .70710678 .70710678 23.961 36.178)"/><path d="m1.532 10.209a1.532 1.532 0 0 1 -1.532-1.531v-7.147a1.532 1.532 0 0 1 3.065 0v7.147a1.532 1.532 0 0 1 -1.532 1.531" transform="matrix(-.70710678 -.70710678 .70710678 -.70710678 26.128 43.397)"/></g><g transform="translate(39.741 46.127)"><ellipse cx="28.576" cy="28.559" fill="#ffe500" rx="28.576" ry="28.559"/><path d="m0 28.559a28.576 28.576 0 1 1 28.576 28.56 28.652 28.652 0 0 1 -28.576-28.56z" fill="#cea955"/><ellipse cx="22.861" cy="2.142" fill="#45413c" opacity=".15" rx="22.861" ry="2.142" transform="translate(5.715 60.546)"/><g stroke="#252258" stroke-linecap="round" stroke-linejoin="round" stroke-miterlimit="10"><ellipse cx="8.573" cy="8.618" fill="#fff" rx="8.573" ry="8.618" stroke-width="1.173" transform="translate(7.144 17.799)"/><ellipse cx="8.573" cy="8.618" fill="#fff" rx="8.573" ry="8.618" stroke-width="1.173" transform="translate(32.862 17.799)"/><ellipse cx="2.449" cy="2.462" fill="#252258" rx="2.449" ry="2.462" stroke-width="1.173" transform="translate(13.267 28.889)"/><ellipse cx="2.449" cy="2.462" fill="#252258" rx="2.449" ry="2.462" stroke-width="1.173" transform="translate(38.986 28.889)"/><path d="m8.573 0-4.434 1.755-4.139-1.755" fill="none" stroke-width="7.04" transform="translate(24.289 43.553)"/></g></g></g></svg>