<svg height="28" viewBox="0 0 28 28" width="28" xmlns="http://www.w3.org/2000/svg" xmlns:xlink="http://www.w3.org/1999/xlink"><clipPath id="a"><path d="m0 0h28v28h-28z"/></clipPath><g clip-path="url(#a)"><path d="m1952.029-1359.635h10.808a.7.7 0 0 1 .231.005 1.443 1.443 0 0 1 .256.161 2.213 2.213 0 0 1 -.265.154.474.474 0 0 1 -.173 0q-13.554 0-27.108 0c-.153 0-.424.105-.431-.145-.008-.291.28-.168.434-.168q5.253-.011 10.505-.006h.341l.01-.051c-.075-.03-.15-.064-.226-.089a9.646 9.646 0 0 1 -4.161-2.7.6.6 0 0 0 -.4-.169c-1.225-.013-2.451 0-3.677-.01a1.946 1.946 0 0 1 -2-1.57 2.268 2.268 0 0 1 -.034-.464q0-9.294 0-18.588a1.937 1.937 0 0 1 2.035-2.036q11.147-.006 22.293 0a1.94 1.94 0 0 1 2.044 2.057q0 9.279 0 18.558a1.934 1.934 0 0 1 -2.027 2.042c-1.225.011-2.451 0-3.677.01a.6.6 0 0 0 -.4.163 9.6 9.6 0 0 1 -4.187 2.709c-.069.023-.136.05-.2.075zm-2.662-18.365a9.018 9.018 0 0 0 -1.182.137 9.3 9.3 0 0 0 -6.973 9.919 9.115 9.115 0 0 0 3.542 6.466 7.424 7.424 0 0 0 6.069 1.695 9.167 9.167 0 0 0 7.591-10.236 9.147 9.147 0 0 0 -9.047-7.981zm12.831-2.082h-1.288q-12.038 0-24.075 0c-.235 0-.367.015-.367.318q.015 7.543.009 15.087a1.6 1.6 0 0 0 1.691 1.683c1.109.009 2.218.008 3.326.01.083 0 .166-.011.3-.021a9.446 9.446 0 0 1 -1.908-7.027 9.291 9.291 0 0 1 3.593-6.324 9.509 9.509 0 0 1 11.534-.121 9.2 9.2 0 0 1 3.462 5.023 9.495 9.495 0 0 1 -1.6 8.441.975.975 0 0 0 .144.028c1.206 0 2.412.01 3.618 0a1.515 1.515 0 0 0 .986-.386 1.751 1.751 0 0 0 .578-1.434q-.009-7.456 0-14.912zm-12.384-.357v.008q6.01 0 12.019 0c.259 0 .356-.06.35-.336-.017-.855 0-1.712-.009-2.567a1.6 1.6 0 0 0 -1.641-1.643c-.272-.005-.544.005-.817.005q-10.444 0-20.888-.008a1.171 1.171 0 0 0 -.989.5 1.69 1.69 0 0 0 -.376 1.08c.006.846 0 1.692 0 2.538 0 .413 0 .413.418.413z" fill="#cea955" transform="translate(-1935.331 1385.339)"/><path d="m1988.257-1039.026h10.237a.564.564 0 0 1 .2 0 1.787 1.787 0 0 1 .26.161 1.539 1.539 0 0 1 -.245.153.58.58 0 0 1 -.2 0q-10.266 0-20.531 0c-.158 0-.424.088-.431-.154-.008-.261.263-.161.416-.162q5.147-.002 10.294.002z" fill="#cea955" transform="translate(-1974.246 1066.014)"/><path d="m1936.344-1038.9c.311 0 .622-.012.932.008.087.005.168.1.252.157-.078.053-.155.15-.234.152q-.961.018-1.923 0c-.076 0-.149-.106-.224-.163.078-.051.155-.141.236-.145.317-.015.64-.009.961-.009z" fill="#cea955" transform="translate(-1935.147 1065.884)"/><path d="m2265.468-1038.878c.321 0 .642-.009.961.006.074 0 .143.089.215.137-.072.059-.143.169-.216.17q-.976.02-1.952 0c-.073 0-.142-.112-.213-.171.071-.048.141-.133.214-.136.33-.015.661-.006.991-.006z" fill="#cea955" transform="translate(-2238.651 1065.867)"/><g fill="#252258"><path d="m2142.445-1222.378c-.28.289-.56.586-.849.873a.647.647 0 0 1 -1 .064.656.656 0 0 1 .045-1c.292-.3.6-.58.937-.908a12.417 12.417 0 0 1 -.915-.914 1 1 0 0 1 -.25-.64.651.651 0 0 1 1.11-.379c.274.247.535.51.784.782.152.166.255.15.4-.006.23-.25.475-.487.72-.723a.7.7 0 0 1 1.014-.04.686.686 0 0 1 -.066.987c-.3.3-.611.592-.94.91.329.326.62.609.906.9a.669.669 0 0 1 .083 1 .691.691 0 0 1 -1.031-.049c-.279-.271-.555-.544-.833-.816a.529.529 0 0 0 -.115-.041z" transform="translate(-2124.411 1237.938)"/><path d="m2038.173-1223.232c.363.344.689.634.993.946a.641.641 0 0 1 .109.805.6.6 0 0 1 -.691.315.945.945 0 0 1 -.419-.236c-.3-.278-.572-.578-.883-.9-.327.324-.6.638-.922.9a1.164 1.164 0 0 1 -.615.257.554.554 0 0 1 -.549-.407.649.649 0 0 1 .137-.705c.25-.259.507-.51.76-.766.067-.068.131-.14.225-.24-.3-.3-.6-.577-.884-.865a.67.67 0 0 1 -.092-1 .685.685 0 0 1 1.032.046c.29.284.567.582.913.939.335-.36.627-.682.929-.995a.644.644 0 0 1 .726-.156.558.558 0 0 1 .407.55 1.071 1.071 0 0 1 -.237.594c-.263.306-.578.571-.939.918z" transform="translate(-2027.365 1237.82)"/><path d="m2076.778-1142.115a3.411 3.411 0 0 1 2.759 1.779.678.678 0 0 1 -.178.994.688.688 0 0 1 -.967-.3 2.242 2.242 0 0 0 -3.209-.751 3.333 3.333 0 0 0 -.727.78.7.7 0 0 1 -.969.295.688.688 0 0 1 -.189-.991 3.738 3.738 0 0 1 3.48-1.806z" transform="translate(-2062.43 1161.067)"/><path d="m2106.63-1359.909h-4.869a2.923 2.923 0 0 1 -.321-.007.83.83 0 0 1 -.767-.811.829.829 0 0 1 .762-.815 2.482 2.482 0 0 1 .291-.008h9.854c.664 0 1.058.305 1.06.818s-.394.823-1.055.823zm.034-1.223h-4.84c-.1 0-.194 0-.292 0-.3.014-.436.14-.439.392s.134.389.425.407h.175 9.943a1.673 1.673 0 0 0 .262-.011.356.356 0 0 0 .324-.383c.006-.276-.153-.407-.514-.408q-2.522.001-5.043.003z" transform="translate(-2087.793 1363.426)"/><path d="m1976.525-1362.6a1.013 1.013 0 0 1 -1-1 1.024 1.024 0 0 1 1.009-1 1.014 1.014 0 0 1 1.012.994 1.007 1.007 0 0 1 -1.021 1.006zm-.582-.992a.607.607 0 0 0 .583.6.62.62 0 0 0 .612-.615.57.57 0 0 0 -.62-.584.555.555 0 0 0 -.575.591z" transform="translate(-1972.382 1366.245)"/><path d="m2016.978-1362.6a1.006 1.006 0 0 1 -1-1 1.022 1.022 0 0 1 1.037-1 .993.993 0 0 1 .971 1.024.981.981 0 0 1 -1.008.976zm-.578-.986a.606.606 0 0 0 .588.6.625.625 0 0 0 .608-.621.57.57 0 0 0 -.626-.578.555.555 0 0 0 -.57.594z" transform="translate(-2009.689 1366.246)"/><path d="m2058.452-1363.574a.983.983 0 0 1 -1.053.966 1.007 1.007 0 0 1 -.954-1.017 1.02 1.02 0 0 1 1.049-.987.993.993 0 0 1 .958 1.038zm-1.587-.023a.605.605 0 0 0 .585.6.629.629 0 0 0 .612-.616.578.578 0 0 0 -.625-.584.555.555 0 0 0 -.573.597z" transform="translate(-2047.005 1366.248)"/></g></g></svg>