<svg height="28" viewBox="0 0 28 28" width="28" xmlns="http://www.w3.org/2000/svg" xmlns:xlink="http://www.w3.org/1999/xlink"><clipPath id="a"><path d="m0 0h28v28h-28z"/></clipPath><g clip-path="url(#a)"><path d="m-423.459 319.351c-.155.726-.275 1.462-.471 2.178a13.065 13.065 0 0 1 -13.38 9.625 13.137 13.137 0 0 1 -12.129-11.035 13.078 13.078 0 0 1 14.427-14.978 13.034 13.034 0 0 1 11.44 11.306 3.158 3.158 0 0 0 .113.415zm-18.08-9.07 12.839 12.845c2.436-3.34 1.9-8.512-1.249-11.637s-8.269-3.629-11.59-1.207zm-2.777 2.788a9.184 9.184 0 0 0 1.294 11.72 9.157 9.157 0 0 0 11.529 1.1z" fill="#fff" transform="translate(450.591 -304.049)"/></g></svg>