<svg height="140" viewBox="0 0 140 140" width="140" xmlns="http://www.w3.org/2000/svg" xmlns:xlink="http://www.w3.org/1999/xlink"><clipPath id="a"><path d="m17.3 17.293h-17.3v-17.293h17.3z"/></clipPath><clipPath id="b"><path d="m26.41 26.4h-26.41v-26.4h26.41z"/></clipPath><clipPath id="c"><path d="m0 17.293h17.3v-17.293h-17.3z"/></clipPath><clipPath id="d"><path d="m0 0h140v140h-140z"/></clipPath><g clip-path="url(#d)"><path d="m0 0s3.717 1.782 5.2 3.566" fill="#ffd9b6" transform="translate(67.362 57.675)"/><path d="m0 0 7.347 7.342" fill="#e6e6e6" transform="translate(15.899 101.726)"/><path d="m9.574 11.793a2.219 2.219 0 0 1 -1.574-.652l-7.348-7.341a2.226 2.226 0 0 1 3.148-3.148l7.347 7.342a2.225 2.225 0 0 1 -1.574 3.8" fill="#252258" transform="translate(13.672 99.5)"/><path d="m7.347 0-7.347 7.342" fill="#e6e6e6" transform="translate(15.899 101.726)"/><g fill="#252258"><path d="m2.226 11.793a2.225 2.225 0 0 1 -1.574-3.8l7.348-7.341a2.226 2.226 0 0 1 3.148 3.148l-7.348 7.341a2.219 2.219 0 0 1 -1.574.652" transform="translate(13.672 99.5)"/><path d="m2.226 14.835a2.226 2.226 0 0 1 -2.226-2.225v-10.385a2.226 2.226 0 0 1 4.453 0v10.385a2.226 2.226 0 0 1 -2.226 2.225" transform="translate(105.645 16.384)"/><path d="m12.617 4.45h-10.391a2.225 2.225 0 1 1 0-4.45h10.39a2.225 2.225 0 1 1 0 4.45" transform="translate(100.45 21.576)"/></g><path d="m2.226 14.835a2.226 2.226 0 0 1 -2.226-2.225v-10.385a2.226 2.226 0 0 1 4.453 0v10.385a2.226 2.226 0 0 1 -2.226 2.225" fill="#cea955" transform="translate(110.84 112.81)"/><path d="m12.617 4.45h-10.391a2.225 2.225 0 1 1 0-4.45h10.39a2.225 2.225 0 1 1 0 4.45" fill="#cea955" transform="translate(105.645 118.002)"/><path d="m0 0v10.384" fill="#e6e6e6" transform="translate(44.788 6)"/><path d="m2.226 14.835a2.226 2.226 0 0 1 -2.226-2.225v-10.385a2.226 2.226 0 0 1 4.453 0v10.385a2.226 2.226 0 0 1 -2.226 2.225" fill="#cea955" transform="translate(44.402 7.454)"/><path d="m10.39 0h-10.39" fill="#e6e6e6" transform="translate(39.592 11.192)"/><path d="m12.617 4.45h-10.391a2.225 2.225 0 1 1 0-4.45h10.39a2.225 2.225 0 1 1 0 4.45" fill="#cea955" transform="translate(39.207 12.646)"/><path d="m2.226 14.835a2.226 2.226 0 0 1 -2.226-2.225v-10.385a2.226 2.226 0 0 1 4.453 0v10.385a2.226 2.226 0 0 1 -2.226 2.225" fill="#252258" transform="translate(6.195 47.537)"/><path d="m8.236 16.464a8.232 8.232 0 1 1 8.236-8.233 8.244 8.244 0 0 1 -8.236 8.233zm0-11.985a3.753 3.753 0 1 0 3.755 3.752 3.758 3.758 0 0 0 -3.755-3.751z" fill="#252258" transform="translate(58.057 116.905)"/><path d="m12.617 4.45h-10.391a2.225 2.225 0 1 1 0-4.45h10.39a2.225 2.225 0 1 1 0 4.45" fill="#252258" transform="translate(1 52.729)"/><path d="m0 0 7.347 7.342" fill="#f2f2f2" transform="translate(129.45 62.414)"/><path d="m9.574 11.793a2.219 2.219 0 0 1 -1.574-.652l-7.348-7.341a2.226 2.226 0 0 1 3.148-3.148l7.347 7.342a2.225 2.225 0 0 1 -1.574 3.8" fill="#f5f0ff" transform="translate(127.223 60.188)"/><path d="m7.347 0-7.347 7.342" fill="#f2f2f2" transform="translate(129.45 62.414)"/><path d="m2.226 11.793a2.225 2.225 0 0 1 -1.574-3.8l7.348-7.341a2.226 2.226 0 0 1 3.148 3.148l-7.348 7.341a2.219 2.219 0 0 1 -1.574.652" fill="#f5f0ff" transform="translate(127.223 60.188)"/><g transform="translate(39.741 46.127)"><ellipse cx="28.576" cy="28.559" fill="#ffe500" rx="28.576" ry="28.559"/><path d="m0 28.559a28.576 28.576 0 1 1 28.576 28.56 28.652 28.652 0 0 1 -28.576-28.56z" fill="#cea955"/><ellipse cx="22.861" cy="2.142" fill="#45413c" opacity=".15" rx="22.861" ry="2.142" transform="translate(5.715 60.546)"/><g stroke="#252258" stroke-linecap="round" stroke-linejoin="round" stroke-miterlimit="10"><ellipse cx="8.573" cy="8.618" fill="#fff" rx="8.573" ry="8.618" stroke-width="1.173" transform="translate(7.144 17.799)"/><ellipse cx="8.573" cy="8.618" fill="#fff" rx="8.573" ry="8.618" stroke-width="1.173" transform="translate(32.862 17.799)"/><ellipse cx="2.449" cy="2.462" fill="#252258" rx="2.449" ry="2.462" stroke-width="1.173" transform="translate(13.267 20.262)"/><ellipse cx="2.449" cy="2.462" fill="#252258" rx="2.449" ry="2.462" stroke-width="1.173" transform="translate(38.986 20.262)"/><path d="m0 0h8.573" fill="none" stroke-width="7.04" transform="translate(24.289 43.553)"/></g></g><g transform="matrix(-1 0 0 -1 47.752 51.419)"><path d="m17.3 17.293h-17.3v-17.293h17.3z" fill="none"/><g clip-path="url(#a)" fill="#cea955"><path d="m5.464 0a1.366 1.366 0 0 1 1.366 1.365v1.82a1.366 1.366 0 0 1 -1.366 1.366c-.275 0-2.732.455-2.732 2.275a2.083 2.083 0 0 0 2.277 1.82 1.814 1.814 0 0 0 1.821-1.365 1.366 1.366 0 0 1 2.732 0 4.4 4.4 0 0 1 -4.553 4.1 4.747 4.747 0 0 1 -5.009-5.01 4.2 4.2 0 0 1 2.92-4.06 7.151 7.151 0 0 1 1.18-.34v-.606a1.366 1.366 0 0 1 1.364-1.365" transform="translate(3.643 4.551)"/><path d="m0 1.365a1.366 1.366 0 1 1 1.366 1.366 1.366 1.366 0 0 1 -1.366-1.366" transform="translate(7.741 .91)"/></g></g><g transform="matrix(-1 0 0 -1 87.228 42.126)"><path d="m26.41 26.4h-26.41v-26.4h26.41z" fill="none"/><g clip-path="url(#b)" fill="#252258"><path d="m8.34 0a2.084 2.084 0 0 1 2.085 2.084v2.778a2.084 2.084 0 0 1 -2.085 2.084c-.419 0-4.17.695-4.17 3.473 0 1.389 1.39 2.778 3.475 2.778a2.769 2.769 0 0 0 2.78-2.084 2.085 2.085 0 0 1 4.17 0c0 3.388-3.183 6.251-6.95 6.251-5.56.001-7.645-4.154-7.645-7.64a6.4 6.4 0 0 1 4.457-6.2 10.915 10.915 0 0 1 1.8-.519v-.921a2.084 2.084 0 0 1 2.083-2.084" transform="translate(5.56 6.946)"/><path d="m0 2.084a2.085 2.085 0 1 1 2.085 2.084 2.084 2.084 0 0 1 -2.085-2.084" transform="translate(11.815 1.389)"/></g></g><g transform="matrix(-1 0 0 -1 122.477 62.457)"><path d="m0 17.293h17.3v-17.293h-17.3z" fill="none"/><g clip-path="url(#c)" fill="#cea955"><path d="m4.1 0a1.366 1.366 0 0 0 -1.368 1.365v1.82a1.366 1.366 0 0 0 1.368 1.366c.275 0 2.732.455 2.732 2.275a2.083 2.083 0 0 1 -2.277 1.82 1.814 1.814 0 0 1 -1.823-1.365 1.366 1.366 0 0 0 -2.732 0 4.4 4.4 0 0 0 4.553 4.1 4.747 4.747 0 0 0 5.009-5.01 4.2 4.2 0 0 0 -2.92-4.06 7.151 7.151 0 0 0 -1.178-.34v-.606a1.366 1.366 0 0 0 -1.364-1.365" transform="translate(4.098 4.551)"/><path d="m2.732 1.365a1.366 1.366 0 1 0 -1.366 1.366 1.366 1.366 0 0 0 1.366-1.366" transform="translate(6.83 .91)"/></g></g></g></svg>