<svg height="510pt" preserveAspectRatio="xMidYMid meet" viewBox="0 0 489 510" width="489pt" xmlns="http://www.w3.org/2000/svg"><path d="m2782 4009c-131-17-374-104-501-178-132-79-267-173-342-241-160-143-263-250-394-411-29-36-143-207-173-259-175-306-262-587-262-848 0-253 95-455 265-560 53-33 207-82 257-82 60 0 138 59 200 150 31 45 97 183 136 285 98 253 177 647 158 778-14 95-99 114-236 52-80-36-134-45-142-22-13 34 16 79 103 161 50 48 103 94 117 104 15 9 54 37 87 62s85 62 115 81c178 115 213 129 314 129 83-1 142-28 161-74 21-50 19-69-20-181-192-545-285-898-285-1086 0-136 33-186 112-170 92 19 432 329 593 541 22 29 45 57 51 64 29 31 149 225 202 326 92 176 145 324 189 525 19 87 21 318 4 398-57 261-231 425-482 457-93 11-135 11-227-1zm60-189c20-6 48-24 62-41 82-97-38-329-218-422-50-26-73-31-129-32-66 0-70 1-99 34s-30 37-26 107c4 60 11 83 39 129 77 127 192 209 329 234 3 0 22-4 42-9z" transform="matrix(.1 0 0 -.1 0 510)"/></svg>