<svg height="28" viewBox="0 0 28 28" width="28" xmlns="http://www.w3.org/2000/svg" xmlns:xlink="http://www.w3.org/1999/xlink"><clipPath id="a"><path d="m0 0h28v28h-28z"/></clipPath><g clip-path="url(#a)"><g fill="#252258"><path d="m464.591 553.977h-14.308a.412.412 0 0 0 0 .823h14.309a.412.412 0 1 0 0-.823zm0 0" transform="translate(-442.05 -538.903)"/><path d="m464.591 590.223h-14.308a.411.411 0 1 0 0 .823h14.309a.411.411 0 1 0 0-.823zm0 0" transform="translate(-442.05 -572.496)"/><path d="m464.591 626.465h-14.308a.412.412 0 1 0 0 .823h14.309a.412.412 0 1 0 0-.823zm0 0" transform="translate(-442.05 -606.086)"/><path d="m464.591 662.707h-14.308a.412.412 0 0 0 0 .823h14.309a.412.412 0 1 0 0-.823zm0 0" transform="translate(-442.05 -639.676)"/><path d="m579.213 479.777h-5.258a.411.411 0 1 0 0 .823h5.258a.411.411 0 1 0 0-.823zm0 0" transform="translate(-556.672 -470.133)"/><path d="m579.213 450.047h-5.258a.411.411 0 1 0 0 .823h5.258a.411.411 0 1 0 0-.823zm0 0" transform="translate(-556.672 -442.579)"/></g><path d="m406.392 370.893a.412.412 0 0 0 .412-.411v-18.461a1.621 1.621 0 0 0 -1.619-1.619h-.785v-.783a1.62 1.62 0 0 0 -1.617-1.619h-17.164a1.621 1.621 0 0 0 -1.619 1.619v22.463a1.621 1.621 0 0 0 1.619 1.619h.783v.783a1.621 1.621 0 0 0 1.619 1.619h17.164a1.621 1.621 0 0 0 1.619-1.619v-2.078a.412.412 0 1 0 -.823 0v2.079a.8.8 0 0 1 -.8.8h-17.16a.8.8 0 0 1 -.8-.8v-22.464a.8.8 0 0 1 .8-.8h17.164a.8.8 0 0 1 .8.8v18.461a.412.412 0 0 0 .412.411zm-19.992-18.872v20.857h-.783a.8.8 0 0 1 -.8-.8v-22.459a.8.8 0 0 1 .8-.8h17.164a.8.8 0 0 1 .8.8v.783h-15.56a1.621 1.621 0 0 0 -1.619 1.619zm0 0" fill="#cea955" transform="translate(-381 -348)"/><path d="m449.83 419.742a.412.412 0 0 0 -.412.412v3.109a1.257 1.257 0 0 0 1.124 1.253c.155.017 4.592 0 4.6 0a1.257 1.257 0 0 0 1.124-1.253v-5.369a1.262 1.262 0 0 0 -1.26-1.26h-4.33a1.262 1.262 0 0 0 -1.26 1.26v.322a.412.412 0 0 0 .823 0v-.322a.438.438 0 0 1 .437-.437h4.33a.438.438 0 0 1 .437.437v4.214a3.566 3.566 0 0 0 -1.113-.8 1.763 1.763 0 1 0 -2.977 0 3.558 3.558 0 0 0 -1.113.8v-1.954a.412.412 0 0 0 -.412-.412zm3.013-.315a.94.94 0 1 1 -.94.94.941.941 0 0 1 .94-.94zm-.809 2.506a1.755 1.755 0 0 0 1.618 0 2.745 2.745 0 0 1 1.728 1.559.434.434 0 0 1 -.325.2c-.027 0-4.351.006-4.414 0h-.01a.435.435 0 0 1 -.325-.2 2.746 2.746 0 0 1 1.728-1.559zm0 0" fill="#252258" transform="translate(-441.63 -411.61)"/></g></svg>