<svg height="28" viewBox="0 0 28 28" width="28" xmlns="http://www.w3.org/2000/svg" xmlns:xlink="http://www.w3.org/1999/xlink"><clipPath id="a"><path d="m0 0h28v28h-28z"/></clipPath><g clip-path="url(#a)"><path d="m1569.141-1861.522c.111-.407.2-.776.318-1.134a.765.765 0 0 1 .258-.28 10.612 10.612 0 0 0 3.9-6.776 10.82 10.82 0 0 0 -4-10.351 10.827 10.827 0 0 0 -3.939-2.064 1.427 1.427 0 0 1 -1.048-1.324 1.459 1.459 0 0 1 .825-1.362 1.438 1.438 0 0 1 1.111-.058c5.4 1.807 8.851 5.437 9.863 11.065a13.391 13.391 0 0 1 -4.133 12.451.481.481 0 0 1 -.453.142c-.8-.1-1.593-.181-2.39-.269-.092-.011-.18-.023-.312-.04z" fill="#cea955" transform="translate(-1548.666 1885.017)"/><path d="m1567.847-1684.205c.472.056.916.111 1.361.16q2.793.309 5.587.616a1.453 1.453 0 0 1 1.306 1.589 1.443 1.443 0 0 1 -1.6 1.285c-1.316-.132-2.629-.288-3.943-.435-1.533-.171-3.066-.354-4.6-.512a1.444 1.444 0 0 1 -1.338-1.863q1.186-4.329 2.4-8.65a1.417 1.417 0 0 1 1.761-1 1.417 1.417 0 0 1 1.008 1.782c-.6 2.212-1.221 4.418-1.833 6.627-.036.121-.067.244-.109.401z" fill="#cea955" transform="translate(-1548.601 1708.533)"/><path d="m1475.96-1884.989a1.45 1.45 0 0 1 1.438 1.465 1.449 1.449 0 0 1 -1.45 1.422 1.449 1.449 0 0 1 -1.438-1.465 1.448 1.448 0 0 1 1.45-1.422z" fill="#252258" transform="translate(-1465.784 1885.048)"/><path d="m1407.726-1842.352a1.45 1.45 0 0 1 -1.462-1.44 1.448 1.448 0 0 1 1.424-1.446 1.45 1.45 0 0 1 1.462 1.439 1.448 1.448 0 0 1 -1.424 1.447z" fill="#cea955" transform="translate(-1403.016 1848.488)"/><path d="m1369.4-1775.553a1.449 1.449 0 0 1 -1.421 1.45 1.45 1.45 0 0 1 -1.465-1.436 1.448 1.448 0 0 1 1.42-1.45 1.45 1.45 0 0 1 1.466 1.436z" fill="#252258" transform="translate(-1366.456 1785.715)"/><path d="m1367.953-1690.088a1.447 1.447 0 0 1 -1.438-1.432 1.448 1.448 0 0 1 1.447-1.454 1.448 1.448 0 0 1 1.438 1.432 1.449 1.449 0 0 1 -1.447 1.454z" fill="#cea955" transform="translate(-1366.457 1708.444)"/><path d="m1407.706-1621.838a1.448 1.448 0 0 1 -1.441-1.429 1.449 1.449 0 0 1 1.444-1.457 1.448 1.448 0 0 1 1.442 1.429 1.45 1.45 0 0 1 -1.445 1.457z" fill="#252258" transform="translate(-1403.016 1645.671)"/><path d="m1477.4-1583.543a1.449 1.449 0 0 1 -1.423 1.449 1.448 1.448 0 0 1 -1.464-1.437 1.448 1.448 0 0 1 1.423-1.449 1.448 1.448 0 0 1 1.464 1.437z" fill="#cea955" transform="translate(-1465.787 1609.117)"/></g></svg>