<svg height="28" viewBox="0 0 28 28" width="28" xmlns="http://www.w3.org/2000/svg" xmlns:xlink="http://www.w3.org/1999/xlink"><clipPath id="a"><path d="m0 0h28v28h-28z"/></clipPath><g clip-path="url(#a)"><g transform="translate(0 -37.53)"><g fill="#252258"><path d="m80.954 77.133a.41.41 0 0 0 -.288.392v3.692a.41.41 0 0 0 .82 0v-2.377l1.749 2.532a.46.46 0 0 0 .519.193.479.479 0 0 0 .324-.477l-.035-3.574a.41.41 0 0 0 -.82.008l.023 2.424-1.833-2.654a.41.41 0 0 0 -.46-.158z" transform="translate(-76.255 -35.522)"/><path d="m155.512 78.237a.41.41 0 0 0 0-.82h-1.544a.41.41 0 0 0 -.41.41v3.665a.41.41 0 0 0 .41.41h1.544a.41.41 0 0 0 0-.82h-1.134v-1.012h1.02a.41.41 0 0 0 0-.82h-1.02v-1.013z" transform="translate(-145.16 -35.815)"/><path d="m297.776 80.806a1.341 1.341 0 0 1 -.985-.414.41.41 0 0 0 -.608.551 2.173 2.173 0 0 0 1.593.683 1.474 1.474 0 0 0 1.5-1.14 1.343 1.343 0 0 0 -1.042-1.475c-.463-.171-.893-.357-1.016-.411a.307.307 0 0 1 -.115-.293.421.421 0 0 1 .331-.339 1.285 1.285 0 0 1 1.066.245.41.41 0 0 0 .526-.629 2.1 2.1 0 0 0 -1.828-.4 1.249 1.249 0 0 0 -.906 1.008 1.115 1.115 0 0 0 .558 1.144c.021.01.529.236 1.1.447.174.064.574.248.518.562a.676.676 0 0 1 -.692.461z" transform="translate(-279.885 -35.522)"/><path d="m210.717 77.124a.41.41 0 0 0 -.482.322l-.469 2.356-.74-2.4a.411.411 0 0 0 -.794.039l-.732 2.359-.467-2.362a.41.41 0 1 0 -.8.159c.767 3.871.717 3.647.736 3.7a.494.494 0 0 0 .465.328.494.494 0 0 0 .468-.345l.733-2.37c.77 2.5.73 2.371.736 2.387a.494.494 0 0 0 .465.328.492.492 0 0 0 .478-.387l.723-3.635a.41.41 0 0 0 -.32-.479z" transform="translate(-194.942 -35.525)"/><path d="m52.24 198.57a.41.41 0 0 0 .41.41h8.835a.41.41 0 1 0 0-.82h-8.835a.41.41 0 0 0 -.41.41z" transform="translate(-49.383 -149.955)"/></g><path d="m52.65 240.619h8.835a.41.41 0 1 0 0-.82h-8.835a.41.41 0 1 0 0 .82z" fill="#cea955" transform="translate(-49.383 -189.317)"/><path d="m52.65 282.258h8.835a.41.41 0 0 0 0-.82h-8.835a.41.41 0 0 0 0 .82z" fill="#252258" transform="translate(-49.383 -228.679)"/><path d="m52.65 323.9h17.291a.41.41 0 0 0 0-.82h-17.291a.41.41 0 0 0 0 .82z" fill="#cea955" transform="translate(-49.383 -268.041)"/><path d="m52.65 365.536h17.291a.41.41 0 0 0 0-.82h-17.291a.41.41 0 0 0 0 .82z" fill="#252258" transform="translate(-49.383 -307.402)"/><path d="m52.65 407.176h17.291a.41.41 0 0 0 0-.82h-17.291a.41.41 0 0 0 0 .82z" fill="#cea955" transform="translate(-49.383 -346.765)"/><path d="m27.59 45.284a.41.41 0 0 0 .41-.41v-3.442a.733.733 0 0 0 -.732-.732h-3.243v-.438a.733.733 0 0 0 -.732-.732h-22.561a.733.733 0 0 0 -.732.732v15.872a.41.41 0 1 0 .82 0v-15.784h22.385v20.459a2.387 2.387 0 0 0 .594 1.577h-21.399a1.579 1.579 0 0 1 -1.58-1.577v-3.035a.41.41 0 0 0 -.82 0v3.035a2.4 2.4 0 0 0 2.4 2.4h23.2a2.4 2.4 0 0 0 2.4-2.4v-14.3a.41.41 0 1 0 -.82 0v14.3a1.577 1.577 0 1 1 -3.154 0v-19.289h3.154v3.354a.41.41 0 0 0 .41.41z" fill="#cea955"/><path d="m261.844 184.211v4.309a1.171 1.171 0 0 0 1.17 1.17h4.309a1.171 1.171 0 0 0 1.17-1.17v-4.309a1.171 1.171 0 0 0 -1.17-1.17h-1.176a.41.41 0 0 0 0 .82h1.176a.35.35 0 0 1 .35.349v4.309a.35.35 0 0 1 -.35.35h-4.309a.35.35 0 0 1 -.349-.35v-4.309a.35.35 0 0 1 .349-.349h1.494a.41.41 0 0 0 0-.82h-1.494a1.171 1.171 0 0 0 -1.17 1.17z" fill="#252258" transform="translate(-247.524 -135.663)"/></g></g></svg>