<svg height="32" viewBox="0 0 32 32" width="32" xmlns="http://www.w3.org/2000/svg" xmlns:xlink="http://www.w3.org/1999/xlink"><clipPath id="a"><path d="m0 0h32v32h-32z"/></clipPath><g clip-path="url(#a)"><path d="m20.8 12.48h1.208l-2.932-2.832v1.205a1.648 1.648 0 0 0 .339 1.355c.338.328.873.265 1.385.272z" fill="none" transform="translate(4.487 -5.825)"/><path d="m18.137 13.706c-.207 0-.377.227-.377.508s.169.508.377.508.379-.227.379-.508-.17-.508-.379-.508z" fill="#1a1818" transform="translate(2.884 -.842)"/><path d="m10.148 20.069a12.945 12.945 0 0 0 2.552 7.716c-.058-5.1-.08-10.2-.1-15.3a12.924 12.924 0 0 0 -2.452 7.584z" fill="#ca9a3f" transform="translate(-6.464 -2.341)"/><path d="m14.225 13.706c-.207 0-.379.227-.379.508s.172.508.379.508.379-.227.379-.508-.17-.508-.379-.508z" fill="#1a1818" transform="translate(-1.923 -.842)"/><path d="m23.406 20.3a12.959 12.959 0 0 0 -2.767-8c-.016 5.381-.033 10.759-.1 16.138a12.955 12.955 0 0 0 2.867-8.138z" fill="#ca9a3f" transform="translate(6.302 -2.573)"/><g fill="#141a44"><path d="m32.073 12.76-3.388-3.273v-.046h-.134l-8.946-.016-4.472.016-2.233.009a1.692 1.692 0 0 0 -1.114.392 1.671 1.671 0 0 0 -.539 1.054v.007l.02 5.336c.016 5.1.038 10.2.1 15.3l.011.011c.058-5.2.08-10.392.1-15.585q.007-2.527.016-5.053a1.367 1.367 0 0 1 1.406-1.212l2.235.007 4.472.013 8.812-.013v1.415a1.883 1.883 0 0 0 .428 1.542 2.19 2.19 0 0 0 1.564.325h1.437c0 .858.013 1.716.016 2.573.016 5.468.033 10.935.1 16.4.062-5.379.08-10.757.1-16.138 0-.983.016-1.965.018-2.948v-.116zm-1.66-.007c-.517-.007-1.052.056-1.395-.272a1.648 1.648 0 0 1 -.339-1.355v-1.205l2.937 2.836z" transform="translate(-5.122 -6.099)"/><path d="m15.017 13.451a.99.99 0 0 0 .2-.517 1.822 1.822 0 0 1 -.769.561 3.026 3.026 0 0 1 -.969.134 1.192 1.192 0 0 0 1.074.163 1.067 1.067 0 0 0 .464-.341z" transform="translate(-2.376 -1.79)"/><path d="m17.689 12.921a1.072 1.072 0 0 0 .644.867 1.159 1.159 0 0 0 .568.074 1.1 1.1 0 0 0 .506-.2 2.424 2.424 0 0 1 -.951-.156 2.223 2.223 0 0 1 -.767-.585z" transform="translate(2.797 -1.806)"/><path d="m16.033 15.2a4.335 4.335 0 0 1 -.582-.459 1.489 1.489 0 0 0 1.181 1 1.038 1.038 0 0 0 .771-.323 1.713 1.713 0 0 0 .392-.675c-.356.359-.726.729-1.147.686a1.193 1.193 0 0 1 -.615-.229z" transform="translate(.048 .427)"/><path d="m14.4 13.565a.835.835 0 0 0 0 1.644.834.834 0 0 0 0-1.644z" transform="translate(-2.095 -1.015)"/><path d="m14.225 14.722c-.207 0-.379-.227-.379-.508s.172-.508.379-.508.379.227.379.508-.17.508-.379.508z" transform="translate(-1.923 -.842)"/><path d="m18.31 13.565a.834.834 0 1 0 .693.822.767.767 0 0 0 -.693-.822z" transform="translate(2.711 -1.015)"/><path d="m18.137 14.722c-.207 0-.377-.227-.377-.508s.169-.508.377-.508.379.227.379.508-.17.508-.379.508z" transform="translate(2.884 -.842)"/><path d="m11.635 9.864a2.656 2.656 0 0 0 -1.794 0 2.534 2.534 0 0 0 .9.156 2.482 2.482 0 0 0 .894-.156z" transform="translate(-6.841 -5.752)"/><path d="m11.8 8.9a2.869 2.869 0 0 0 -.158-.945 2.866 2.866 0 0 0 -.156.945 2.8 2.8 0 0 0 .156.945 2.749 2.749 0 0 0 .158-.945z" transform="translate(-4.818 -7.907)"/><path d="m11.608 9.8a2.549 2.549 0 0 0 -1.248-1.252 2.481 2.481 0 0 0 .515.733 2.441 2.441 0 0 0 .733.519z" transform="translate(-6.204 -7.176)"/></g><path d="m23.975 18.051h-11.211a.192.192 0 1 1 0-.383h11.211a.192.192 0 0 1 0 .383z" fill="#ca9a3f" opacity=".2" transform="translate(-3.49 4.024)"/><path d="m26.852 18.655h-14.088a.192.192 0 1 1 0-.383h14.088a.192.192 0 0 1 0 .383z" fill="#ca9a3f" opacity=".2" transform="translate(-3.49 4.766)"/><path d="m18.719 19.26h-5.955a.193.193 0 1 1 0-.385h5.956a.193.193 0 0 1 0 .385z" fill="#ca9a3f" opacity=".2" transform="translate(-3.49 5.506)"/></g></svg>