<svg height="28" viewBox="0 0 28 28" width="28" xmlns="http://www.w3.org/2000/svg" xmlns:xlink="http://www.w3.org/1999/xlink"><clipPath id="a"><path d="m0 0h28v28h-28z"/></clipPath><g clip-path="url(#a)"><path d="m-441.453-403.224c-.545.49-1.059.943-1.562 1.409a2.689 2.689 0 0 1 -3.1.614 2.683 2.683 0 0 1 -1.634-2.7c0-2.87 0-5.74.006-8.61a.746.746 0 0 0 -.391-.746 3.266 3.266 0 0 1 -1.047-4.623 1.776 1.776 0 0 0 -.016-2.134 3.1 3.1 0 0 1 -.07-3.423 3.085 3.085 0 0 1 3-1.654 1.776 1.776 0 0 0 1.862-1.055 3.125 3.125 0 0 1 2.975-1.8 3.1 3.1 0 0 1 2.922 1.785 1.769 1.769 0 0 0 1.852 1.071 3.082 3.082 0 0 1 3.006 1.637 3.121 3.121 0 0 1 -.081 3.478 1.737 1.737 0 0 0 -.005 2.079 3.259 3.259 0 0 1 -1.075 4.662.7.7 0 0 0 -.354.7c.006 2.911.014 5.823 0 8.734a2.654 2.654 0 0 1 -3.061 2.792 3.761 3.761 0 0 1 -1.54-.728 20.569 20.569 0 0 1 -1.687-1.488zm-4.568-19.989a1.474 1.474 0 0 0 -1.638.722 1.515 1.515 0 0 0 .16 1.69 3.251 3.251 0 0 1 -.042 3.8 1.445 1.445 0 0 0 -.107 1.636 1.467 1.467 0 0 0 1.469.742 3.27 3.27 0 0 1 3.345 1.912 1.481 1.481 0 0 0 1.364.923 1.5 1.5 0 0 0 1.41-.95 3.227 3.227 0 0 1 3.292-1.887 1.5 1.5 0 0 0 1.488-.708 1.465 1.465 0 0 0 -.1-1.691 3.242 3.242 0 0 1 -.018-3.8 1.5 1.5 0 0 0 .134-1.691 1.515 1.515 0 0 0 -1.537-.72 3.254 3.254 0 0 1 -3.246-1.875 1.514 1.514 0 0 0 -1.39-.976 1.529 1.529 0 0 0 -1.439 1 3.307 3.307 0 0 1 -3.145 1.873zm.2 10.483a1.211 1.211 0 0 0 -.044.213c0 2.911-.018 5.823.016 8.734a1.063 1.063 0 0 0 .49.828 1.217 1.217 0 0 0 1-.2c.736-.574 1.4-1.239 2.1-1.86a1.024 1.024 0 0 1 1.634.01c.637.567 1.271 1.137 1.9 1.718.351.327.713.606 1.216.364.474-.228.487-.67.486-1.123-.006-2.454 0-4.908 0-7.362v-1.316a1.344 1.344 0 0 0 -1.373.855 3.374 3.374 0 0 1 -1.632 1.65 3.314 3.314 0 0 1 -4.372-1.5c-.323-.581-.679-1.052-1.424-1.01z" fill="#fff" transform="translate(455.746 428.949)"/></g></svg>