<svg height="50" viewBox="0 0 80 50" width="80" xmlns="http://www.w3.org/2000/svg" xmlns:xlink="http://www.w3.org/1999/xlink"><clipPath id="a"><path d="m0 0h80v50h-80z"/></clipPath><g clip-path="url(#a)"><ellipse cx="36.994" cy="5.203" fill="#dfd5c2" rx="36.994" ry="5.203" transform="translate(3.018 39.593)"/><g fill="#252258"><rect height="9.208" rx="2.949" transform="translate(12.656 33.447)" width="5.899"/><rect height="15.659" rx="2.949" transform="translate(20.298 26.996)" width="5.899"/><rect height="22.656" rx="2.949" transform="translate(27.941 19.998)" width="5.899"/><rect height="29.627" rx="2.949" transform="translate(35.583 13.028)" width="5.899"/><rect height="34.588" rx="2.949" transform="translate(43.226 8.067)" width="5.899"/><path d="m2028.325 743.574a.315.315 0 0 1 -.191-.065.322.322 0 0 1 -.124-.215l-.059-.443a.261.261 0 0 0 -.177-.216l-.078-.026a.253.253 0 0 0 -.273.07l-.319.351a.317.317 0 0 1 -.451.019l-.373-.349a.327.327 0 0 1 -.018-.457l.274-.3a.265.265 0 0 0 .036-.3.257.257 0 0 0 -.26-.133l-.375.051a.314.314 0 0 1 -.235-.062.322.322 0 0 1 -.124-.215l-.068-.51a.323.323 0 0 1 .274-.363l.375-.051a.26.26 0 0 0 .217-.2.264.264 0 0 0 -.114-.283l-.343-.217a.326.326 0 0 1 -.1-.445l.269-.436a.318.318 0 0 1 .2-.144.314.314 0 0 1 .24.041l.4.253a.252.252 0 0 0 .282-.006l.068-.046a.264.264 0 0 0 .115-.256l-.059-.443a.323.323 0 0 1 .274-.363l.5-.069a.314.314 0 0 1 .235.062.321.321 0 0 1 .124.215l.044.33a.26.26 0 0 0 .216.224 2.061 2.061 0 0 1 .281.068.257.257 0 0 0 .268-.071l.282-.311a.317.317 0 0 1 .451-.018l.372.348a.327.327 0 0 1 .018.457l-.2.22a.264.264 0 0 0 -.032.311l.036.065a.256.256 0 0 0 .259.131l.265-.036a.315.315 0 0 1 .234.062.322.322 0 0 1 .124.215l.068.509a.323.323 0 0 1 -.274.364l-.265.036a.258.258 0 0 0 -.216.2c-.006.024-.012.049-.018.073a.262.262 0 0 0 .112.291l.25.158a.326.326 0 0 1 .1.445l-.269.436a.317.317 0 0 1 -.44.1l-.353-.224a.256.256 0 0 0 -.277 0 2.055 2.055 0 0 1 -.253.141.263.263 0 0 0 -.15.274l.044.33a.323.323 0 0 1 -.274.363l-.5.068a.3.3 0 0 1 -.045-.008zm-.714-1.042a.314.314 0 0 1 .105.018l.075.026a.322.322 0 0 1 .22.266l.059.444a.262.262 0 0 0 .1.174.253.253 0 0 0 .189.05l.5-.068a.261.261 0 0 0 .221-.294l-.043-.33a.324.324 0 0 1 .185-.338 2 2 0 0 0 .245-.137.318.318 0 0 1 .344 0l.353.224a.252.252 0 0 0 .193.033.257.257 0 0 0 .161-.116l.268-.436a.264.264 0 0 0 -.082-.361l-.25-.158a.323.323 0 0 1 -.138-.359c.006-.023.012-.047.017-.071a.32.32 0 0 1 .268-.244l.265-.036a.261.261 0 0 0 .221-.295l-.068-.509a.26.26 0 0 0 -.1-.174.253.253 0 0 0 -.189-.05l-.265.036a.317.317 0 0 1 -.321-.163l-.035-.063a.325.325 0 0 1 .04-.383l.2-.22a.265.265 0 0 0 -.015-.37l-.372-.348a.255.255 0 0 0 -.364.015l-.283.311a.319.319 0 0 1 -.332.089 1.972 1.972 0 0 0 -.273-.066.322.322 0 0 1 -.267-.276l-.043-.33a.26.26 0 0 0 -.1-.174.253.253 0 0 0 -.189-.05l-.5.068a.262.262 0 0 0 -.221.294l.059.443a.326.326 0 0 1 -.143.316l-.066.045a.314.314 0 0 1 -.35.008l-.4-.253a.252.252 0 0 0 -.193-.033.256.256 0 0 0 -.161.116l-.269.436a.265.265 0 0 0 .082.361l.342.217a.326.326 0 0 1 .141.349h-.031l.03.007a.321.321 0 0 1 -.268.245l-.376.051a.261.261 0 0 0 -.221.295l.068.509a.261.261 0 0 0 .1.175.254.254 0 0 0 .189.05l.375-.051a.318.318 0 0 1 .323.165l-.025.019.027-.015a.326.326 0 0 1 -.045.375l-.273.3a.265.265 0 0 0 .015.37l.373.348a.252.252 0 0 0 .185.069.256.256 0 0 0 .179-.084l.318-.351a.317.317 0 0 1 .236-.112z" transform="translate(-2000.471 -732.584)"/><path d="m2063.5 778.539a1.231 1.231 0 0 1 -.726-.274 1.387 1.387 0 0 1 -.555-.872 1.221 1.221 0 0 1 1.073-1.25.9.9 0 0 1 .671.2 1.461 1.461 0 0 1 .539.941 1.079 1.079 0 0 1 -.894 1.252.8.8 0 0 1 -.108.003zm-.1-2.342a.728.728 0 0 0 -.1.007 1.158 1.158 0 0 0 -1.021 1.181 1.34 1.34 0 0 0 .531.831 1.1 1.1 0 0 0 .789.255 1.018 1.018 0 0 0 .841-1.183 1.4 1.4 0 0 0 -.515-.9.863.863 0 0 0 -.519-.188z" transform="translate(-2035.558 -769.291)"/><path d="m2823.617 1133.219a.526.526 0 0 1 -.321-.109.541.541 0 0 1 -.209-.362l-.1-.778a.482.482 0 0 0 -.327-.4c-.045-.014-.091-.029-.136-.046a.467.467 0 0 0 -.5.129l-.558.615a.532.532 0 0 1 -.759.031l-.653-.611a.55.55 0 0 1 -.03-.768l.479-.527a.487.487 0 0 0 .067-.56v-.007a.474.474 0 0 0 -.479-.246l-.658.09a.529.529 0 0 1 -.395-.1.542.542 0 0 1 -.209-.362l-.119-.894a.543.543 0 0 1 .46-.611l.659-.09a.48.48 0 0 0 .4-.366.486.486 0 0 0 -.209-.524l-.6-.381a.549.549 0 0 1 -.17-.749l.471-.764a.532.532 0 0 1 .739-.173l.7.443a.466.466 0 0 0 .52-.011c.039-.028.079-.055.119-.081a.485.485 0 0 0 .212-.472l-.1-.778a.543.543 0 0 1 .46-.611l.879-.12a.529.529 0 0 1 .395.1.544.544 0 0 1 .209.362l.076.578a.48.48 0 0 0 .4.412 3.56 3.56 0 0 1 .49.119.475.475 0 0 0 .495-.132l.5-.545a.531.531 0 0 1 .758-.031l.653.611a.55.55 0 0 1 .031.768l-.35.385a.485.485 0 0 0 -.06.572c.022.037.043.075.063.113a.471.471 0 0 0 .477.242l.465-.063a.53.53 0 0 1 .394.1.544.544 0 0 1 .209.362l.119.893a.543.543 0 0 1 -.46.611l-.464.063a.474.474 0 0 0 -.4.362c-.01.042-.021.085-.032.127a.482.482 0 0 0 .207.535l.438.278a.549.549 0 0 1 .17.749l-.471.764a.533.533 0 0 1 -.336.242.527.527 0 0 1 -.4-.069l-.62-.392a.472.472 0 0 0 -.511.006 3.547 3.547 0 0 1 -.441.246.485.485 0 0 0 -.276.5l.077.578a.543.543 0 0 1 -.46.611l-.88.12a.553.553 0 0 1 -.098.016zm-1.252-1.781a.519.519 0 0 1 .177.031c.044.016.089.031.133.045a.542.542 0 0 1 .37.448l.1.778a.48.48 0 0 0 .186.321.465.465 0 0 0 .348.093l.88-.12a.482.482 0 0 0 .408-.542l-.077-.579a.546.546 0 0 1 .312-.568 3.544 3.544 0 0 0 .433-.242.534.534 0 0 1 .578-.006l.62.392a.466.466 0 0 0 .356.061.472.472 0 0 0 .3-.215l.471-.763a.487.487 0 0 0 -.151-.665l-.438-.278a.543.543 0 0 1 -.233-.6c.011-.041.021-.083.031-.125a.538.538 0 0 1 .45-.409l.464-.063a.482.482 0 0 0 .408-.542l-.119-.893a.482.482 0 0 0 -.185-.321.469.469 0 0 0 -.349-.093l-.465.063a.535.535 0 0 1 -.54-.274c-.02-.038-.041-.075-.062-.111a.546.546 0 0 1 .067-.644l.35-.385a.488.488 0 0 0 -.027-.682l-.653-.611a.469.469 0 0 0 -.67.027l-.5.545a.536.536 0 0 1 -.559.149 3.564 3.564 0 0 0 -.481-.117.541.541 0 0 1 -.449-.465l-.076-.578a.48.48 0 0 0 -.186-.321.467.467 0 0 0 -.349-.093l-.879.12a.481.481 0 0 0 -.407.542l.1.778a.547.547 0 0 1 -.24.531c-.039.026-.079.052-.117.079a.527.527 0 0 1 -.588.013l-.7-.444a.467.467 0 0 0 -.357-.062.473.473 0 0 0 -.3.215l-.471.764a.488.488 0 0 0 .151.665l.6.381a.546.546 0 0 1 .237.587v.007a.54.54 0 0 1 -.45.412l-.659.09a.481.481 0 0 0 -.408.542l.119.893a.48.48 0 0 0 .186.321.466.466 0 0 0 .348.092l.659-.09a.536.536 0 0 1 .542.278v.007a.549.549 0 0 1 -.076.63l-.479.528a.488.488 0 0 0 .027.682l.654.611a.469.469 0 0 0 .67-.028l.559-.615a.532.532 0 0 1 .406-.178z" transform="translate(-2758.561 -1100.823)"/><path d="m2885.3 1194.524a2.134 2.134 0 0 1 -1.258-.475 2.41 2.41 0 0 1 -.964-1.514 2.118 2.118 0 0 1 1.862-2.166 1.548 1.548 0 0 1 1.16.34 2.542 2.542 0 0 1 .936 1.634 1.87 1.87 0 0 1 -1.547 2.169v-.031.031a1.408 1.408 0 0 1 -.189.012zm-.172-4.106a1.314 1.314 0 0 0 -.18.012 2.054 2.054 0 0 0 -1.809 2.1 2.377 2.377 0 0 0 .94 1.473 1.955 1.955 0 0 0 1.4.451 1.809 1.809 0 0 0 1.495-2.1 2.477 2.477 0 0 0 -.912-1.593 1.539 1.539 0 0 0 -.938-.343z" transform="translate(-2820.079 -1165.182)"/></g><path d="m1678.411 746.473 1.023-.028a.715.715 0 0 0 .689-.738l-.033-1.262a.713.713 0 0 0 -.728-.7l-.724.02a.709.709 0 0 1 -.691-.492c-.019-.057-.039-.115-.059-.171a.721.721 0 0 1 .2-.784l.495-.439a.726.726 0 0 0 .066-1.015l-.82-.95a.7.7 0 0 0 -1-.068l-.5.439a.7.7 0 0 1 -.791.1q-.079-.042-.159-.082a.721.721 0 0 1 -.39-.761l.115-.725a.718.718 0 0 0 -.587-.824l-1.229-.2a.71.71 0 0 0 -.812.6l-.163 1.026a.719.719 0 0 1 -.508.577 4.94 4.94 0 0 0 -.657.244.705.705 0 0 1 -.829-.18l-.531-.615a.7.7 0 0 0 -1-.067l-.936.832a.726.726 0 0 0 -.066 1.015l.714.827a.728.728 0 0 1 .119.763c-.027.062-.053.124-.077.186a.706.706 0 0 1 -.638.449l-1.155.031a.715.715 0 0 0 -.69.738l.033 1.263a.713.713 0 0 0 .728.7l.992-.027a.709.709 0 0 1 .684.472v.009a.724.724 0 0 1 -.2.788l-.7.622a.727.727 0 0 0 -.067 1.015l.821.951a.7.7 0 0 0 1 .067l.7-.623a.7.7 0 0 1 .8-.1l.01.005a.723.723 0 0 1 .371.751l-.158.993a.718.718 0 0 0 .587.824l1.23.2a.71.71 0 0 0 .812-.6l.183-1.157a.712.712 0 0 1 .523-.582q.1-.024.192-.053a.7.7 0 0 1 .73.22l.714.828a.7.7 0 0 0 1 .068l.937-.832a.727.727 0 0 0 .067-1.015l-.531-.615a.731.731 0 0 1 -.066-.857 5.019 5.019 0 0 0 .325-.628.712.712 0 0 1 .635-.433zm-3.377.589a3.338 3.338 0 0 1 -4.263-.412 2.952 2.952 0 0 1 .517-3.932c1.086-.966 2.942-.448 3.894.655a2.606 2.606 0 0 1 -.148 3.689z" fill="#ca9a3f" transform="translate(-1656.934 -732.634)"/><path d="m1675.072 769.118a.724.724 0 0 1 -.117-.01l-1.23-.2a.74.74 0 0 1 -.6-.849l.158-.994a.7.7 0 0 0 -.36-.729l-.01-.005a.681.681 0 0 0 -.772.093l-.7.623a.723.723 0 0 1 -1.031-.069l-.821-.951a.749.749 0 0 1 .069-1.045l.7-.622a.707.707 0 0 0 .193-.765v-.009a.688.688 0 0 0 -.664-.458l-.992.027a.723.723 0 0 1 -.522-.2.742.742 0 0 1 -.228-.518l-.033-1.263a.737.737 0 0 1 .711-.76l1.155-.031a.682.682 0 0 0 .618-.435c.024-.062.051-.125.077-.187a.707.707 0 0 0 -.115-.741l-.714-.827a.749.749 0 0 1 .069-1.045l.936-.832a.723.723 0 0 1 1.031.069l.531.615a.682.682 0 0 0 .8.174 4.977 4.977 0 0 1 .66-.245.7.7 0 0 0 .493-.56l.163-1.026a.738.738 0 0 1 .3-.485.719.719 0 0 1 .54-.128l1.229.2a.74.74 0 0 1 .6.849l-.115.725a.7.7 0 0 0 .378.738c.053.026.107.054.159.082a.678.678 0 0 0 .767-.095l.5-.439a.723.723 0 0 1 1.03.07l.82.95a.749.749 0 0 1 -.069 1.045l-.494.439a.7.7 0 0 0 -.195.76c.021.057.041.115.06.172a.682.682 0 0 0 .67.477l.724-.02a.718.718 0 0 1 .518.2.741.741 0 0 1 .231.521l.033 1.262a.737.737 0 0 1 -.71.76l-1.023.028a.694.694 0 0 0 -.613.422 5.118 5.118 0 0 1 -.326.631.707.707 0 0 0 .064.832l.531.615a.749.749 0 0 1 -.069 1.045l-.937.832a.723.723 0 0 1 -1.031-.07l-.714-.828a.682.682 0 0 0 -.708-.214c-.064.019-.128.037-.193.053a.689.689 0 0 0 -.507.565l-.183 1.157a.736.736 0 0 1 -.3.485.718.718 0 0 1 -.422.139zm-2.481-2.908a.712.712 0 0 1 .338.085l.01.005a.744.744 0 0 1 .382.773l-.158.993a.7.7 0 0 0 .57.8l1.23.2a.675.675 0 0 0 .508-.121.7.7 0 0 0 .28-.457l.183-1.157a.732.732 0 0 1 .539-.6c.063-.016.128-.034.191-.053a.725.725 0 0 1 .752.227l.714.828a.68.68 0 0 0 .97.066l.937-.832a.706.706 0 0 0 .064-.985l-.531-.616a.749.749 0 0 1 -.068-.882 5.119 5.119 0 0 0 .323-.626.737.737 0 0 1 .651-.448l1.023-.028a.694.694 0 0 0 .668-.716l-.033-1.262a.7.7 0 0 0 -.218-.491.674.674 0 0 0 -.488-.187l-.724.02a.725.725 0 0 1 -.712-.507c-.019-.057-.039-.114-.059-.171a.745.745 0 0 1 .206-.807l.495-.439a.706.706 0 0 0 .064-.985l-.82-.95a.68.68 0 0 0 -.969-.066l-.5.439a.72.72 0 0 1 -.816.1c-.052-.028-.105-.055-.158-.081a.738.738 0 0 1 -.4-.783l.115-.725a.7.7 0 0 0 -.569-.8l-1.229-.2a.675.675 0 0 0 -.508.12.694.694 0 0 0 -.28.457l-.163 1.026a.744.744 0 0 1 -.523.595 4.929 4.929 0 0 0 -.655.243.724.724 0 0 1 -.854-.185l-.531-.615a.68.68 0 0 0 -.97-.065l-.936.832a.706.706 0 0 0 -.064.984l.714.827a.75.75 0 0 1 .122.786c-.027.061-.052.124-.077.185a.726.726 0 0 1 -.657.463l-1.155.031a.694.694 0 0 0 -.669.716l.033 1.263a.7.7 0 0 0 .214.488.678.678 0 0 0 .491.191l.992-.027a.731.731 0 0 1 .705.486v.009a.75.75 0 0 1 -.2.811l-.7.622a.706.706 0 0 0 -.065.985l.821.951a.68.68 0 0 0 .97.065l.7-.623a.726.726 0 0 1 .484-.182z" fill="#252258" transform="translate(-1658.887 -748.822)"/><path d="m2717.9 1659.678v-.592l8.533-.053-.012.645z" fill="#c17e00" transform="translate(-2662.224 -1613.12)"/><path d="m2718.231 1638.987c.777-.656 2.548-1.232 5.6-.838 1.984.257 3.021 1.035 2.448 1.713-.7.824-2.723 1.117-5.708.844-2.057-.187-3.311-.899-2.34-1.719z" fill="#c17e00" transform="translate(-2662.224 -1593.037)"/><path d="m2718.231 1626.107c.777-.656 2.548-1.232 5.6-.838 1.984.256 3.021 1.035 2.448 1.713-.7.824-2.723 1.117-5.708.844-2.057-.187-3.311-.899-2.34-1.719z" fill="#ca9a3f" transform="translate(-2662.224 -1580.727)"/><path d="m2735.144 1630.9c-.514 0-1.078-.028-1.689-.083-1.284-.117-2.169-.47-2.311-.92-.047-.15-.036-.386.287-.659.417-.352 1.72-1.127 4.81-.728 1.2.155 2.056.543 2.238 1.012a.528.528 0 0 1 -.113.554c-.459.539-1.58.824-3.222.824zm-3.627-1.561c-.214.181-.3.355-.246.518.124.392.986.717 2.2.828 2.521.23 4.224-.017 4.8-.695a.4.4 0 0 0 .091-.419c-.163-.418-1-.782-2.131-.928a9.88 9.88 0 0 0 -3.083.021 3.5 3.5 0 0 0 -1.625.677z" fill="#fff" transform="translate(-2674.865 -1583.838)"/><path d="m2781.835 1639.608.059-.086c.021-.031-.033-.062-.125-.073a3.967 3.967 0 0 1 -.568-.1c-.072-.02-.088-.054-.039-.081l.034-.018a.468.468 0 0 1 .279-.016 3.643 3.643 0 0 0 .641.1c.423.031.68-.048.759-.164s-.024-.18-.424-.273c-.553-.126-1.092-.264-.972-.44.1-.154.5-.288 1.2-.243a.23.23 0 0 0 .178-.049l.064-.095a.312.312 0 0 1 .227-.047c.1.008.167.041.144.075l-.054.079c-.021.031.031.062.121.073a3.535 3.535 0 0 1 .433.074c.08.02.1.057.045.084l-.034.017a.47.47 0 0 1 -.271.016 3.382 3.382 0 0 0 -.549-.082c-.459-.034-.7.046-.75.128-.072.105.243.139.712.25.556.131.863.28.792.463s-.508.3-1.28.287a.241.241 0 0 0 -.178.049l-.068.1a.312.312 0 0 1 -.227.047h-.006c-.101-.008-.165-.041-.143-.075z" fill="#fff" transform="translate(-2722.662 -1593.037)"/><path d="m2826.315 1575.921v-.666l9.407-.061-.013.726z" fill="#c17e00" transform="translate(-2765.845 -1532.993)"/><path d="m2826.685 1552.651c.856-.737 2.809-1.385 6.168-.943 2.188.289 3.331 1.164 2.7 1.927-.768.927-3 1.256-6.292.949-2.261-.211-3.647-1.012-2.576-1.933z" fill="#c17e00" transform="translate(-2765.846 -1510.406)"/><path d="m2826.685 1538.165c.856-.737 2.809-1.385 6.168-.943 2.188.289 3.331 1.164 2.7 1.927-.768.927-3 1.256-6.292.949-2.261-.21-3.647-1.011-2.576-1.933z" fill="#ca9a3f" transform="translate(-2765.846 -1496.562)"/><path d="m2845.333 1543.569c-.572 0-1.2-.032-1.883-.1-1.41-.131-2.385-.526-2.546-1.03-.054-.169-.043-.436.315-.745l.048.056-.048-.056c.459-.4 1.9-1.268 5.3-.819 1.315.173 2.259.607 2.465 1.132a.6.6 0 0 1 -.122.627 3.038 3.038 0 0 1 -1.917.823 10.989 10.989 0 0 1 -1.612.112zm-.583-2.665a8.594 8.594 0 0 0 -1.646.146 3.807 3.807 0 0 0 -1.79.761c-.238.2-.329.4-.27.587.14.439 1.089.8 2.419.927.678.063 1.3.094 1.869.094 1.751 0 2.94-.3 3.418-.875a.454.454 0 0 0 .1-.479c-.184-.468-1.1-.876-2.347-1.04a13.5 13.5 0 0 0 -1.752-.125z" fill="#fff" transform="translate(-2779.765 -1500.077)"/><path d="m2896.8 1553.348.064-.1c.023-.035-.037-.071-.138-.082a4.235 4.235 0 0 1 -.627-.115c-.08-.023-.1-.062-.042-.091l.038-.021a.506.506 0 0 1 .308-.018 3.94 3.94 0 0 0 .707.115c.467.035.75-.054.836-.184s-.026-.2-.467-.307c-.61-.142-1.2-.3-1.072-.5.115-.173.547-.324 1.327-.273a.249.249 0 0 0 .2-.055l.071-.106a.338.338 0 0 1 .25-.053c.112.009.183.046.158.084l-.059.089c-.023.035.034.07.133.082a3.693 3.693 0 0 1 .477.084c.087.022.108.063.049.094l-.038.02a.507.507 0 0 1 -.3.018 3.664 3.664 0 0 0 -.605-.091c-.506-.038-.767.052-.828.143-.079.118.268.156.785.282.614.147.952.314.873.521s-.56.342-1.412.322a.264.264 0 0 0 -.2.055l-.076.113a.338.338 0 0 1 -.25.053h-.006c-.109-.003-.18-.041-.156-.079z" fill="#fff" transform="translate(-2832.472 -1510.406)"/><path d="m2810.11 1549.856v-.666l9.407-.06-.013.726z" fill="#c17e00" transform="translate(-2750.357 -1508.081)"/><path d="m2810.478 1526.585c.856-.737 2.809-1.385 6.168-.943 2.188.289 3.331 1.164 2.7 1.927-.768.927-3 1.256-6.292.949-2.264-.21-3.646-1.011-2.576-1.933z" fill="#c17e00" transform="translate(-2750.357 -1485.495)"/><path d="m2810.478 1512.1c.856-.737 2.809-1.385 6.168-.943 2.188.288 3.331 1.164 2.7 1.927-.768.927-3 1.256-6.292.949-2.264-.21-3.646-1.011-2.576-1.933z" fill="#ca9a3f" transform="translate(-2750.357 -1471.651)"/><path d="m2829.128 1517.5q-.858 0-1.883-.1c-1.41-.131-2.386-.526-2.546-1.03-.054-.169-.043-.436.314-.745.46-.4 1.9-1.268 5.3-.819 1.314.173 2.259.607 2.465 1.132a.6.6 0 0 1 -.123.627 3.034 3.034 0 0 1 -1.917.823 10.991 10.991 0 0 1 -1.61.112zm-4.018-1.758c-.239.205-.33.4-.271.587.14.44 1.09.8 2.419.927 2.778.259 4.655-.018 5.287-.781a.452.452 0 0 0 .1-.478c-.183-.468-1.1-.876-2.347-1.04a10.679 10.679 0 0 0 -3.4.024 3.815 3.815 0 0 0 -1.79.76z" fill="#fff" transform="translate(-2764.277 -1475.165)"/><path d="m2880.6 1527.284.065-.1c.023-.035-.037-.07-.139-.082a4.2 4.2 0 0 1 -.626-.116c-.08-.022-.1-.061-.043-.091l.038-.021a.508.508 0 0 1 .308-.018 3.933 3.933 0 0 0 .707.115c.467.035.75-.054.836-.184s-.027-.2-.468-.307c-.61-.142-1.2-.3-1.071-.5.115-.173.547-.323 1.327-.273a.249.249 0 0 0 .2-.055l.071-.106a.337.337 0 0 1 .25-.053c.113.009.184.046.158.084l-.059.089c-.023.034.033.07.133.082a3.746 3.746 0 0 1 .478.084c.087.022.108.063.049.094l-.038.02a.51.51 0 0 1 -.3.018 3.649 3.649 0 0 0 -.606-.092c-.506-.038-.767.052-.827.143-.079.118.268.157.785.282.613.147.952.314.873.52s-.56.342-1.412.323a.263.263 0 0 0 -.2.055l-.075.113a.337.337 0 0 1 -.25.053h-.007c-.115-.001-.186-.039-.157-.077z" fill="#fff" transform="translate(-2816.984 -1485.496)"/><path d="m2830.982 1527.409v-.666l9.407-.06-.013.726z" fill="#c17e00" transform="translate(-2770.305 -1486.627)"/><path d="m2831.351 1504.14c.856-.737 2.809-1.386 6.168-.943 2.188.288 3.331 1.164 2.7 1.927-.768.927-3 1.256-6.292.949-2.265-.211-3.647-1.012-2.576-1.933z" fill="#c17e00" transform="translate(-2770.305 -1464.042)"/><path d="m2831.351 1489.654c.856-.737 2.809-1.385 6.168-.943 2.188.289 3.331 1.165 2.7 1.927-.768.927-3 1.256-6.292.949-2.265-.211-3.647-1.012-2.576-1.933z" fill="#ca9a3f" transform="translate(-2770.305 -1450.197)"/><path d="m2850 1495.058c-.572 0-1.2-.032-1.883-.1-1.41-.132-2.386-.526-2.547-1.03-.054-.17-.043-.436.315-.745.459-.4 1.9-1.268 5.3-.819 1.314.173 2.259.607 2.465 1.132a.6.6 0 0 1 -.122.627 3.037 3.037 0 0 1 -1.917.823 10.989 10.989 0 0 1 -1.611.112zm-.583-2.665a8.565 8.565 0 0 0 -1.645.147 3.815 3.815 0 0 0 -1.791.76c-.238.205-.329.4-.27.587.14.439 1.09.8 2.419.927 2.777.259 4.655-.019 5.287-.781a.455.455 0 0 0 .1-.479c-.184-.468-1.1-.875-2.347-1.039a13.475 13.475 0 0 0 -1.753-.122z" fill="#fff" transform="translate(-2784.225 -1453.712)"/><path d="m2826.34 1496.674v-.666l9.407-.06-.013.726z" fill="#c17e00" transform="translate(-2765.869 -1457.252)"/><path d="m2826.708 1473.4c.856-.737 2.809-1.386 6.168-.943 2.188.289 3.331 1.165 2.7 1.927-.768.927-3 1.256-6.292.949-2.264-.206-3.646-1.007-2.576-1.933z" fill="#c17e00" transform="translate(-2765.869 -1434.667)"/><path d="m2826.708 1458.919c.856-.737 2.809-1.385 6.168-.943 2.188.289 3.331 1.165 2.7 1.927-.768.927-3 1.256-6.292.949-2.264-.211-3.646-1.012-2.576-1.933z" fill="#ca9a3f" transform="translate(-2765.869 -1420.822)"/><path d="m2845.357 1464.321c-.571 0-1.2-.032-1.883-.1-1.41-.131-2.385-.526-2.546-1.03-.054-.169-.043-.436.314-.745.46-.4 1.9-1.268 5.3-.819 1.315.173 2.259.607 2.465 1.132a.6.6 0 0 1 -.122.627 3.04 3.04 0 0 1 -1.917.823 11.028 11.028 0 0 1 -1.611.112zm-4.018-1.757c-.238.205-.33.4-.271.587.14.439 1.09.8 2.419.927 2.778.259 4.656-.018 5.287-.781a.452.452 0 0 0 .1-.478c-.183-.468-1.1-.876-2.347-1.04a10.679 10.679 0 0 0 -3.4.024 3.82 3.82 0 0 0 -1.79.761z" fill="#fff" transform="translate(-2779.788 -1424.335)"/><path d="m2896.826 1474.1.065-.1c.023-.035-.037-.07-.138-.082a4.2 4.2 0 0 1 -.627-.115c-.08-.022-.1-.061-.042-.091l.038-.021a.506.506 0 0 1 .308-.018 3.942 3.942 0 0 0 .707.115c.467.035.75-.054.836-.184s-.026-.2-.467-.307c-.61-.142-1.2-.3-1.072-.5.115-.173.547-.323 1.327-.273a.25.25 0 0 0 .2-.055l.071-.106a.335.335 0 0 1 .25-.053c.112.008.183.046.158.084l-.059.089c-.023.034.034.07.133.082a3.79 3.79 0 0 1 .478.084c.087.022.108.063.049.094l-.038.019a.508.508 0 0 1 -.3.018 3.631 3.631 0 0 0 -.606-.092c-.506-.038-.767.052-.827.143-.079.119.268.156.785.282.614.147.952.314.873.521s-.56.342-1.412.322a.263.263 0 0 0 -.2.055l-.076.114a.338.338 0 0 1 -.25.053h-.006c-.113 0-.184-.038-.158-.078z" fill="#fff" transform="translate(-2832.495 -1434.667)"/><path d="m1835.9 1575.461v-.7l9.561-.063-.014.762z" fill="#c17e00" transform="translate(-1819.259 -1532.517)"/><path d="m1836.278 1551.021c.87-.774 2.854-1.455 6.269-.99 2.224.3 3.385 1.223 2.744 2.024-.781.973-3.051 1.319-6.4 1-2.297-.225-3.701-1.066-2.613-2.034z" fill="#c17e00" transform="translate(-1819.259 -1508.797)"/><path d="m1836.278 1535.807c.87-.774 2.854-1.455 6.269-.99 2.224.3 3.385 1.223 2.744 2.024-.781.974-3.051 1.319-6.4 1-2.297-.225-3.701-1.066-2.613-2.034z" fill="#ca9a3f" transform="translate(-1819.259 -1494.256)"/><path d="m1855.2 1541.509c-.581 0-1.22-.033-1.914-.1-1.424-.137-2.415-.548-2.586-1.073-.058-.179-.051-.461.317-.788.468-.416 1.929-1.333 5.393-.861 1.326.181 2.284.632 2.5 1.178a.643.643 0 0 1 -.12.667 3.043 3.043 0 0 1 -1.949.865 10.813 10.813 0 0 1 -1.641.112zm-4.133-1.9.051.057c-.246.218-.337.429-.273.626.15.458 1.114.838 2.456.968 2.822.272 4.729-.019 5.371-.82a.49.49 0 0 0 .1-.514c-.195-.487-1.129-.913-2.381-1.083a10.505 10.505 0 0 0 -3.452.025 3.816 3.816 0 0 0 -1.818.8z" fill="#fff" transform="translate(-1833.379 -1497.975)"/><path d="m1857.311 1551.352v-.7l9.561-.063-.013.762z" fill="#c17e00" transform="translate(-1839.719 -1509.476)"/><path d="m1857.685 1526.912c.87-.774 2.855-1.455 6.269-.99 2.224.3 3.385 1.223 2.743 2.024-.78.973-3.051 1.319-6.395 1-2.302-.225-3.702-1.066-2.617-2.034z" fill="#c17e00" transform="translate(-1839.718 -1485.755)"/><path d="m1857.685 1511.7c.87-.774 2.855-1.455 6.269-.99 2.224.3 3.385 1.223 2.743 2.024-.78.973-3.051 1.319-6.395 1-2.302-.227-3.702-1.068-2.617-2.034z" fill="#ca9a3f" transform="translate(-1839.718 -1471.214)"/><path d="m1876.613 1517.4c-.581 0-1.22-.033-1.914-.1-1.424-.137-2.415-.548-2.586-1.072-.059-.179-.051-.461.317-.788l.051.057-.051-.057c.467-.416 1.928-1.333 5.393-.861 1.325.18 2.284.632 2.5 1.178a.642.642 0 0 1 -.12.667 3.046 3.046 0 0 1 -1.95.865 10.842 10.842 0 0 1 -1.64.111zm-.592-2.8a8.445 8.445 0 0 0 -1.671.154 3.823 3.823 0 0 0 -1.819.8c-.245.219-.337.429-.273.626.15.458 1.113.838 2.455.968 2.822.272 4.73-.019 5.371-.82a.491.491 0 0 0 .1-.514c-.195-.487-1.129-.912-2.381-1.083a13.24 13.24 0 0 0 -1.782-.131z" fill="#fff" transform="translate(-1853.84 -1474.933)"/><path d="m1846.2 1521.784v-.7l9.561-.063-.014.762z" fill="#c17e00" transform="translate(-1829.097 -1481.217)"/><path d="m1846.571 1497.344c.87-.774 2.855-1.455 6.269-.99 2.224.3 3.385 1.223 2.743 2.024-.78.973-3.05 1.319-6.395 1-2.301-.224-3.704-1.065-2.617-2.034z" fill="#c17e00" transform="translate(-1829.096 -1457.496)"/><path d="m1846.571 1482.13c.87-.774 2.855-1.455 6.269-.99 2.224.3 3.385 1.223 2.743 2.024-.78.974-3.05 1.319-6.395 1-2.301-.224-3.704-1.064-2.617-2.034z" fill="#ca9a3f" transform="translate(-1829.096 -1442.954)"/><path d="m1865.5 1487.832c-.581 0-1.22-.033-1.914-.1-1.424-.137-2.415-.548-2.587-1.073-.058-.179-.051-.461.317-.788.467-.416 1.928-1.333 5.393-.861 1.325.18 2.284.632 2.5 1.178a.642.642 0 0 1 -.119.667 3.043 3.043 0 0 1 -1.95.865 10.813 10.813 0 0 1 -1.64.112zm-4.133-1.9.051.057c-.245.219-.337.429-.273.626.15.459 1.114.839 2.456.968 2.822.272 4.729-.019 5.371-.82a.491.491 0 0 0 .1-.514c-.195-.487-1.129-.912-2.381-1.083a10.493 10.493 0 0 0 -3.452.025 3.817 3.817 0 0 0 -1.818.8z" fill="#fff" transform="translate(-1843.217 -1446.673)"/><path d="m1917.834 1498.077.066-.1c.024-.037-.037-.074-.141-.086a4.185 4.185 0 0 1 -.637-.121c-.081-.024-.1-.064-.043-.1l.038-.021a.5.5 0 0 1 .313-.019 3.838 3.838 0 0 0 .718.121c.475.037.762-.057.85-.193s-.027-.212-.475-.323c-.62-.149-1.223-.312-1.089-.52.117-.181.556-.34 1.349-.287a.247.247 0 0 0 .2-.058l.072-.112a.334.334 0 0 1 .254-.056c.115.009.186.049.161.088l-.06.093c-.024.036.034.073.135.086a3.7 3.7 0 0 1 .485.088c.089.023.11.066.05.1l-.038.021a.5.5 0 0 1 -.3.019 3.631 3.631 0 0 0 -.615-.1c-.514-.04-.779.055-.841.151-.08.124.272.165.8.3.624.154.967.33.887.547s-.569.359-1.435.338a.261.261 0 0 0 -.2.058l-.077.119a.335.335 0 0 1 -.254.056h-.007c-.12-.009-.192-.049-.166-.089z" fill="#fff" transform="translate(-1896.811 -1457.495)"/><path d="m1840.815 1494.409v-.7l9.561-.063-.014.762z" fill="#c17e00" transform="translate(-1823.953 -1455.052)"/><path d="m1841.19 1469.969c.87-.774 2.854-1.456 6.269-.99 2.224.3 3.385 1.223 2.743 2.024-.78.974-3.05 1.32-6.4 1-2.295-.225-3.702-1.066-2.612-2.034z" fill="#c17e00" transform="translate(-1823.954 -1431.331)"/><path d="m1841.19 1454.755c.87-.774 2.854-1.455 6.269-.99 2.224.3 3.385 1.223 2.743 2.024-.78.973-3.05 1.319-6.4 1-2.295-.225-3.702-1.066-2.612-2.034z" fill="#ca9a3f" transform="translate(-1823.954 -1416.79)"/><path d="m1860.118 1460.457c-.581 0-1.22-.033-1.914-.1-1.424-.137-2.416-.548-2.587-1.073-.058-.179-.051-.461.317-.788l.051.057-.051-.057c.468-.416 1.929-1.333 5.393-.861 1.325.18 2.284.632 2.5 1.178a.643.643 0 0 1 -.12.667 3.045 3.045 0 0 1 -1.949.865 10.847 10.847 0 0 1 -1.64.112zm-.592-2.8a8.449 8.449 0 0 0 -1.671.154 3.816 3.816 0 0 0 -1.818.8c-.246.219-.337.429-.273.626.15.458 1.114.838 2.455.967 2.822.272 4.73-.019 5.371-.82a.49.49 0 0 0 .1-.514c-.195-.488-1.129-.913-2.381-1.083a13.2 13.2 0 0 0 -1.783-.128z" fill="#fff" transform="translate(-1838.074 -1420.509)"/><path d="m1912.453 1470.7.066-.1c.024-.037-.038-.074-.141-.086a4.181 4.181 0 0 1 -.637-.121c-.081-.023-.1-.064-.043-.1l.038-.021a.5.5 0 0 1 .313-.019 3.876 3.876 0 0 0 .718.121c.474.037.762-.057.85-.194s-.027-.212-.475-.323c-.62-.149-1.223-.312-1.089-.52.117-.182.556-.34 1.349-.287a.248.248 0 0 0 .2-.058l.072-.112a.333.333 0 0 1 .253-.056c.115.009.187.048.161.088l-.06.093c-.023.036.034.073.135.085a3.7 3.7 0 0 1 .485.088c.089.023.11.067.05.1l-.038.021a.5.5 0 0 1 -.3.019 3.569 3.569 0 0 0 -.615-.1c-.515-.04-.779.055-.841.151-.08.125.272.165.8.3.624.154.967.33.887.546s-.569.359-1.435.339a.262.262 0 0 0 -.2.058l-.077.119a.337.337 0 0 1 -.254.056h-.007c-.118-.005-.191-.045-.165-.087z" fill="#fff" transform="translate(-1891.668 -1431.331)"/><path d="m1862.028 1470.833v-.7l9.561-.063-.014.762z" fill="#c17e00" transform="translate(-1844.228 -1432.52)"/><path d="m1862.4 1446.394c.87-.774 2.854-1.455 6.269-.99 2.224.3 3.385 1.223 2.744 2.024-.781.974-3.051 1.319-6.4 1-2.294-.228-3.698-1.066-2.613-2.034z" fill="#c17e00" transform="translate(-1844.229 -1408.799)"/><path d="m1862.4 1431.18c.87-.774 2.854-1.455 6.269-.99 2.224.3 3.385 1.223 2.744 2.024-.781.974-3.051 1.319-6.4 1-2.294-.225-3.698-1.066-2.613-2.034z" fill="#ca9a3f" transform="translate(-1844.229 -1394.259)"/><path d="m1881.33 1436.882c-.581 0-1.22-.033-1.914-.1-1.424-.137-2.415-.548-2.586-1.073-.058-.179-.051-.461.317-.788.468-.416 1.929-1.333 5.393-.861 1.326.18 2.284.632 2.5 1.178a.642.642 0 0 1 -.12.667 3.042 3.042 0 0 1 -1.949.865 10.813 10.813 0 0 1 -1.641.112zm-4.133-1.9.051.057c-.246.219-.337.429-.273.626.15.458 1.114.838 2.456.968 2.822.272 4.73-.019 5.371-.82a.491.491 0 0 0 .1-.514c-.195-.487-1.129-.912-2.381-1.083a10.5 10.5 0 0 0 -3.452.025 3.823 3.823 0 0 0 -1.819.8z" fill="#fff" transform="translate(-1858.348 -1397.978)"/><path d="m1857.311 1438.553v-.7l9.561-.063-.013.762z" fill="#c17e00" transform="translate(-1839.719 -1401.669)"/><path d="m1857.685 1414.113c.87-.774 2.855-1.455 6.269-.99 2.224.3 3.385 1.223 2.743 2.024-.78.973-3.051 1.319-6.395 1-2.302-.224-3.702-1.066-2.617-2.034z" fill="#c17e00" transform="translate(-1839.718 -1377.948)"/><path d="m1857.685 1398.9c.87-.774 2.855-1.455 6.269-.99 2.224.3 3.385 1.223 2.743 2.024-.78.974-3.051 1.319-6.395 1-2.302-.225-3.702-1.067-2.617-2.034z" fill="#ca9a3f" transform="translate(-1839.718 -1363.406)"/><path d="m1876.613 1404.6c-.581 0-1.22-.034-1.914-.1-1.424-.137-2.415-.548-2.586-1.073-.059-.179-.051-.461.317-.788.467-.416 1.928-1.333 5.393-.861 1.325.181 2.284.632 2.5 1.178a.642.642 0 0 1 -.12.667 3.044 3.044 0 0 1 -1.95.865 10.808 10.808 0 0 1 -1.64.112zm-4.082-1.846c-.245.219-.337.429-.273.626.15.458 1.113.838 2.455.968 2.822.272 4.73-.019 5.371-.82a.491.491 0 0 0 .1-.514c-.195-.487-1.129-.912-2.381-1.083a10.512 10.512 0 0 0 -3.452.025 3.821 3.821 0 0 0 -1.819.8z" fill="#fff" transform="translate(-1853.84 -1367.125)"/><path d="m1928.948 1414.846.066-.1c.024-.037-.038-.074-.141-.086a4.149 4.149 0 0 1 -.637-.122c-.081-.023-.1-.064-.043-.1l.039-.021a.5.5 0 0 1 .313-.019 3.839 3.839 0 0 0 .718.121c.475.037.762-.057.85-.194s-.027-.212-.475-.323c-.62-.149-1.223-.312-1.089-.52.117-.182.556-.34 1.349-.287a.248.248 0 0 0 .2-.057l.072-.112a.334.334 0 0 1 .254-.056c.114.009.186.049.161.088l-.06.093c-.023.036.034.073.135.086a3.71 3.71 0 0 1 .485.088c.089.023.11.066.05.1l-.038.021a.5.5 0 0 1 -.3.019 3.623 3.623 0 0 0 -.615-.1c-.515-.04-.779.055-.841.151-.08.124.272.164.8.3.623.155.967.33.887.547s-.569.359-1.435.339a.261.261 0 0 0 -.2.058l-.077.119a.333.333 0 0 1 -.254.056h-.007c-.121-.009-.193-.049-.167-.089z" fill="#fff" transform="translate(-1907.433 -1377.947)"/><path d="m2502.782 1559.7v-.712l9.747-.065-.014.777z" fill="#c17e00" transform="translate(-2456.628 -1517.439)"/><path d="m2503.164 1534.781c.887-.79 2.91-1.484 6.392-1.01 2.267.309 3.451 1.247 2.8 2.063-.8.992-3.11 1.345-6.52 1.017-2.349-.226-3.781-1.083-2.672-2.07z" fill="#c17e00" transform="translate(-2456.628 -1493.253)"/><path d="m2503.164 1519.27c.887-.789 2.91-1.484 6.392-1.01 2.267.309 3.451 1.247 2.8 2.063-.8.992-3.11 1.345-6.52 1.017-2.349-.226-3.781-1.083-2.672-2.07z" fill="#ca9a3f" transform="translate(-2456.628 -1478.429)"/><path d="m2522.461 1525.083c-.593 0-1.245-.034-1.952-.1-1.452-.14-2.462-.559-2.637-1.094-.06-.182-.052-.47.323-.8.477-.424 1.966-1.359 5.5-.877 1.352.184 2.329.644 2.551 1.2a.655.655 0 0 1 -.122.68 3.1 3.1 0 0 1 -1.988.882 11.053 11.053 0 0 1 -1.675.109zm-4.162-1.883c-.25.223-.344.438-.278.638.152.468 1.135.855 2.5.987 2.877.277 4.822-.02 5.476-.836a.5.5 0 0 0 .1-.524c-.2-.5-1.151-.93-2.427-1.1a10.7 10.7 0 0 0 -3.519.025 3.893 3.893 0 0 0 -1.854.814z" fill="#fff" transform="translate(-2471.025 -1482.22)"/><path d="m2502.782 1541.952v-.713l9.747-.065-.014.777z" fill="#c17e00" transform="translate(-2456.628 -1500.478)"/><path d="m2503.164 1517.035c.887-.79 2.91-1.484 6.392-1.01 2.267.309 3.451 1.247 2.8 2.063-.8.992-3.11 1.345-6.52 1.017-2.349-.226-3.781-1.083-2.672-2.07z" fill="#c17e00" transform="translate(-2456.628 -1476.293)"/><path d="m2503.164 1501.524c.887-.789 2.91-1.484 6.392-1.01 2.267.309 3.451 1.247 2.8 2.063-.8.992-3.11 1.345-6.52 1.017-2.349-.226-3.781-1.083-2.672-2.07z" fill="#ca9a3f" transform="translate(-2456.628 -1461.468)"/><path d="m2522.461 1507.337c-.593 0-1.245-.034-1.952-.1-1.452-.14-2.462-.559-2.637-1.094-.06-.182-.052-.47.323-.8.477-.424 1.966-1.359 5.5-.877 1.352.184 2.329.644 2.551 1.2a.655.655 0 0 1 -.122.68 3.1 3.1 0 0 1 -1.988.882 11.022 11.022 0 0 1 -1.675.109zm-4.162-1.882c-.25.223-.344.438-.278.638.152.468 1.135.855 2.5.987 2.877.277 4.822-.02 5.476-.836a.5.5 0 0 0 .1-.524c-.2-.5-1.151-.93-2.427-1.1a10.7 10.7 0 0 0 -3.519.025 3.893 3.893 0 0 0 -1.854.814z" fill="#fff" transform="translate(-2471.025 -1465.259)"/><path d="m2515.984 1517.372v-.713l9.748-.064-.014.777z" fill="#c17e00" transform="translate(-2469.246 -1476.986)"/><path d="m2516.366 1492.455c.887-.79 2.91-1.484 6.392-1.01 2.267.309 3.452 1.247 2.8 2.063-.795.992-3.11 1.345-6.52 1.017-2.349-.225-3.781-1.083-2.672-2.07z" fill="#c17e00" transform="translate(-2469.246 -1452.801)"/><path d="m2516.366 1476.944c.887-.789 2.91-1.484 6.392-1.01 2.267.309 3.452 1.247 2.8 2.063-.795.993-3.11 1.345-6.52 1.017-2.349-.225-3.781-1.083-2.672-2.07z" fill="#ca9a3f" transform="translate(-2469.246 -1437.977)"/><path d="m2535.663 1482.758q-.889 0-1.951-.1c-1.452-.14-2.462-.559-2.637-1.094-.06-.182-.052-.47.323-.8.477-.424 1.966-1.358 5.5-.877 1.351.184 2.329.644 2.551 1.2a.654.654 0 0 1 -.122.68 3.1 3.1 0 0 1 -1.987.882 11.058 11.058 0 0 1 -1.677.109zm-.6-2.853a8.617 8.617 0 0 0 -1.7.157 3.9 3.9 0 0 0 -1.854.814c-.25.223-.344.438-.279.638.153.468 1.135.854 2.5.986 2.877.277 4.822-.019 5.476-.836a.5.5 0 0 0 .1-.524c-.2-.5-1.151-.93-2.427-1.1a13.49 13.49 0 0 0 -1.819-.14z" fill="#fff" transform="translate(-2483.643 -1441.768)"/><path d="m2502.233 1489.552v-.713l9.748-.064-.014.777z" fill="#c17e00" transform="translate(-2456.103 -1450.397)"/><path d="m2502.615 1464.635c.887-.789 2.91-1.484 6.392-1.009 2.267.309 3.451 1.247 2.8 2.063-.8.992-3.11 1.345-6.52 1.017-2.349-.226-3.781-1.084-2.672-2.071z" fill="#c17e00" transform="translate(-2456.103 -1426.212)"/><path d="m2502.615 1449.124c.887-.789 2.91-1.483 6.392-1.009 2.267.309 3.451 1.247 2.8 2.063-.8.992-3.11 1.345-6.52 1.017-2.349-.226-3.781-1.084-2.672-2.071z" fill="#ca9a3f" transform="translate(-2456.103 -1411.388)"/><path d="m2521.913 1454.938q-.889 0-1.951-.1c-1.452-.14-2.462-.559-2.637-1.094-.06-.182-.052-.47.323-.8.477-.424 1.966-1.358 5.5-.877 1.351.184 2.329.644 2.551 1.2a.654.654 0 0 1 -.122.68 3.1 3.1 0 0 1 -1.988.882 11.02 11.02 0 0 1 -1.676.109zm-.6-2.854a8.614 8.614 0 0 0 -1.7.157 3.893 3.893 0 0 0 -1.854.814c-.25.223-.344.438-.278.638.153.468 1.135.855 2.5.986 2.877.277 4.822-.02 5.476-.836a.5.5 0 0 0 .1-.524c-.2-.5-1.151-.93-2.427-1.1a13.49 13.49 0 0 0 -1.821-.134z" fill="#fff" transform="translate(-2470.501 -1415.18)"/><path d="m2502.233 1471.806v-.712l9.748-.065-.014.777z" fill="#c17e00" transform="translate(-2456.103 -1433.436)"/><path d="m2502.615 1446.889c.887-.789 2.91-1.484 6.392-1.009 2.267.309 3.451 1.247 2.8 2.063-.8.992-3.11 1.345-6.52 1.017-2.349-.226-3.781-1.084-2.672-2.071z" fill="#c17e00" transform="translate(-2456.103 -1409.252)"/><path d="m2502.615 1431.378c.887-.789 2.91-1.483 6.392-1.009 2.267.309 3.451 1.247 2.8 2.063-.8.992-3.11 1.345-6.52 1.017-2.349-.226-3.781-1.084-2.672-2.071z" fill="#ca9a3f" transform="translate(-2456.103 -1394.427)"/><path d="m2521.913 1437.192q-.889 0-1.951-.1c-1.452-.14-2.462-.559-2.637-1.093-.06-.182-.052-.47.323-.8.477-.424 1.966-1.358 5.5-.877 1.351.184 2.329.644 2.551 1.2a.654.654 0 0 1 -.122.68 3.1 3.1 0 0 1 -1.988.882 11.053 11.053 0 0 1 -1.676.108zm-.6-2.853a8.6 8.6 0 0 0 -1.7.157 3.893 3.893 0 0 0 -1.854.814c-.25.223-.344.438-.278.638.153.468 1.135.855 2.5.987 2.877.277 4.822-.02 5.476-.836a.5.5 0 0 0 .1-.524c-.2-.5-1.151-.93-2.427-1.1a13.49 13.49 0 0 0 -1.821-.136z" fill="#fff" transform="translate(-2470.501 -1398.218)"/><path d="m2502.233 1447.227v-.713l9.748-.064-.014.777z" fill="#c17e00" transform="translate(-2456.103 -1409.944)"/><path d="m2502.615 1422.31c.887-.789 2.91-1.484 6.392-1.009 2.267.309 3.451 1.247 2.8 2.063-.8.992-3.11 1.345-6.52 1.017-2.349-.226-3.781-1.081-2.672-2.071z" fill="#c17e00" transform="translate(-2456.103 -1385.76)"/><path d="m2502.615 1406.8c.887-.79 2.91-1.484 6.392-1.01 2.267.309 3.451 1.247 2.8 2.063-.8.992-3.11 1.345-6.52 1.017-2.349-.227-3.781-1.084-2.672-2.07z" fill="#ca9a3f" transform="translate(-2456.103 -1370.936)"/><path d="m2521.913 1412.613q-.889 0-1.951-.1c-1.452-.14-2.462-.559-2.637-1.094-.06-.182-.052-.47.323-.8.477-.424 1.966-1.359 5.5-.878 1.351.184 2.329.644 2.551 1.2a.654.654 0 0 1 -.122.68 3.1 3.1 0 0 1 -1.988.882 11.02 11.02 0 0 1 -1.676.11zm-.6-2.854a8.614 8.614 0 0 0 -1.7.157 3.893 3.893 0 0 0 -1.854.814c-.25.223-.344.438-.278.638.153.468 1.135.855 2.5.987 2.877.277 4.822-.02 5.476-.836a.5.5 0 0 0 .1-.525c-.2-.5-1.151-.93-2.427-1.1a13.49 13.49 0 0 0 -1.821-.135z" fill="#fff" transform="translate(-2470.501 -1374.727)"/><path d="m2504.84 1417.082v-.712l9.748-.065-.014.777z" fill="#c17e00" transform="translate(-2458.595 -1381.132)"/><path d="m2505.222 1392.165c.887-.789 2.91-1.484 6.392-1.009 2.267.309 3.451 1.247 2.8 2.063-.8.992-3.11 1.345-6.52 1.017-2.349-.227-3.781-1.084-2.672-2.071z" fill="#c17e00" transform="translate(-2458.595 -1356.949)"/><path d="m2505.222 1376.654c.887-.789 2.91-1.484 6.392-1.009 2.267.309 3.451 1.247 2.8 2.063-.8.993-3.11 1.345-6.52 1.017-2.349-.225-3.781-1.084-2.672-2.071z" fill="#ca9a3f" transform="translate(-2458.595 -1342.124)"/><path d="m2524.519 1382.467q-.888 0-1.951-.1c-1.452-.14-2.463-.559-2.637-1.094-.06-.182-.052-.47.323-.8.477-.424 1.966-1.359 5.5-.877 1.351.184 2.329.644 2.551 1.2a.654.654 0 0 1 -.122.68 3.1 3.1 0 0 1 -1.988.882 11.083 11.083 0 0 1 -1.676.109zm-4.161-1.883c-.25.223-.344.438-.278.638.152.468 1.135.855 2.5.987 2.877.277 4.822-.02 5.476-.836a.5.5 0 0 0 .1-.524c-.2-.5-1.151-.93-2.427-1.1a10.7 10.7 0 0 0 -3.519.025 3.894 3.894 0 0 0 -1.854.814z" fill="#fff" transform="translate(-2472.993 -1345.915)"/><path d="m2577.876 1392.912.067-.1c.024-.038-.039-.076-.144-.088a4.281 4.281 0 0 1 -.65-.124c-.082-.024-.1-.065-.043-.1l.039-.022a.509.509 0 0 1 .319-.019 3.935 3.935 0 0 0 .732.123c.484.038.777-.058.867-.2s-.028-.216-.485-.329c-.632-.152-1.247-.318-1.11-.53.12-.185.567-.346 1.375-.292a.252.252 0 0 0 .2-.059l.073-.114a.342.342 0 0 1 .259-.057c.117.009.19.049.164.09l-.061.095c-.024.037.035.075.138.087a3.819 3.819 0 0 1 .495.09c.09.023.112.068.051.1l-.039.021a.511.511 0 0 1 -.31.019 3.663 3.663 0 0 0 -.627-.1c-.524-.041-.794.056-.857.154-.082.127.277.168.814.3.635.157.986.336.9.557s-.58.366-1.463.345a.267.267 0 0 0 -.2.059l-.079.121a.338.338 0 0 1 -.258.057h-.007c-.113-.003-.186-.043-.16-.084z" fill="#fff" transform="translate(-2527.632 -1356.948)"/><path d="m2507.242 1389.172v-.712l9.748-.065-.014.777z" fill="#ff4b42" transform="translate(-2460.891 -1354.458)"/><path d="m2507.624 1364.255c.887-.789 2.911-1.484 6.392-1.01 2.267.309 3.452 1.247 2.8 2.063-.8.992-3.11 1.345-6.52 1.017-2.349-.225-3.78-1.083-2.672-2.07z" fill="#c17e00" transform="translate(-2460.891 -1330.273)"/><path d="m2507.624 1348.744c.887-.79 2.911-1.484 6.392-1.01 2.267.309 3.452 1.247 2.8 2.063-.8.993-3.11 1.345-6.52 1.017-2.349-.226-3.78-1.083-2.672-2.07z" fill="#ca9a3f" transform="translate(-2460.891 -1315.449)"/><path d="m2526.921 1354.558c-.592 0-1.244-.034-1.951-.1-1.452-.14-2.462-.559-2.637-1.093-.06-.182-.051-.47.323-.8.477-.424 1.966-1.358 5.5-.877 1.352.184 2.329.644 2.551 1.2a.655.655 0 0 1 -.122.68 3.1 3.1 0 0 1 -1.988.882 11.057 11.057 0 0 1 -1.676.108zm-.6-2.853a8.6 8.6 0 0 0 -1.7.157 3.89 3.89 0 0 0 -1.854.814c-.25.223-.344.438-.279.638.153.468 1.136.855 2.5.987 2.877.277 4.822-.02 5.476-.836a.5.5 0 0 0 .1-.524c-.2-.5-1.151-.93-2.427-1.1a13.5 13.5 0 0 0 -1.82-.141z" fill="#fff" transform="translate(-2475.287 -1319.241)"/><path d="m2580.278 1365 .067-.1c.024-.038-.038-.076-.144-.088a4.282 4.282 0 0 1 -.65-.124c-.082-.024-.1-.066-.044-.1l.039-.022a.508.508 0 0 1 .319-.019 3.934 3.934 0 0 0 .732.123c.484.038.777-.058.867-.2s-.028-.216-.485-.329c-.632-.152-1.247-.318-1.11-.53.119-.185.567-.346 1.375-.293a.251.251 0 0 0 .2-.059l.073-.114a.34.34 0 0 1 .259-.057c.116.009.19.049.164.09l-.061.095c-.024.037.035.075.138.088a3.737 3.737 0 0 1 .495.09c.091.024.113.068.051.1l-.039.021a.51.51 0 0 1 -.31.019 3.694 3.694 0 0 0 -.627-.1c-.525-.041-.795.056-.858.153-.082.127.278.168.814.3.636.157.986.336.9.557s-.58.366-1.463.345a.265.265 0 0 0 -.2.059l-.078.121a.342.342 0 0 1 -.259.057h-.007c-.111 0-.184-.041-.158-.083z" fill="#fff" transform="translate(-2529.928 -1330.273)"/><path d="m2558.3 1354.116v-.713l9.748-.065-.014.777z" fill="#c17e00" transform="translate(-2509.694 -1320.953)"/><path d="m2558.687 1329.2c.887-.789 2.91-1.484 6.392-1.01 2.267.309 3.451 1.247 2.8 2.063-.8.992-3.11 1.345-6.52 1.017-2.349-.227-3.781-1.085-2.672-2.07z" fill="#c17e00" transform="translate(-2509.694 -1296.768)"/><path d="m2558.687 1313.687c.887-.789 2.91-1.484 6.392-1.009 2.267.309 3.451 1.247 2.8 2.063-.8.992-3.11 1.345-6.52 1.017-2.349-.226-3.781-1.084-2.672-2.071z" fill="#ca9a3f" transform="translate(-2509.694 -1281.944)"/><path d="m2577.983 1319.5q-.888 0-1.951-.1c-1.452-.14-2.462-.559-2.637-1.094-.06-.182-.052-.47.323-.8.477-.424 1.966-1.359 5.5-.877 1.352.184 2.329.644 2.551 1.2a.655.655 0 0 1 -.122.68 3.1 3.1 0 0 1 -1.987.882 11.048 11.048 0 0 1 -1.677.109zm-.6-2.853a8.625 8.625 0 0 0 -1.7.157 3.894 3.894 0 0 0 -1.854.814c-.25.223-.344.437-.278.638.153.467 1.135.855 2.5.986 2.877.277 4.822-.02 5.476-.836a.5.5 0 0 0 .1-.524c-.2-.5-1.151-.93-2.427-1.1a13.491 13.491 0 0 0 -1.82-.134z" fill="#fff" transform="translate(-2524.091 -1285.735)"/><path d="m2524.059 1330.991v-.713l9.748-.064-.014.777z" fill="#c17e00" transform="translate(-2476.964 -1298.852)"/><path d="m2524.441 1306.074c.887-.789 2.91-1.484 6.392-1.009 2.267.309 3.451 1.247 2.8 2.063-.8.992-3.11 1.345-6.52 1.017-2.349-.226-3.781-1.084-2.672-2.071z" fill="#c17e00" transform="translate(-2476.964 -1274.668)"/><path d="m2524.441 1290.563c.887-.789 2.91-1.484 6.392-1.009 2.267.309 3.451 1.247 2.8 2.063-.8.993-3.11 1.345-6.52 1.017-2.349-.226-3.781-1.084-2.672-2.071z" fill="#ca9a3f" transform="translate(-2476.964 -1259.843)"/><path d="m2543.738 1296.377c-.593 0-1.245-.034-1.952-.1-1.452-.14-2.462-.559-2.637-1.093-.06-.182-.052-.47.323-.8.476-.424 1.966-1.358 5.5-.877 1.352.184 2.329.644 2.551 1.2a.655.655 0 0 1 -.122.68 3.1 3.1 0 0 1 -1.987.882 11.056 11.056 0 0 1 -1.676.108zm-.6-2.853a8.6 8.6 0 0 0 -1.7.157 3.893 3.893 0 0 0 -1.854.814c-.25.223-.344.438-.278.638.153.467 1.136.854 2.5.986 2.877.277 4.822-.02 5.477-.836a.5.5 0 0 0 .1-.524c-.2-.5-1.151-.93-2.427-1.1a13.494 13.494 0 0 0 -1.822-.135z" fill="#fff" transform="translate(-2491.36 -1263.635)"/><path d="m2597.095 1306.822.067-.1c.024-.038-.038-.075-.144-.088a4.267 4.267 0 0 1 -.65-.124c-.082-.024-.1-.066-.044-.1l.039-.022a.508.508 0 0 1 .319-.019 3.947 3.947 0 0 0 .732.123c.484.038.777-.058.867-.2s-.028-.216-.485-.329c-.632-.152-1.247-.318-1.11-.53.119-.185.567-.346 1.375-.292a.252.252 0 0 0 .2-.059l.074-.114a.34.34 0 0 1 .259-.057c.116.009.19.049.164.09l-.061.095c-.024.037.035.075.138.087a3.777 3.777 0 0 1 .495.09c.091.024.113.068.051.1l-.039.021a.51.51 0 0 1 -.31.019 3.661 3.661 0 0 0 -.627-.1c-.525-.041-.795.056-.858.153-.082.127.278.168.814.3.635.157.986.336.9.557s-.58.366-1.463.345a.265.265 0 0 0 -.2.059l-.078.121a.341.341 0 0 1 -.259.057h-.007c-.112-.005-.186-.042-.159-.083z" fill="#c17e00" transform="translate(-2546.001 -1274.668)"/><path d="m2596.292 1431.072c0-2.271 1.01-4.692 4.271-4.692a4.5 4.5 0 0 1 4.156 4.2c.26 2.747-1.3 4.414-4.369 4.753-2.112.232-4.058-1.422-4.058-4.261z" fill="#ca9a3f" transform="translate(-2546 -1390.763)"/><path d="m2611.115 1446.718a3.023 3.023 0 0 1 -2.034-.781 3.912 3.912 0 0 1 -1.2-2.98 4.728 4.728 0 0 1 .8-2.791 3.453 3.453 0 0 1 2.952-1.319 3.944 3.944 0 0 1 3.653 3.678c.226 2.393-1.131 3.875-3.821 4.172a3.22 3.22 0 0 1 -.35.021zm.52-7.631c-1.056 0-3.513.377-3.513 3.871a3.677 3.677 0 0 0 1.118 2.8 2.8 2.8 0 0 0 2.2.7 4.4 4.4 0 0 0 2.844-1.216 3.34 3.34 0 0 0 .765-2.7 3.7 3.7 0 0 0 -3.414-3.455z" fill="#fff" transform="translate(-2557.078 -1402.679)"/><path d="m2657.478 1471.453-.04-.282a.194.194 0 0 0 -.2-.171 1.722 1.722 0 0 1 -.64-.088.2.2 0 0 1 -.125-.228l.012-.068a.189.189 0 0 1 .242-.156 1.5 1.5 0 0 0 .707.059.628.628 0 0 0 .524-.787c-.052-.364-.22-.531-.694-.656-.652-.164-1.3-.37-1.386-.946a1.006 1.006 0 0 1 .85-1.2c.084-.017.125-.125.111-.216l-.044-.309a.2.2 0 0 1 .158-.23.191.191 0 0 1 .215.169l.037.258a.192.192 0 0 0 .192.171 1.492 1.492 0 0 1 .484.056.2.2 0 0 1 .134.235l-.013.066a.188.188 0 0 1 -.234.153 1.356 1.356 0 0 0 -.6-.031.59.59 0 0 0 -.556.675c.049.344.378.324.937.477a1.515 1.515 0 0 1 1.243 1.083 1.1 1.1 0 0 1 -.873 1.359.194.194 0 0 0 -.112.216l.047.329a.2.2 0 0 1 -.158.23h-.006a.191.191 0 0 1 -.212-.168z" fill="#fff" transform="translate(-2602.939 -1428.796)"/><path d="m2702.6 659.291c.8-1.588 2.351-2.915 4.63-1.738a3.578 3.578 0 0 1 1.433 4.434c-.782 2.014-2.456 2.616-4.72 1.746-1.558-.599-2.343-2.457-1.343-4.442z" fill="#ca9a3f" transform="translate(-2647.181 -655.526)"/><path d="m2714.967 673.2a4.538 4.538 0 0 1 -1.614-.336 2.418 2.418 0 0 1 -1.4-1.4 3.088 3.088 0 0 1 .21-2.508 3.386 3.386 0 0 1 1.866-1.8 2.8 2.8 0 0 1 2.2.277 3.138 3.138 0 0 1 1.263 3.888 2.6 2.6 0 0 1 -2.525 1.879zm-2.638-4.159a2.9 2.9 0 0 0 -.2 2.357 2.23 2.23 0 0 0 1.294 1.291 3.43 3.43 0 0 0 2.414.177 2.58 2.58 0 0 0 1.479-1.608 2.948 2.948 0 0 0 -1.174-3.654 2.626 2.626 0 0 0 -2.055-.266 2.554 2.554 0 0 0 -1.027.659 4.1 4.1 0 0 0 -.729 1.044z" fill="#fff" transform="translate(-2656.372 -665.032)"/><path d="m2750.64 694.392.071-.212a.154.154 0 0 0 -.077-.191 1.366 1.366 0 0 1 -.417-.293.161.161 0 0 1 -.007-.2l.032-.043a.147.147 0 0 1 .224-.022 1.188 1.188 0 0 0 .474.3.486.486 0 0 0 .642-.361c.091-.273.032-.451-.255-.709-.4-.35-.781-.729-.637-1.161a.777.777 0 0 1 1.014-.53c.065.019.131-.043.153-.11l.077-.232a.155.155 0 0 1 .191-.1.152.152 0 0 1 .091.2l-.064.194a.153.153 0 0 0 .074.189 1.192 1.192 0 0 1 .318.214.161.161 0 0 1 .011.212l-.031.041a.146.146 0 0 1 -.218.023 1.072 1.072 0 0 0 -.408-.238.456.456 0 0 0 -.625.271c-.086.259.151.363.488.671a1.208 1.208 0 0 1 .489 1.206.847.847 0 0 1 -1.087.634.15.15 0 0 0 -.154.111l-.082.247a.155.155 0 0 1 -.191.1.152.152 0 0 1 -.096-.211z" fill="#fff" transform="translate(-2693.075 -687.453)"/><path d="m2856.849 849.363c0-2.167.964-4.477 4.076-4.477a4.29 4.29 0 0 1 3.965 4.006c.248 2.622-1.239 4.212-4.169 4.536-2.015.223-3.872-1.355-3.872-4.065z" fill="#ca9a3f" transform="translate(-2795.028 -835)"/><path d="m2870.994 864.294a2.883 2.883 0 0 1 -1.941-.745 3.731 3.731 0 0 1 -1.143-2.844 4.511 4.511 0 0 1 .763-2.663 3.3 3.3 0 0 1 2.816-1.259 3.763 3.763 0 0 1 3.486 3.51c.216 2.284-1.079 3.7-3.646 3.982a3.072 3.072 0 0 1 -.335.019zm.5-7.282c-1.008 0-3.352.36-3.352 3.694a3.507 3.507 0 0 0 1.067 2.674 2.668 2.668 0 0 0 2.1.67 4.2 4.2 0 0 0 2.715-1.16 3.189 3.189 0 0 0 .729-2.573 3.532 3.532 0 0 0 -3.263-3.305z" fill="#fff" transform="translate(-2805.6 -846.372)"/><path d="m2915.238 887.9-.039-.27a.185.185 0 0 0 -.188-.163 1.642 1.642 0 0 1 -.611-.084.193.193 0 0 1 -.119-.218l.011-.065a.18.18 0 0 1 .231-.149 1.43 1.43 0 0 0 .675.056.6.6 0 0 0 .5-.751c-.049-.348-.209-.507-.662-.627-.623-.157-1.244-.353-1.323-.9a.96.96 0 0 1 .812-1.143c.08-.016.119-.119.106-.206l-.042-.3a.192.192 0 0 1 .151-.22.182.182 0 0 1 .206.161l.035.246a.184.184 0 0 0 .184.163 1.426 1.426 0 0 1 .461.054.193.193 0 0 1 .127.224l-.012.063a.179.179 0 0 1 -.224.146 1.288 1.288 0 0 0 -.572-.03.563.563 0 0 0 -.531.644c.047.329.361.31.894.455a1.447 1.447 0 0 1 1.187 1.033 1.048 1.048 0 0 1 -.834 1.3.187.187 0 0 0 -.106.206l.045.314a.191.191 0 0 1 -.151.22h-.006a.183.183 0 0 1 -.205-.159z" fill="#fff" transform="translate(-2849.364 -871.295)"/><path d="m1998.6 1465.351c-1.271 1.651-4.041 6.088-3.038 7.612s7.062 1.183 8.053.617-1.495-7.619-2.3-8.509-1.823-.871-2.715.28z" fill="#ca9a3f" transform="translate(-1971.652 -1427.139)"/><path d="m2062.729 1520.588.052-.245a.18.18 0 0 0 -.109-.208 1.586 1.586 0 0 1 -.5-.294.186.186 0 0 1 -.032-.229l.03-.052a.16.16 0 0 1 .245-.043 1.372 1.372 0 0 0 .561.294.522.522 0 0 0 .667-.461c.068-.316-.019-.51-.368-.777-.483-.361-.953-.755-.846-1.254a.835.835 0 0 1 1.058-.684c.074.016.14-.059.156-.137l.057-.268a.166.166 0 0 1 .2-.133.178.178 0 0 1 .125.213l-.048.224a.18.18 0 0 0 .1.207 1.372 1.372 0 0 1 .378.214.185.185 0 0 1 .038.238l-.03.049a.159.159 0 0 1 -.238.044 1.236 1.236 0 0 0 -.48-.234.49.49 0 0 0 -.659.358c-.064.3.211.4.621.715a1.422 1.422 0 0 1 .688 1.316c-.07.555-.449.861-1.126.808a.161.161 0 0 0 -.156.138l-.061.285a.166.166 0 0 1 -.2.134.178.178 0 0 1 -.123-.218z" fill="#252258" transform="translate(-2035.463 -1476.501)"/><path d="m2105.994 1428.812s-1.283.186-1.4 1 1.124.166 1.954.384.361-.427.174-.856-.179-.585-.728-.528z" fill="#ca9a3f" transform="translate(-2076.048 -1393.076)"/><path d="m2540.121 1580.274s-1.257-1.255-.825-1.97 1.163 1.536 1.163 1.536-.378-2.661.406-2.707 0 2.707 0 2.707.291-.642.574-.682.2.544-.3 1.116z" fill="#252258" transform="translate(-2491.44 -1534.843)"/><path d="m2540.23 1570.077a.052.052 0 0 1 -.035-.013.053.053 0 0 1 0-.074c.448-.5.574-.983.493-1.135a.087.087 0 0 0 -.1-.044c-.241.033-.523.548-.611.743a.053.053 0 0 1 -.066.028.053.053 0 0 1 -.033-.064c0-.006.173-.609.288-1.271.15-.864.14-1.432-.03-1.643a.228.228 0 0 0 -.2-.089.328.328 0 0 0 -.242.133c-.487.6-.172 2.854-.169 2.877a.052.052 0 0 1 -.04.059.053.053 0 0 1 -.062-.035c-.163-.5-.668-1.821-1.035-1.864-.025 0-.1-.012-.189.133-.464.766.914 2.156.927 2.17a.053.053 0 1 1 -.074.074 5.608 5.608 0 0 1 -.659-.822c-.4-.625-.5-1.122-.284-1.477a.3.3 0 0 1 .291-.183c.223.026.471.353.762 1 .079.176.149.351.207.5a4.571 4.571 0 0 1 .244-2.5.434.434 0 0 1 .317-.171.332.332 0 0 1 .293.128c.342.427.043 1.882-.133 2.6v-.006c.172-.262.334-.406.483-.427a.191.191 0 0 1 .209.1c.112.209-.047.736-.507 1.254a.052.052 0 0 1 -.045.019z" fill="#ca9a3f" transform="translate(-2490.276 -1524.594)"/><path d="m3075.781 1615.98s-.871-.869-.571-1.364.805 1.063.805 1.063-.262-1.842.281-1.874 0 1.874 0 1.874.2-.444.4-.472.141.377-.21.773z" fill="#252258" transform="translate(-3003.666 -1569.893)"/><path d="m3075.856 1608.92a.036.036 0 0 1 -.024-.009.037.037 0 0 1 0-.052c.31-.35.4-.681.341-.785a.06.06 0 0 0 -.07-.031c-.167.023-.362.379-.423.514a.037.037 0 0 1 -.068-.025s.12-.422.2-.88c.1-.6.1-.991-.02-1.138a.159.159 0 0 0 -.142-.062.227.227 0 0 0 -.167.092c-.337.412-.12 1.977-.117 1.992a.037.037 0 0 1 -.071.016c-.113-.349-.462-1.261-.716-1.29-.017 0-.07-.008-.13.092-.321.531.632 1.493.642 1.5a.037.037 0 0 1 -.052.052 3.912 3.912 0 0 1 -.456-.569c-.279-.433-.346-.777-.2-1.023a.21.21 0 0 1 .2-.126c.154.018.327.245.527.693.055.121.1.243.144.347a3.158 3.158 0 0 1 .169-1.733.3.3 0 0 1 .22-.119.229.229 0 0 1 .2.089c.235.294.032 1.292-.09 1.794.172-.26.315-.289.335-.292a.133.133 0 0 1 .145.069c.078.145-.033.509-.351.868a.037.037 0 0 1 -.026.016z" fill="#ca9a3f" transform="translate(-3002.86 -1562.797)"/><path d="m2107.181 1643.215s-1.053-1.051-.69-1.65.973 1.286.973 1.286-.317-2.229.34-2.267 0 2.267 0 2.267.243-.538.481-.571.169.456-.255.935z" fill="#252258" transform="translate(-2077.801 -1595.487)"/><path d="m2107.273 1634.676a.044.044 0 0 1 -.033-.073c.375-.423.481-.824.413-.95a.072.072 0 0 0 -.085-.037c-.2.028-.438.458-.512.622a.044.044 0 0 1 -.083-.03c0-.005.145-.51.241-1.065.126-.723.118-1.2-.024-1.376a.193.193 0 0 0 -.171-.075.275.275 0 0 0 -.2.112c-.408.5-.144 2.391-.141 2.41a.044.044 0 0 1 -.034.049.044.044 0 0 1 -.052-.03c-.137-.422-.559-1.525-.866-1.56-.021 0-.085-.01-.158.111-.388.642.765 1.805.777 1.817a.044.044 0 0 1 0 .063.045.045 0 0 1 -.062 0 4.757 4.757 0 0 1 -.551-.688c-.338-.523-.418-.94-.239-1.237a.253.253 0 0 1 .244-.153c.186.021.395.3.638.839.066.147.125.294.173.42a3.825 3.825 0 0 1 .2-2.1.363.363 0 0 1 .265-.144.277.277 0 0 1 .246.107c.286.357.036 1.576-.111 2.179v-.005c.144-.22.28-.34.405-.357a.16.16 0 0 1 .175.083c.094.175-.039.616-.425 1.051a.043.043 0 0 1 -.03.017z" fill="#ca9a3f" transform="translate(-2076.826 -1586.904)"/><path d="m1748.674 1579.4s-1.4-1.4-.919-2.194 1.3 1.71 1.3 1.71-.422-2.964.452-3.016 0 3.016 0 3.016.324-.715.64-.76.226.607-.339 1.243z" fill="#252258" transform="translate(-1734.916 -1533.67)"/><path d="m1748.816 1568.045a.059.059 0 0 1 -.039-.015.059.059 0 0 1 0-.083c.5-.563.64-1.1.549-1.264a.1.1 0 0 0 -.113-.049c-.268.038-.582.61-.681.827a.058.058 0 0 1 -.11-.04c0-.007.192-.679.321-1.416.167-.962.156-1.595-.033-1.831a.255.255 0 0 0 -.228-.1.366.366 0 0 0 -.269.148c-.543.664-.192 3.18-.188 3.205a.059.059 0 0 1 -.114.026s-.169-.517-.4-1.03c-.394-.88-.642-1.033-.755-1.046-.028 0-.113-.013-.21.148-.517.854 1.018 2.4 1.033 2.417a.059.059 0 0 1 -.083.083c-.066-.066-1.615-1.629-1.051-2.561a.338.338 0 0 1 .324-.2c.248.029.525.394.848 1.115.088.2.166.391.23.559-.075-.791-.15-2.271.272-2.788a.483.483 0 0 1 .353-.191.368.368 0 0 1 .326.143c.381.475.048 2.1-.148 2.9v-.007c.191-.292.372-.452.539-.476a.213.213 0 0 1 .233.11c.125.233-.052.819-.565 1.4a.058.058 0 0 1 -.041.016z" fill="#ca9a3f" transform="translate(-1733.639 -1522.253)"/><path d="m1621.938 1524.995s-1.164-1.162-.763-1.824 1.076 1.422 1.076 1.422-.35-2.464.375-2.506 0 2.506 0 2.506.269-.594.532-.631.188.5-.282 1.033z" fill="#252258" transform="translate(-1613.951 -1482.234)"/><path d="m1622.038 1515.557a.048.048 0 0 1 -.032-.012.049.049 0 0 1 0-.069c.415-.468.531-.91.457-1.051a.08.08 0 0 0 -.094-.041c-.223.031-.484.507-.565.688a.049.049 0 0 1 -.092-.033c0-.006.16-.564.267-1.177.139-.8.13-1.326-.027-1.521a.212.212 0 0 0 -.189-.083.3.3 0 0 0 -.224.123c-.451.552-.159 2.643-.157 2.664a.049.049 0 0 1 -.094.022c-.151-.467-.619-1.686-.958-1.725-.023 0-.094-.011-.175.123-.429.709.846 2 .859 2.009a.049.049 0 0 1 -.069.069 5.215 5.215 0 0 1 -.61-.761c-.374-.579-.462-1.039-.263-1.368a.28.28 0 0 1 .269-.169c.206.024.437.327.705.927.073.163.138.325.191.464a4.23 4.23 0 0 1 .226-2.317.4.4 0 0 1 .293-.159.308.308 0 0 1 .271.119c.317.395.04 1.743-.123 2.41v-.006c.159-.243.309-.376.448-.4a.177.177 0 0 1 .193.092c.1.194-.043.681-.469 1.161a.049.049 0 0 1 -.038.021z" fill="#ca9a3f" transform="translate(-1612.874 -1472.747)"/><path d="m2341.863 1572.108s-.036.8-.577 1.019-2.1.387-1.528.916c.327.3 1.9.145 2.343.154s.855.214 1.19-.08c.369-.323.04-1.978.04-1.978a1.748 1.748 0 0 1 -.73.178 1.4 1.4 0 0 1 -.738-.209z" fill="#333" transform="translate(-2300.701 -1530.042)"/><path d="m2234.689 1561.69s-.045.8-.588 1.012-2.1.364-1.537.9c.323.307 1.9.166 2.341.18s.853.223 1.191-.067c.372-.319.062-1.978.062-1.978a1.752 1.752 0 0 1 -.732.17 1.4 1.4 0 0 1 -.737-.217z" fill="#333" transform="translate(-2198.252 -1520.085)"/><path d="m2258.374 1224.61a1.741 1.741 0 0 1 -1.524-1.856c.357-5.267.84-7.92 2.594-10.115a11.2 11.2 0 0 1 4.747-3.479 12.366 12.366 0 0 1 5-.845 13.575 13.575 0 0 1 4.417.665c1.86 4.978-1.743 5.3-4.38 5.2l-.262-.008c-1.6-.037-4.459.125-5.665 1.634-.955 1.195-1.694 2.925-2.332 7.5a1.617 1.617 0 0 1 -1.778 1.4z" fill="#ffdd9c" transform="translate(-2221.575 -1182.342)"/><path d="m2356.69 1253.92a1.741 1.741 0 0 1 -1.524-1.856c.357-5.267.84-7.92 2.594-10.115a8.948 8.948 0 0 1 4.754-2.969 17.043 17.043 0 0 1 4.984-.524 24.2 24.2 0 0 0 4.421-.167c1.923 6.333-6.9 4.252-9.451 6.656-1.11 1.047-2.55 3.1-3.188 7.671a1.616 1.616 0 0 1 -1.778 1.4z" fill="#ffdd9c" transform="translate(-2315.541 -1210.996)"/><path d="m2468.934 1036.171c-.239.313-2.575 3.013-2.6 5.993l2.179-.447 1.521-3.794z" fill="#fcbdb6" transform="translate(-2421.789 -1017.821)"/><path d="m2499.756 986.116a4 4 0 0 0 -4.118-2.329c-3.186.174-5.424 1.449-5.886 10.469a18.1 18.1 0 0 1 9.423 2.749c.846.505 2.168.4 2.222-.591a33.851 33.851 0 0 0 -1.641-10.298z" fill="#252258" transform="translate(-2444.175 -967.746)"/><path d="m2517.166 985.434-2.8.9s-5.8.688-7.34.437a2.524 2.524 0 0 1 -1.987-1.491 8.321 8.321 0 0 1 4.4-2.453 7.694 7.694 0 0 1 .814-.117 7.081 7.081 0 0 1 1.39-.037c4.529.481 5.523 2.761 5.523 2.761z" fill="#252258" transform="translate(-2458.786 -966.668)"/><path d="m2716.044 1042.652c.15.339-.506.656-1.31.959s-1.521.364-1.6.136.506-.656 1.31-.959 1.503-.356 1.6-.136z" fill="#333" transform="translate(-2657.665 -1023.887)"/><path d="m2559.428 1057.235a2.191 2.191 0 0 1 -1.295-.622 2.024 2.024 0 0 1 -.433-2.026l.713-.288c.059-.178 1.226.692 1.224.691s.578.269 2.811-.495a3.666 3.666 0 0 0 2.7-2.914 3.192 3.192 0 0 0 -.22-1.912c-.01-.037.191-.507 1.021-.786.9-.3 1.221-.066 1.221-.066a7.154 7.154 0 0 1 .13 3.173 5.854 5.854 0 0 1 -4.164 4.63 8.347 8.347 0 0 1 -3.708.615z" fill="#fcbdb6" transform="translate(-2509.018 -1029.825)"/><path d="m2431.521 1150.513-5.849-.162a.285.285 0 0 1 -.264-.2l-1.116-3.716a.286.286 0 0 1 .28-.369l5.624.156a.6.6 0 0 1 .554.426l1.051 3.5a.286.286 0 0 1 -.28.365z" fill="#c17e00" transform="translate(-2381.6 -1122.848)"/><path d="m2423.225 1150.283-5.848-.162a.285.285 0 0 1 -.265-.2l-1.112-3.721a.286.286 0 0 1 .28-.369l5.624.156a.6.6 0 0 1 .554.426l1.051 3.5a.286.286 0 0 1 -.284.37z" fill="#ca9a3f" transform="translate(-2373.671 -1122.628)"/><path d="m2488.393 1188.974c0-.14.164-.192.3-.188a.4.4 0 0 1 .354.36c-.007.211-.17.234-.31.23a.464.464 0 0 1 -.344-.402z" fill="#fff" transform="translate(-2442.876 -1163.681)"/><path d="m2455.415 1231.219-8-.222-.014.52 8.168.227a.174.174 0 0 0 .178-.169v-.006a.341.341 0 0 0 -.332-.35z" fill="#c17e00" transform="translate(-2403.697 -1204.025)"/><path d="m2553.612 1150.934a10.483 10.483 0 0 0 -.437-1.455.8.8 0 0 0 -.4-.412l.011-.037a.818.818 0 0 1 .423.432 10.3 10.3 0 0 1 .44 1.464z" fill="#252258" transform="translate(-2504.409 -1125.685)"/><path d="m2575.168 1202.615c-.217-.006-.268-.1-.27-.109l-.42-1.4.036-.011.419 1.394s.047.08.236.085z" fill="#252258" transform="translate(-2525.152 -1175.449)"/><path d="m2723.489 1167.182a.192.192 0 0 1 -.125-.041c-.129-.1-.086-.373.1-.611a.682.682 0 0 1 .406-.277.2.2 0 0 1 .155.039c.129.1.086.374-.1.611a.679.679 0 0 1 -.406.277zm.412-.854h-.022a.612.612 0 0 0 -.354.248c-.153.2-.2.429-.111.5a.127.127 0 0 0 .1.023.614.614 0 0 0 .355-.248c.153-.2.2-.429.11-.5a.117.117 0 0 0 -.079-.024z" fill="#f9a6a0" opacity=".3" transform="translate(-2667.379 -1142.145)"/><path d="m2604.635 918.454-.479-.858-.14-.25-.821-1.469.275 1.582.165.949.052.3c.036.2-.077.274-.187.482-.045.085-.335.6.142.7a2.063 2.063 0 0 0 1.81-1.037s-.662-.122-.817-.399z" fill="#fcbdb6" transform="translate(-2552.597 -902.849)"/><path d="m2572.313 908.71a2.145 2.145 0 0 0 .185.86c.2.457.427-.826.427-.826z" transform="translate(-2523.083 -896)"/><ellipse cx="1.414" cy="1.729" fill="#fcbdb6" rx="1.414" ry="1.729" transform="matrix(.99690911 -.07856349 .07856349 .99690911 49.252 11.987)"/><path d="m2557.735 872.868-.684.078a.494.494 0 0 1 -.409-.142c-.184-.187-.373-.262-.991-.1a1.334 1.334 0 0 1 -1.583-.557.487.487 0 0 1 .6-.672c.44.116.163-.346.532-.484.691-.257.945.27 1.524.123.76-.193 2.257.092 1.9 1.6z" transform="translate(-2505.599 -859.882)"/><path d="m2605.324 925.953a.028.028 0 0 1 -.017-.019.029.029 0 0 1 .019-.036.307.307 0 0 1 .363.115.029.029 0 0 1 0 .041.031.031 0 0 1 -.04 0 .486.486 0 0 0 -.3-.1.028.028 0 0 1 -.025-.001z" fill="#333" transform="translate(-2554.615 -912.408)"/><path d="m2606.37 932.381c0 .069-.046.123-.1.121s-.086-.061-.083-.13.047-.123.1-.121.086.061.083.13z" fill="#333" transform="translate(-2555.46 -918.499)"/><path d="m2581.415 927.972a.022.022 0 0 1 -.018-.011.035.035 0 0 1 0-.041.2.2 0 0 1 .292-.031.035.035 0 0 1 .009.04.021.021 0 0 1 -.03.011.3.3 0 0 0 -.243.025.019.019 0 0 1 -.01.007z" fill="#333" transform="translate(-2531.76 -914.281)"/><path d="m2585.242 934.169a.113.113 0 0 1 -.043.149c-.047.017-.1-.023-.126-.088a.113.113 0 0 1 .043-.149c.047-.017.103.019.126.088z" fill="#333" transform="translate(-2535.268 -920.244)"/><path d="m2620.706 910.629s-.244 1.113-.882 1.332c0 0 .364-.888-.854-1.109a3.593 3.593 0 0 1 1.736-.223z" transform="translate(-2567.675 -897.794)"/><path d="m2629.574 918.1a.289.289 0 0 1 -.412.022.3.3 0 0 1 .024-.418.29.29 0 0 1 .412-.022.3.3 0 0 1 -.024.418z" fill="#fcbdb6" transform="translate(-2577.346 -904.505)"/><path d="m2582.77 916.5s.272.828.137 1.026a3.064 3.064 0 0 1 -1.812.427 1.121 1.121 0 0 0 1.139.916 1.6 1.6 0 0 0 .536-.121 1.126 1.126 0 0 0 .753-.759 3.335 3.335 0 0 0 -.25-.732.76.76 0 0 1 .043-.614 1.079 1.079 0 0 0 -.546-.143z" transform="translate(-2531.475 -903.441)"/><path d="m2588.838 952.178a2.861 2.861 0 0 0 .916-.128.449.449 0 0 1 -.469.475c-.285.01-.447-.347-.447-.347z" fill="#fff" transform="translate(-2538.876 -937.422)"/><path d="m2569.917 876.516-.007-.038a.178.178 0 0 0 .167-.193h.039a.219.219 0 0 1 -.199.231z" fill="#501506" transform="translate(-2520.786 -865.006)"/><path d="m2561.493 888.077a2.561 2.561 0 0 1 -.473-.087c-.322-.094-.522-.24-.577-.425a.315.315 0 0 1 .012-.284c.074-.1.238-.1.382-.094h.063v.019h-.063c-.14 0-.3 0-.366.086a.3.3 0 0 0 -.009.267c.13.431 1.024.5 1.033.5z" fill="#fff" transform="translate(-2511.713 -875.429)"/><path d="m2594.4 875.027a1.4 1.4 0 0 1 -.361-.046 1.041 1.041 0 0 1 -.352-.16l.012-.015a1.38 1.38 0 0 0 1.3.089l.007.018a1.727 1.727 0 0 1 -.606.114z" fill="#fff" transform="translate(-2543.508 -863.596)"/><path d="m2360.487 1278.385a14.519 14.519 0 0 1 .739-4.189 9.3 9.3 0 0 1 1.775-3.184 6.588 6.588 0 0 1 3.472-2.084l.008.034a6.551 6.551 0 0 0 -3.453 2.073 9.265 9.265 0 0 0 -1.769 3.171 14.475 14.475 0 0 0 -.737 4.179z" fill="#333" transform="translate(-2320.63 -1240.278)"/><path d="m1607.8 701.911-1.258-1.241 10.369-10.5h4.741l12.479-12.66h4.333l6.473-6.568 1.259 1.24-6.992 7.094h-4.333l-12.478 12.66h-4.743z" fill="#ca9a3f" transform="translate(-1600.043 -668.749)"/><path d="m2445.4 652.078 3.364 3.316-.025-3.339z" fill="#ca9a3f" transform="translate(-2401.785 -650.702)"/></g></svg>