<svg height="28" viewBox="0 0 28 28" width="28" xmlns="http://www.w3.org/2000/svg" xmlns:xlink="http://www.w3.org/1999/xlink"><clipPath id="a"><path d="m0 0h28v28h-28z"/></clipPath><g clip-path="url(#a)" fill="#cea955"><path d="m151.63 247.5a2.36 2.36 0 0 0 -.536.056v3.519a2.138 2.138 0 0 0 .411.032 1.648 1.648 0 0 0 1.807-1.888 1.531 1.531 0 0 0 -1.682-1.719z" transform="translate(-143.391 -235.336)"/><path d="m27.373 24.972c.036 0 .072.005.109.005h8.275a1.757 1.757 0 0 0 1.755-1.755v-19.182a1.757 1.757 0 0 0 -1.755-1.755h-8.276c-.036 0-.073 0-.109.005v-2.29l-16.15 2.155v22.965l16.151 2.211zm8.383-1h-8.275a.734.734 0 0 1 -.109-.011v-7.524a16.355 16.355 0 0 1 6.189-.037l.245.475c.989 1.869 2.044 1.857 2.452 1.765a.778.778 0 0 0 .142-.04l.055-.029c.019-.012.033-.027.05-.039v4.7a.753.753 0 0 1 -.749.742zm-7.682-8.429c1.3-1.58 2.343-3.056 3.017-4.055v.006l.007-.011c.529 1.116 1.4 2.842 2 4.021l.021.039a17.051 17.051 0 0 0 -5.053.023l.022-.026zm3.048-7.374c.052-.092.128-.116.264-.11a.5.5 0 0 1 .374.2c.061.11.15.46-.327 1.313s-.062.1-.178.288a2.691 2.691 0 0 1 -.132-1.689zm3.451 8.537a5.921 5.921 0 0 1 1.316.7.916.916 0 0 1 .194.49.047.047 0 0 1 0 .015c-.162.027-.792.047-1.51-1.203zm-7.092-13.418h8.275a.753.753 0 0 1 .752.752v12.937c-.023-.034-.044-.061-.056-.076l-.032-.041-.042-.031a7.059 7.059 0 0 0 -2.3-1.074c-.632-1.234-1.941-3.806-2.491-5.011.319-.491.49-.777.5-.79.5-.885.6-1.576.33-2.063a1.233 1.233 0 0 0 -1-.582 1 1 0 0 0 -.948.49 3.593 3.593 0 0 0 .179 2.649c.018.058.047.132.086.225a54.617 54.617 0 0 1 -3.36 4.54v-11.913a.742.742 0 0 1 .107-.012zm-12.122 10.223a2.169 2.169 0 0 1 -1.591.538 2.582 2.582 0 0 1 -.371-.026v1.843l-1.061-.029v-5.037a8.219 8.219 0 0 1 1.453-.141 2.207 2.207 0 0 1 1.5.384 1.546 1.546 0 0 1 .533 1.211 1.735 1.735 0 0 1 -.463 1.257zm4.98 1.893a3.715 3.715 0 0 1 -2.467.642 9.831 9.831 0 0 1 -1.324-.116v-5.224a10.175 10.175 0 0 1 1.58-.149 3.348 3.348 0 0 1 2.2.536 2.423 2.423 0 0 1 .933 2.078 2.77 2.77 0 0 1 -.923 2.229zm1.751-4.9 3.568-.085v1.073l-2.27.033v1.3l2.119-.005v1.063l-2.119-.015v2.28l-1.3-.036v-5.612z" transform="translate(-10.014 .668)"/><path d="m58.512 248.618a1.733 1.733 0 0 0 -.45.053v1.522a1.531 1.531 0 0 0 .364.031.832.832 0 0 0 .946-.852c-.001-.481-.313-.763-.86-.754z" transform="translate(-54.679 -236.405)"/></g></svg>