<svg height="153" viewBox="0 0 240 153" width="240" xmlns="http://www.w3.org/2000/svg" xmlns:xlink="http://www.w3.org/1999/xlink"><clipPath id="a"><path d="m0 0h240v153h-240z"/></clipPath><g clip-path="url(#a)"><path d="m164.152 45.771c4.094 5.808 7.618 12.093 13.331 16.854 9.713 8 24.567 10.093 32.756 19.806 8.76 10.379 4.856 25.138-4.475 33.9-6.285 5.808-14.664 9.522-23.329 11.712-18.854 4.856-144.926-.571-151.116-3.333-8.38-3.71-12.093-10.761-11.519-18.76.952-13.14 12.188-23.805 24.377-31.042 12.284-7.237 26.186-12.284 37.612-20.472 6.57-4.666 12.093-10.379 18.378-15.331a57.75 57.75 0 0 1 17.616-10.093c17.041-5.904 37.228 3.904 46.369 16.759z" fill="#cea955" transform="translate(-1.419 -1.683)"/><path d="m168.718 142.9-1.143 3.237-2.476-1.714v-35.323h3.618z" style="fill:#252258;stroke:#252258;stroke-linecap:round;stroke-linejoin:round;stroke-miterlimit:10;stroke-width:.75" transform="translate(-8.366 -5.595)"/><path d="m0 0h3.523v32.851h-3.523z" style="fill:#fff;stroke:#252258;stroke-linecap:round;stroke-linejoin:round;stroke-miterlimit:10;stroke-width:.75" transform="translate(67.607 102.553)"/><path d="m104.821 106.782h-66.369a.9.9 0 0 1 -.952-.952v-20.378a.9.9 0 0 1 .952-.952h66.369a.9.9 0 0 1 .952.952v20.282a.979.979 0 0 1 -.952 1.048z" style="fill:#fff;stroke:#252258;stroke-linecap:round;stroke-linejoin:round;stroke-miterlimit:10;stroke-width:.75" transform="translate(-2.268 -4.419)"/><path d="m88.8 93.7c3.142-.19 6 1.714 8.57 3.523" style="fill:none;stroke:#252258;stroke-linecap:round;stroke-linejoin:round;stroke-miterlimit:10;stroke-width:.75" transform="translate(-4.72 -4.858)"/><path d="m84.7 94.981c.286-.1.571-.286.857-.381" style="fill:none;stroke:#252258;stroke-linecap:round;stroke-linejoin:round;stroke-miterlimit:10;stroke-width:.75" transform="translate(-4.524 -4.902)"/><path d="m61.7 95.482c2.095-1.238 4.094-2.666 6.475-2.285 2.761.381 4.571 3.142 7.237 3.9 2.095.571 4.285-.19 6.189-1.143" style="fill:none;stroke:#252258;stroke-linecap:round;stroke-linejoin:round;stroke-miterlimit:10;stroke-width:.75" transform="translate(-3.425 -4.832)"/><path d="m48.5 93.2a8.821 8.821 0 0 0 10.379 3.333" style="fill:none;stroke:#252258;stroke-linecap:round;stroke-linejoin:round;stroke-miterlimit:10;stroke-width:.75" transform="translate(-2.794 -4.835)"/><path d="m0 0h7.618v39.993h-7.618z" fill="#cea955" stroke="#252258" stroke-linecap="round" stroke-width=".75" transform="translate(39.898 80.462)"/><path d="m42.79 89.947 7.332-5.047v5.237l-7.522 5.142z" fill="#252258" transform="translate(-2.512 -4.438)"/><path d="m42.79 100.147 7.332-5.047v5.332l-7.522 5.142z" fill="#252258" transform="translate(-2.512 -4.926)"/><path d="m42.79 111.147 7.332-5.047v5.332l-7.522 5.142z" fill="#252258" transform="translate(-2.512 -5.451)"/><path d="m42.79 121.247 7.332-5.047v5.332l-7.522 5.142z" fill="#252258" transform="translate(-2.512 -5.934)"/><path d="m46.807 158.544a5.528 5.528 0 0 1 -.286-8 7.157 7.157 0 0 1 8.856-.476 5.061 5.061 0 0 1 1.809-5.808c1.9-1.333 5.047-.952 6.189.857a12.9 12.9 0 0 1 2.952-8.189 9.71 9.71 0 0 1 8.473-3.328 8.753 8.753 0 0 1 6.761 5.332 11.321 11.321 0 0 1 -.19 8.284 6.56 6.56 0 0 1 6.475.286 7.629 7.629 0 0 1 3.428 5.142 14.69 14.69 0 0 1 -.381 6.094" style="fill:#cea955;stroke:#252258;stroke-linecap:round;stroke-linejoin:round;stroke-miterlimit:10;stroke-width:.75" transform="translate(-2.624 -6.761)"/><path d="m91.8 158.839h-3.9a10.492 10.492 0 0 0 -.19-1.714 7.629 7.629 0 0 0 -3.428-5.142 6.561 6.561 0 0 0 -6.482-.283 11.321 11.321 0 0 0 .19-8.284 9.067 9.067 0 0 0 -6.761-5.332 8.661 8.661 0 0 0 -5.332.952 8.592 8.592 0 0 1 1.333-1.9 9.71 9.71 0 0 1 8.475-3.333 8.571 8.571 0 0 1 6.761 5.332 10.864 10.864 0 0 1 -.19 8.284 6.333 6.333 0 0 1 6.475.286 7.629 7.629 0 0 1 3.428 5.142 14.337 14.337 0 0 1 -.379 5.992z" fill="#252258" transform="translate(-3.626 -6.771)"/><g stroke-miterlimit="10"><path d="m46.807 158.544a5.528 5.528 0 0 1 -.286-8 7.157 7.157 0 0 1 8.856-.476 5.061 5.061 0 0 1 1.809-5.808c1.9-1.333 5.047-.952 6.189.857a12.9 12.9 0 0 1 2.952-8.189 9.71 9.71 0 0 1 8.473-3.328 8.753 8.753 0 0 1 6.761 5.332 11.321 11.321 0 0 1 -.19 8.284 6.56 6.56 0 0 1 6.475.286 7.629 7.629 0 0 1 3.428 5.142 14.69 14.69 0 0 1 -.381 6.094" fill="none" stroke="#252258" stroke-linecap="round" stroke-linejoin="round" stroke-width=".75" transform="translate(-2.624 -6.761)"/><path d="m0 0h65.988" fill="none" stroke="#111" stroke-linecap="round" stroke-linejoin="round" stroke-width=".75" transform="translate(173.112 152.163)"/><path d="m0 0h1.809" fill="none" stroke="#111" stroke-linecap="round" stroke-linejoin="round" stroke-width=".75" transform="translate(168.065 152.163)"/><path d="m0 0h131.31" fill="none" stroke="#111" stroke-linecap="round" stroke-linejoin="round" stroke-width=".75" transform="translate(33.613 152.163)"/><path d="m0 0h26.186" fill="none" stroke="#111" stroke-linecap="round" stroke-linejoin="round" stroke-width=".75" transform="translate(1.809 152.163)"/><path d="m0 8.57 1.904-8.57" fill="#fff" stroke="#111" stroke-linecap="round" stroke-linejoin="round" stroke-width=".75" transform="translate(146.164 143.593)"/><path d="m154.634 158.813s2.208-12.163 6.348-13.331 5.237.857 6.475 3.142a12.136 12.136 0 0 1 5.047-9.808 9.811 9.811 0 0 1 10.76-.1 8.2 8.2 0 0 1 2.666 10.189 7.649 7.649 0 0 1 7.9 1.9 7.742 7.742 0 0 1 1.619 8" fill="#cea955" stroke="#252258" stroke-linecap="round" stroke-linejoin="round" stroke-width=".75" transform="translate(-7.866 -6.936)"/><path d="m218.042 42.971a2.571 2.571 0 1 1 -2.571-2.571 2.623 2.623 0 0 1 2.571 2.571z" fill="none" stroke="#252258" transform="translate(-10.651 -2.312)"/><path d="m228.442 132.971a2.571 2.571 0 1 1 -2.571-2.571 2.56 2.56 0 0 1 2.571 2.571z" fill="none" stroke="#252258" transform="translate(-11.148 -6.613)"/><path d="m207.785 107.842a3.142 3.142 0 1 1 -3.142-3.142 3.17 3.17 0 0 1 3.142 3.142z" fill="none" stroke="#fff" transform="translate(-10.106 -5.385)"/><path d="m5.642 123.571a2.571 2.571 0 1 1 -2.571-2.571 2.56 2.56 0 0 1 2.571 2.571z" fill="none" stroke="#252258" transform="translate(-.5 -6.164)"/><path d="m18.042 39.071a2.571 2.571 0 1 1 -2.571-2.571 2.56 2.56 0 0 1 2.571 2.571z" fill="none" stroke="#252258" transform="translate(-1.093 -2.125)"/></g><path d="m194.819 45.342a3.516 3.516 0 0 0 -2.571 1.047 4.876 4.876 0 0 0 -4.666-4.19 4.806 4.806 0 0 0 -4.666 4.285 4.536 4.536 0 0 0 -2.761-.857 4.984 4.984 0 0 0 -4.856 4.094c-.1.19.1.381.381.381h23.139a4.345 4.345 0 0 0 -4-4.76z" fill="#cea955" opacity=".25" transform="translate(-8.853 -2.398)"/><path d="m63.719 16.542a3.516 3.516 0 0 0 -2.571 1.047 4.876 4.876 0 0 0 -4.666-4.19 4.806 4.806 0 0 0 -4.666 4.285 4.536 4.536 0 0 0 -2.761-.857 4.984 4.984 0 0 0 -4.855 4.095c-.1.19.1.381.381.381h23.137a4.227 4.227 0 0 0 -3.999-4.761z" fill="#cea955" opacity=".25" transform="translate(-2.587 -1.021)"/><path d="m23.519 71.442a3.516 3.516 0 0 0 -2.571 1.047 4.876 4.876 0 0 0 -4.666-4.19 4.806 4.806 0 0 0 -4.666 4.285 4.536 4.536 0 0 0 -2.761-.857 4.984 4.984 0 0 0 -4.855 4.095c-.1.19.1.381.381.381h23.042a4.1 4.1 0 0 0 -3.904-4.761z" fill="#cea955" opacity=".25" transform="translate(-.666 -3.645)"/><g style="fill:none;stroke:#252258;stroke-linecap:round;stroke-linejoin:round;stroke-miterlimit:10;stroke-width:.75" transform="translate(197.488 62.37)"><path d="m0 0h13.997"/><path d="m0 0h17.235" transform="translate(20.853 5.618)"/><path d="m0 0h4.19" transform="translate(12.284 5.618)"/></g><g style="fill:none;stroke:#252258;stroke-linecap:round;stroke-linejoin:round;stroke-miterlimit:10;stroke-width:.75" transform="translate(27.9 49.134)"><path d="m0 0h13.997"/><path d="m0 0h17.14" transform="translate(20.949 5.523)"/><path d="m0 0h4.19" transform="translate(12.379 5.523)"/></g><path d="m0 0h3.523v55.419h-3.523z" style="fill:#fff;stroke:#252258;stroke-linecap:round;stroke-linejoin:round;stroke-miterlimit:10;stroke-width:.75" transform="translate(109.504 70.844)"/><path d="m89.435 158.378c-1.428-2.666-1.524-6.761-1.047-9.522a10.746 10.746 0 0 1 4.761-7.237c2.666-1.619 6.38-2 9.046-.381a15.806 15.806 0 0 1 -.286-11.617 12.27 12.27 0 0 1 9.522-7.427 13.408 13.408 0 0 1 11.807 4.666 18.634 18.634 0 0 1 4.095 11.427c1.524-2.666 6-3.142 8.665-1.238a7.183 7.183 0 0 1 2.476 8.189c3.523-2.666 9.332-2.38 12.379.762 3.047 3.047 3.333 9.617 0 12.474z" style="fill:#cea955;stroke:#252258;stroke-linecap:round;stroke-linejoin:round;stroke-miterlimit:10;stroke-width:.75" transform="translate(-4.688 -6.215)"/><path d="m151.61 158.273a9.539 9.539 0 0 0 -2.285-7.713c-3.047-3.047-8.951-3.333-12.379-.762a7.327 7.327 0 0 0 -2.476-8.189c-2.666-1.9-7.142-1.428-8.665 1.238a17.542 17.542 0 0 0 -4.095-11.427 13.408 13.408 0 0 0 -11.807-4.666 12.8 12.8 0 0 0 -7.9 4.666 16.409 16.409 0 0 1 .667-2 12.275 12.275 0 0 1 9.427-7.427 13.658 13.658 0 0 1 11.803 4.667 18.634 18.634 0 0 1 4.1 11.426c1.524-2.666 6-3.142 8.665-1.238a7.225 7.225 0 0 1 2.476 8.189 10.019 10.019 0 0 1 12.379.762c3.042 3.047 3.328 9.618.09 12.474z" fill="#252258" transform="translate(-5.351 -6.205)"/><path d="m151.087 38.774-33.518 33.613a2.761 2.761 0 0 1 -4 0l-33.612-33.613a2.761 2.761 0 0 1 0-4l33.518-33.517a2.761 2.761 0 0 1 4 0l33.518 33.518a2.688 2.688 0 0 1 .094 3.999z" style="fill:#f4e552;stroke:#111;stroke-linecap:round;stroke-linejoin:round;stroke-miterlimit:10;stroke-width:.75" transform="translate(-4.256 -.4)"/><path d="m151.087 38.774-33.518 33.613a2.761 2.761 0 0 1 -4 0l-33.612-33.613a2.761 2.761 0 0 1 0-4l33.518-33.517a2.761 2.761 0 0 1 4 0l33.518 33.518a2.688 2.688 0 0 1 .094 3.999z" style="fill:#cea955;stroke:#111;stroke-linecap:round;stroke-linejoin:round;stroke-miterlimit:10;stroke-width:.75" transform="translate(-4.256 -.4)"/><path d="m149.941 41.543-28.09 28.09c-2.476 2.476-4.856 5.9-8.951.476a2.524 2.524 0 0 0 .571-.476l28.09-28.09a6.668 6.668 0 0 0 0-9.522l-28.09-28.091a2.524 2.524 0 0 0 -.571-.476c3.9-5.523 6.475-1.9 8.951.476l28.09 28.09c2.666 2.667 5.808 4.48 0 9.523z" fill="#252258" transform="translate(-5.872 -.407)"/><path d="m144.472 101.107 17.711-29.8a3.844 3.844 0 0 1 6.665 0l17.711 29.8a3.9 3.9 0 0 1 -3.333 5.9h-35.421a3.922 3.922 0 0 1 -3.333-5.9z" style="fill:#fff;stroke:#252258;stroke-linecap:round;stroke-linejoin:round;stroke-miterlimit:10;stroke-width:.75" transform="translate(-7.354 -3.696)"/><path d="m166.475 95.831a1.447 1.447 0 0 1 -1.428-1.333l-1.047-12.474a1.375 1.375 0 0 1 1.428-1.524h2.19a1.423 1.423 0 0 1 1.428 1.524l-1.046 12.476a1.539 1.539 0 0 1 -1.525 1.331z" style="fill:#cea955;stroke:#252258;stroke-linecap:round;stroke-linejoin:round;stroke-miterlimit:10;stroke-width:.75" transform="translate(-8.313 -4.228)"/><path d="m166.5 103.509a1.9 1.9 0 1 1 1.9-1.9 1.91 1.91 0 0 1 -1.9 1.9z" fill="#cea955" transform="translate(-8.342 -5.145)"/><path d="m166.485 100.062a1.524 1.524 0 1 1 -1.524 1.524 1.5 1.5 0 0 1 1.524-1.524m0-.762a2.285 2.285 0 1 0 2.285 2.285 2.317 2.317 0 0 0 -2.285-2.285z" fill="#252258" transform="translate(-8.323 -5.126)"/><path d="m0 5.142 2.857-5.142" style="fill:#f4e552;stroke:#252258;stroke-linecap:round;stroke-linejoin:round;stroke-miterlimit:10;stroke-width:.75" transform="translate(142.07 90.746)"/><path d="m0 1.047.476-1.047" style="fill:#f4e552;stroke:#252258;stroke-linecap:round;stroke-linejoin:round;stroke-miterlimit:10;stroke-width:.75" transform="translate(145.974 87.984)"/><path d="m89.435 158.378c-1.428-2.666-1.524-6.761-1.047-9.522a10.746 10.746 0 0 1 4.761-7.237c2.666-1.619 6.38-2 9.046-.381a15.806 15.806 0 0 1 -.286-11.617 12.27 12.27 0 0 1 9.522-7.427 13.408 13.408 0 0 1 11.807 4.666 18.634 18.634 0 0 1 4.095 11.427c1.524-2.666 6-3.142 8.665-1.238a7.183 7.183 0 0 1 2.476 8.189c3.523-2.666 9.332-2.38 12.379.762 3.047 3.047 3.333 9.617 0 12.474z" style="fill:none;stroke:#252258;stroke-linecap:round;stroke-linejoin:round;stroke-miterlimit:10;stroke-width:.75" transform="translate(-4.688 -6.215)"/><path d="m98.218 147.007a1.244 1.244 0 0 0 -.381-1.524 1.317 1.317 0 0 0 -1.143-.286 2.073 2.073 0 0 0 -.762.476 10.955 10.955 0 0 0 -3.232 5.527 2.4 2.4 0 0 0 .1 1.619c.286.667 1.143 1.428 1.714 1.047.667-.381 1.047-1.524 1.428-2.095a19.992 19.992 0 0 0 2.276-4.764z" fill="#fdf8ce" transform="translate(-4.902 -7.318)"/><path d="m94.581 30.9a1.3 1.3 0 0 0 -.1-1.524 1.736 1.736 0 0 0 -1.047-.476 3.026 3.026 0 0 0 -.857.286 10.991 10.991 0 0 0 -4.094 4.951 2.088 2.088 0 0 0 -.19 1.524c.19.667.857 1.524 1.524 1.333.762-.286 1.333-1.333 1.809-1.809a20.071 20.071 0 0 0 2.955-4.285z" fill="#fdf8ce" transform="translate(-4.692 -1.762)"/><path d="m131.771 30.421c0-7.427-6.761-13.521-15.235-13.521-8.379 0-15.235 6.094-15.235 13.521 0 5.332 3.428 9.9 8.475 12.093a7.087 7.087 0 0 1 1.333 2.095 19.389 19.389 0 0 0 .857 2.095 2.01 2.01 0 0 0 1.9 1.047c1.238-.1 1.9-1.809 3.142-1.809a3.424 3.424 0 0 1 2 1.047 2.524 2.524 0 0 0 2.095.762 2.2 2.2 0 0 0 1.238-1.714c.381-1.238.857-2.476 1.238-3.714a13.324 13.324 0 0 0 8.192-11.902z" style="fill:#fff;stroke:#111;stroke-linecap:round;stroke-linejoin:round;stroke-miterlimit:10;stroke-width:.75" transform="translate(-5.317 -1.189)"/><path d="m125.09 35.876a2.281 2.281 0 0 1 -2.095 2.476 2.341 2.341 0 0 1 -2.095-2.476 2.281 2.281 0 0 1 2.095-2.476 2.222 2.222 0 0 1 2.095 2.476z" fill="#111" transform="translate(-6.254 -1.978)"/><path d="m114.19 35.876a2.281 2.281 0 0 1 -2.095 2.476 2.341 2.341 0 0 1 -2.095-2.476 2.124 2.124 0 1 1 4.19 0z" fill="#111" transform="translate(-5.733 -1.978)"/><path d="m111.3 60.1c3.809-2.095 7.618-4.094 11.522-6" style="fill:none;stroke:#252258;stroke-linecap:round;stroke-linejoin:round;stroke-miterlimit:10;stroke-width:.75" transform="translate(-5.795 -2.967)"/><path d="m122.822 60.1c-3.809-2.1-7.622-4.1-11.522-6" style="fill:none;stroke:#252258;stroke-linecap:round;stroke-linejoin:round;stroke-miterlimit:10;stroke-width:.75" transform="translate(-5.795 -2.967)"/><path d="m115.933 41.262a.736.736 0 0 1 -.667.762.769.769 0 0 1 0-1.524.808.808 0 0 1 .667.762z" fill="#111" transform="translate(-5.953 -2.317)"/><path d="m119.933 41.262a.736.736 0 0 1 -.667.762.769.769 0 0 1 0-1.524.808.808 0 0 1 .667.762z" fill="#111" transform="translate(-6.144 -2.317)"/><path d="m151.087 38.774-33.518 33.613a2.761 2.761 0 0 1 -4 0l-33.612-33.613a2.761 2.761 0 0 1 0-4l33.518-33.517a2.761 2.761 0 0 1 4 0l33.518 33.518a2.688 2.688 0 0 1 .094 3.999z" style="fill:none;stroke:#252258;stroke-linecap:round;stroke-linejoin:round;stroke-miterlimit:10;stroke-width:.75" transform="translate(-4.256 -.4)"/><path d="m0 0 8.76 8.475" style="fill:none;stroke:#111;stroke-linecap:round;stroke-linejoin:round;stroke-miterlimit:10;stroke-width:.75" transform="translate(83.128 40.945)"/><path d="m0 0 2.095 2.19" style="fill:none;stroke:#111;stroke-linecap:round;stroke-linejoin:round;stroke-miterlimit:10;stroke-width:.75" transform="translate(93.317 51.038)"/></g></svg>