<svg height="28" viewBox="0 0 28 28" width="28" xmlns="http://www.w3.org/2000/svg" xmlns:xlink="http://www.w3.org/1999/xlink"><clipPath id="a"><path d="m0 0h28v28h-28z"/></clipPath><clipPath id="b"><path d="m0 0h28v28h-28z"/></clipPath><g clip-path="url(#b)"><g fill="#252258"><path d="m236.833 412.188a.41.41 0 0 0 0 .819.41.41 0 0 0 0-.819zm0 0" transform="translate(-234.405 -410.57)"/><path d="m256.106 412.188a.41.41 0 0 0 0 .819.41.41 0 0 0 0-.819zm0 0" transform="translate(-252.273 -410.57)"/><path d="m275.382 412.188a.41.41 0 0 0 0 .819.41.41 0 0 0 0-.819zm0 0" transform="translate(-270.144 -410.57)"/><path d="m252.994 487.129a.41.41 0 0 0 0 .819.41.41 0 0 0 0-.819zm0 0" transform="translate(-249.388 -480.047)"/><path d="m253 528.436a.41.41 0 0 0 0-.819.41.41 0 0 0 0 .819zm0 0" transform="translate(-249.389 -517.583)"/><path d="m278.186 568.922h10.263a.41.41 0 0 0 0-.82h-10.263a.41.41 0 0 0 0 .82zm0 0" transform="translate(-272.741 -555.116)"/><path d="m253 568.922a.41.41 0 0 0 0-.82.41.41 0 0 0 0 .82zm0 0" transform="translate(-249.389 -555.116)"/><path d="m278.186 609.41h10.263a.41.41 0 0 0 0-.82h-10.263a.41.41 0 0 0 0 .82zm0 0" transform="translate(-272.741 -592.652)"/><path d="m253 609.41a.41.41 0 0 0 0-.82.41.41 0 0 0 0 .82zm0 0" transform="translate(-249.389 -592.652)"/><path d="m276.773 649.9h10.263a.41.41 0 0 0 0-.82h-10.263a.41.41 0 0 0 0 .82zm0 0" transform="translate(-271.431 -630.187)"/><path d="m251.583 649.9a.41.41 0 0 0 0-.82.41.41 0 0 0 0 .82zm0 0" transform="translate(-248.079 -630.187)"/><path d="m275.362 690.385h6.116a.41.41 0 0 0 0-.819h-6.116a.41.41 0 0 0 0 .819zm0 0" transform="translate(-270.123 -667.723)"/><path d="m250.171 690.385a.41.41 0 0 0 0-.819.41.41 0 0 0 0 .819zm0 0" transform="translate(-246.771 -667.723)"/><path d="m486.31 488.091a.421.421 0 0 0 .309-.679l-1.78-2.039v-1.726a.41.41 0 0 0 -.819 0v1.88a.41.41 0 0 0 .1.269l1.88 2.155a.408.408 0 0 0 .309.14zm0 0" transform="translate(-463.934 -476.451)"/></g><path d="m535.679 427.453a6.63 6.63 0 0 1 1.389 10.147l.005-.24a.41.41 0 0 0 -.819-.019l-.028 1.215a.414.414 0 0 0 .4.419l1.266.029a.411.411 0 0 0 .019-.819l-.262-.006a7.447 7.447 0 0 0 1.028-8.762 7.524 7.524 0 0 0 -2.566-2.661.41.41 0 0 0 -.432.7zm0 0" fill="#cea955" transform="translate(-511.651 -424.016)"/><g clip-path="url(#a)" fill="#cea955"><path d="m485.261 413.129a6.623 6.623 0 0 1 1.935.288.41.41 0 0 0 .24-.784 7.434 7.434 0 0 0 -2.175-.324.41.41 0 0 0 0 .82zm0 0" transform="translate(-464.717 -410.682)"/><path d="m234.69 414.419h-9.549l2.417-2.419a.415.415 0 0 0 .12-.29v-7.6a5.084 5.084 0 1 0 0-9.784v-2.578a1.6 1.6 0 0 0 -1.595-1.595h-15.918a1.6 1.6 0 0 0 -1.595 1.595v4.634a.41.41 0 0 0 .82 0v-2.2h17.468v.452a5.116 5.116 0 0 0 -2.476 2.6.41.41 0 0 0 -.1-.014h-10.268a.41.41 0 0 0 0 .819h10.1a5.1 5.1 0 0 0 -.046 2.133h-10.054a.41.41 0 0 0 0 .819h10.286a5.113 5.113 0 0 0 2.557 2.8v7.5h-3a1.6 1.6 0 0 0 -1.595 1.595v1.522h-2.232a.411.411 0 0 0 -.2.051l-2.586 1.424h-7.085a.776.776 0 0 1 -.775-.775v-16.451a.41.41 0 0 0 -.82 0v16.462a1.6 1.6 0 0 0 1.595 1.595h7.187l2.485 1.369a.414.414 0 0 0 .2.051l8.695-.027a.411.411 0 0 0 0-.82l-8.282.026v-2.074h12.606v2.061l-2.134-.015a.411.411 0 0 0 -.006.82l3.774.027a1.858 1.858 0 0 0 0-3.714zm-25.3-21.05v-1.618a.776.776 0 0 1 .775-.775h15.918a.776.776 0 0 1 .775.775v1.618zm15.41 5.852a4.264 4.264 0 1 1 4.264 4.264 4.269 4.269 0 0 1 -4.264-4.264zm-1.714 13.679a.776.776 0 0 1 .775-.775h2.417l-2.3 2.3h-.9zm-3.456 4.133-1.373-.755 1.373-.755zm16.092-.649a1.039 1.039 0 0 1 -1.032.932l-.815-.006v-2.069h.815a1.057 1.057 0 0 1 1.032 1.144zm0 0" transform="translate(-208.57 -390.144)"/></g></g></svg>