<svg height="28" viewBox="0 0 28 28" width="28" xmlns="http://www.w3.org/2000/svg" xmlns:xlink="http://www.w3.org/1999/xlink"><clipPath id="a"><path d="m0 0h28v28h-28z"/></clipPath><g clip-path="url(#a)"><g transform="translate(-554.648 -739.333)"><path d="m580.315 739.333h-23.333a2.334 2.334 0 0 0 -2.334 2.334v16.8a2.333 2.333 0 0 0 2.334 2.333h8.866v2.8h-2.8a1.4 1.4 0 0 0 -1.4 1.4v1.867a.467.467 0 0 0 .467.466h13.066a.467.467 0 0 0 .467-.466v-1.867a1.4 1.4 0 0 0 -1.4-1.4h-2.8v-2.8h8.867a2.333 2.333 0 0 0 2.333-2.333v-16.8a2.333 2.333 0 0 0 -2.333-2.334zm-6.067 25.2a.467.467 0 0 1 .467.467v1.4h-12.134v-1.4a.467.467 0 0 1 .466-.467zm-7.467-.933v-2.8h3.733v2.8zm14.933-5.133a1.4 1.4 0 0 1 -1.4 1.4h-23.332a1.4 1.4 0 0 1 -1.4-1.4v-1.4h26.133zm0-2.334h-26.133v-14.466a1.4 1.4 0 0 1 1.4-1.4h23.333a1.4 1.4 0 0 1 1.4 1.4zm0 0" fill="#cea955"/><path d="m0 0h.933v.933h-.933z" fill="#cea955" transform="translate(578.915 758)"/><path d="m0 0h.933v.933h-.933z" fill="#cea955" transform="translate(577.048 758)"/><path d="m585.95 748.944h-1.108v-.369a.369.369 0 0 0 -.369-.369h-5.909a.369.369 0 0 0 -.369.369v.369h-.739v-.369a.369.369 0 0 0 -.37-.369h-5.909a.369.369 0 0 0 -.369.369v.369h-1.108a.369.369 0 0 0 -.369.369v9.6a.369.369 0 0 0 .369.369h16.25a.37.37 0 0 0 .369-.369v-9.6a.37.37 0 0 0 -.369-.369zm-7.017 0h5.17v8.125h-5.17zm-1.477.739h.739v7.755a.369.369 0 1 1 -.739 0zm-5.909-.739h5.17v8.125h-5.17zm14.034 9.6h-15.511v-8.863h.739v7.755a.37.37 0 0 0 .369.369h5.606a1.1 1.1 0 0 0 2.083 0h5.606a.37.37 0 0 0 .369-.369v-7.755h.739zm0 0" fill="#252258" transform="translate(-9.177 -5.546)"/><g fill="#cea955"><path d="m0 0h.739v.739h-.739z" transform="translate(563.109 744.876)"/><path d="m0 0h2.216v.739h-2.216z" transform="translate(564.586 744.876)"/><path d="m0 0h3.693v.739h-3.693z" transform="translate(563.109 746.353)"/><path d="m0 0h3.693v.739h-3.693z" transform="translate(563.109 747.83)"/><path d="m0 0h3.693v.739h-3.693z" transform="translate(563.109 749.308)"/><path d="m0 0h3.693v.739h-3.693z" transform="translate(570.495 746.353)"/><path d="m0 0h3.693v.739h-3.693z" transform="translate(570.495 744.876)"/><path d="m0 0h3.693v.739h-3.693z" transform="translate(570.495 747.83)"/><path d="m0 0h3.693v.739h-3.693z" transform="translate(570.495 749.308)"/></g></g></g></svg>