<svg height="28" viewBox="0 0 28 28" width="28" xmlns="http://www.w3.org/2000/svg" xmlns:xlink="http://www.w3.org/1999/xlink"><clipPath id="a"><path d="m0 0h28v28h-28z"/></clipPath><g clip-path="url(#a)"><g fill="#cea955"><path d="m104 208h.875v.875h-.875z" transform="translate(-98.312 -196.625)"/><path d="m144 232h.875v.875h-.875z" transform="translate(-136.125 -219.313)"/><path d="m248 288h.875v.875h-.875z" transform="translate(-234.437 -272.25)"/></g><path d="m97.246 169.612a2.707 2.707 0 0 1 2.37-.6l.144-.863a3.564 3.564 0 0 0 -3.1.817 3.631 3.631 0 0 0 -.342.353 3.851 3.851 0 0 0 -.441-.732 3.738 3.738 0 0 0 -3.682-1.316l.109.868a2.928 2.928 0 0 1 2.86.955 2.876 2.876 0 0 1 .263.4 4.95 4.95 0 0 0 -.749-.2 3.955 3.955 0 0 0 -3.612 1.161l.619.619a3.114 3.114 0 0 1 2.988-.893 4.43 4.43 0 0 0 -1.962 1.648 6.461 6.461 0 0 0 -.884 1.892l.849.213a5.668 5.668 0 0 1 .771-1.63 3.443 3.443 0 0 1 1.78-1.395 13.793 13.793 0 0 0 -1.66 6.942 13.847 13.847 0 0 0 -4.278 1.362l.242-.3a.438.438 0 0 0 -.342-.711h-3.5v-5.687a.438.438 0 0 0 -.8-.251l-3.063 4.375a.437.437 0 0 0 .358.688h2.625v.875h-3.934a.438.438 0 0 0 -.364.68l.838 1.258a2.513 2.513 0 0 0 -1.349-.353v.875a1.858 1.858 0 0 1 1.3.511 2.776 2.776 0 0 0 3.668 0 1.912 1.912 0 0 1 2.6 0 2.777 2.777 0 0 0 3.668 0 1.913 1.913 0 0 1 2.6 0 2.776 2.776 0 0 0 3.668 0 1.858 1.858 0 0 1 1.3-.511v-.875a2.693 2.693 0 0 0 -1.834.692 1.913 1.913 0 0 1 -2.6 0 2.777 2.777 0 0 0 -3.668 0 1.858 1.858 0 0 1 -1.3.511 1.658 1.658 0 0 1 -.993-.286 13.131 13.131 0 0 1 6.462-2.065h3.938v-.875h-3.934c-.145 0-.289 0-.433.01a14.53 14.53 0 0 1 1.028-5.412 7.466 7.466 0 0 1 .766-1.4 6.1 6.1 0 0 1 .305 1.609c.082.867.083 1.684.083 1.692h.876c0-.041 0-1.02-.112-2.017a7.892 7.892 0 0 0 -.23-1.284c.07.026.141.055.213.088a2.486 2.486 0 0 1 1.447 1.972l.863-.144a3.349 3.349 0 0 0 -1.944-2.622 4.082 4.082 0 0 0 -.832-.277 2.8 2.8 0 0 1 .34-.367zm-14.218 6.839 1.785-2.55v2.55zm1.409 4.028a1.857 1.857 0 0 1 -1.3.511c-.06 0-.117 0-.171-.007l-1.272-1.908h6.585l-.79.988a2.547 2.547 0 0 0 -1.216-.277 2.693 2.693 0 0 0 -1.837.693z" fill="#252258" transform="translate(-75.625 -158.076)"/><path d="m193.969 187.938a1.969 1.969 0 1 0 -1.969-1.969 1.969 1.969 0 0 0 1.969 1.969zm0-3.062a1.094 1.094 0 1 1 -1.094 1.094 1.094 1.094 0 0 1 1.094-1.095z" fill="#cea955" transform="translate(-181.5 -173.938)"/><path d="m27.563 24.938c-1.009 0-2.187-.687-2.187-2.625v-18.813a1.314 1.314 0 0 0 -1.312-1.312h-2.626v-.875a1.314 1.314 0 0 0 -1.313-1.313h-1.75a1.314 1.314 0 0 0 -1.312 1.312v.875h-8.313v-.874a1.314 1.314 0 0 0 -1.313-1.313h-1.749a1.314 1.314 0 0 0 -1.313 1.312v.875h-3.062a1.314 1.314 0 0 0 -1.313 1.313v23.188a1.314 1.314 0 0 0 1.313 1.312h22.75a1.314 1.314 0 0 0 1.312-1.312v-.875h2.188a.438.438 0 0 0 0-.875zm-9.625-23.625a.438.438 0 0 1 .438-.437h1.75a.438.438 0 0 1 .438.438v.875h-2.626zm-12.687 0a.438.438 0 0 1 .437-.438h1.75a.438.438 0 0 1 .438.438v.875h-2.626zm-.875 1.75h3.5v.45a1.969 1.969 0 1 0 .875.1v-.55h11.812v.45a1.969 1.969 0 1 0 .875.1v-.55h2.625a.438.438 0 0 1 .437.437v4.375h-21.437v-4.375a.438.438 0 0 1 .437-.437zm4.374 1.537a1.092 1.092 0 1 1 -.875-.2v1.288h.875zm12.688 0a1.092 1.092 0 1 1 -.875-.2v1.288h.875zm3.062 22.088a.438.438 0 0 1 -.437.438h-22.75a.438.438 0 0 1 -.437-.437v-23.189a.438.438 0 0 1 .438-.437h.95a1.306 1.306 0 0 0 -.075.437v18.813a3.5 3.5 0 0 0 3.5 3.5h18.811zm-18.812-1.75a2.628 2.628 0 0 1 -2.625-2.625v-13.563h21.437v13.563a3.894 3.894 0 0 0 .775 2.439q.078.1.162.186z" fill="#cea955"/></g></svg>