<svg height="28" viewBox="0 0 28 28" width="28" xmlns="http://www.w3.org/2000/svg" xmlns:xlink="http://www.w3.org/1999/xlink"><clipPath id="a"><path d="m0 0h28v28h-28z"/></clipPath><g clip-path="url(#a)"><g transform="translate(-360 -360)"><path d="m531.4 552h-14.933a.467.467 0 0 0 -.467.467v3.733a.467.467 0 0 0 .467.467h14.933a.467.467 0 0 0 .467-.467v-3.733a.467.467 0 0 0 -.467-.467zm-.467 3.733h-.933v-1.867h-.933v1.867h-.933v-.933h-.934v.933h-.933v-.933h-.933v.933h-.934v-1.867h-.933v1.867h-.933v-.933h-.934v.933h-.933v-.933h-.933v.933h-.934v-1.867h-.933v1.867h-.933v-2.8h14zm0 0" fill="#cea955" transform="translate(-143.867 -177.067)"/><path d="m509.292 624h-12.6a.459.459 0 0 0 -.191.042l-4.2 1.867a.467.467 0 0 0 0 .849l4.2 1.867a.459.459 0 0 0 .191.042h12.6a.467.467 0 0 0 .467-.467v-3.733a.467.467 0 0 0 -.467-.467zm-14.933 2.651-.719-.317.719-.317zm1.867.831-.933-.415v-1.467l.933-.415zm9.8.252h-8.867v-.934h8.867zm0-1.867h-8.867v-.933h8.867zm2.8 1.867h-1.867v-2.8h1.867zm0 0" fill="#cea955" transform="translate(-121.758 -243.467)"/><path d="m381.933 387.067h-19.6a1.4 1.4 0 0 1 -1.4-1.4v-21.019h22.4v9.352h.933v-11.667a2.336 2.336 0 0 0 -2.333-2.333h-19.6a2.336 2.336 0 0 0 -2.333 2.333v23.333a2.336 2.336 0 0 0 2.333 2.334h19.6a2.333 2.333 0 0 0 2.26-1.751l-.9-.233a1.4 1.4 0 0 1 -1.356 1.051zm-19.6-26.133h19.6a1.4 1.4 0 0 1 1.4 1.4v1.381h-22.4v-1.381a1.4 1.4 0 0 1 1.4-1.4zm0 0" fill="#cea955"/><g fill="#252258"><path d="m414.667 450.067v-5.6a.467.467 0 0 0 -.467-.467h-17.733a.467.467 0 0 0 -.467.467v5.6a.467.467 0 0 0 .467.467h17.733a.467.467 0 0 0 .467-.467zm-.933-.467h-16.8v-4.667h16.8zm0 0" transform="translate(-33.2 -77.467)"/><path d="m0 0h7v2h-7z" transform="translate(362 376)"/><path d="m0 0h7v1h-7z" transform="translate(362 379)"/><path d="m0 0h6v1h-6z" transform="translate(362 382)"/><path d="m0 0h7v2h-7z" transform="translate(362 384)"/></g></g></g></svg>