<svg height="28" viewBox="0 0 28 28" width="28" xmlns="http://www.w3.org/2000/svg" xmlns:xlink="http://www.w3.org/1999/xlink"><clipPath id="a"><path d="m0 0h28v28h-28z"/></clipPath><g clip-path="url(#a)"><g fill="#252258"><path d="m0 0h7.467v.933h-7.467z" transform="translate(4.48 17.715)"/><path d="m0 0h7.467v.933h-7.467z" transform="translate(4.48 19.582)"/><path d="m0 0h5.6v.933h-5.6z" transform="translate(4.48 21.448)"/><path d="m0 0h4.667v.933h-4.667z" transform="translate(7.28 15.848)"/><path d="m0 0h3.733v.933h-3.733z" transform="translate(16.147 21.448)"/><path d="m0 0h3.733v.933h-3.733z" transform="translate(16.147 12.115)"/><path d="m0 0h.933v.933h-.933z" transform="translate(17.08 6.515)"/><path d="m0 0h.933v.933h-.933z" transform="translate(17.08 15.848)"/><path d="m0 0h.933v.933h-.933z" transform="translate(5.413 15.848)"/><path d="m304.933 574.888v1.112h.933v-1.112l1.608-.8a.466.466 0 0 0 .258-.42v-1.868h.933v-.933h-1.29l-1.51-.755v-1.112h-.933v1.112l-1.608.8a.466.466 0 0 0 -.258.418v1.87h-.933v.933h1.29zm-.933-3.266 1.4-.7 1.4.7v1.757l-1.4.7-1.4-.7z" transform="translate(-297.186 -562.485)"/><path d="m0 0h.933v.933h-.933z" transform="translate(10.547 6.515)"/><path d="m0 0h.933v.933h-.933z" transform="translate(4.947 12.582)"/></g><path d="m291.533 528.6h-1.867v-2.8a1.867 1.867 0 0 0 -1.867-1.867h-1.4a.467.467 0 0 0 -.467.467v2.333h-5.6a.468.468 0 0 0 -.33.137l-2 2-2-2a.468.468 0 0 0 -.33-.137h-8.872a.467.467 0 0 0 -.467.467v1.4h-1.867a.467.467 0 0 0 -.467.467v21.467a.467.467 0 0 0 .467.467h27.067a.467.467 0 0 0 .467-.467v-21.468a.467.467 0 0 0 -.467-.466zm-4.667-3.733h.933a.933.933 0 0 1 .933.933v19.384a1.853 1.853 0 0 0 -.933-.251h-.933zm-19.6 2.8h8.207l2.06 2.06v18.473h.933v-18.474l2.06-2.06h5.407v2.334h-2.8v.933h2.8v.934h-5.6v.933h5.6v.933h-5.6v.933h5.6v4.667h-2.8v.933h2.8v.933h-5.6v.933h5.6v.933h-5.6v.935h5.6v1.4a.467.467 0 0 0 .467.467h1.4a.933.933 0 0 1 0 1.867h-7.467a.467.467 0 0 0 -.33.137l-2 2-2-2a.467.467 0 0 0 -.33-.137h-8.4zm-2.333 1.867h1.4v18.666a.467.467 0 0 0 .467.467h8.673l1.4 1.4h-11.94zm26.133 20.533h-11.94l1.4-1.4h7.274a1.867 1.867 0 0 0 1.867-1.867v-17.267h1.4z" fill="#cea955" transform="translate(-264 -523.485)"/></g></svg>