<svg height="28" viewBox="0 0 28 28" width="28" xmlns="http://www.w3.org/2000/svg" xmlns:xlink="http://www.w3.org/1999/xlink"><clipPath id="a"><path d="m0 0h28v28h-28z"/></clipPath><g clip-path="url(#a)"><g transform="translate(-26.122 -55.469)"><path d="m53.991 65.321-4.055-2.864v-4.183a.9.9 0 0 0 -.772-.8h-17.764a.9.9 0 0 0 -.772.8v4.151l-4.216 2.9a.708.708 0 0 0 -.29.515v15.282a.933.933 0 0 0 .8.8h26.71c.354 0 .483-.418.483-.8v-15.286c.004-.193.036-.386-.124-.515zm-1.291.579-2.768 2.092v-3.992zm-4.055-7.144v10.234l-8.363 6.31-8.367-6.31v-10.234zm-18.018 5.214v4.055l-2.767-2.125zm-3.218 3.25 9.011 6.822-9.011 6.082zm1.545 13.419 8.56-5.76 2.286 1.738a.773.773 0 0 0 .451.161c.129 0 .193-.064.322-.161l2.381-1.834 8.657 5.857zm23.878-.74-8.818-5.921 8.818-6.758z" fill="#cea955"/><g fill="#252258"><path d="m165.5 126.675h-2.9a.644.644 0 0 1 0-1.287h2.9a.644.644 0 1 1 0 1.287z" transform="translate(-127.47 -63.735)"/><path d="m172.9 173.7h-10.3a.644.644 0 0 1 0-1.287h10.3a.644.644 0 0 1 0 1.287z" transform="translate(-127.47 -107.859)"/><path d="m172.9 220.716h-10.3a.644.644 0 0 1 0-1.287h10.3a.644.644 0 0 1 0 1.287z" transform="translate(-127.47 -151.983)"/></g></g></g></svg>