<svg height="28" viewBox="0 0 28 28" width="28" xmlns="http://www.w3.org/2000/svg" xmlns:xlink="http://www.w3.org/1999/xlink"><clipPath id="a"><path d="m0 0h28v28h-28z"/></clipPath><g clip-path="url(#a)"><g transform="translate(-381 -348)"><g fill="#252258"><path d="m464.484 553.977h-14.2a.409.409 0 0 0 0 .817h14.2a.409.409 0 1 0 0-.817zm0 0" transform="translate(-61.085 -191.013)"/><path d="m464.484 590.223h-14.2a.409.409 0 1 0 0 .817h14.2a.409.409 0 1 0 0-.817zm0 0" transform="translate(-61.085 -224.625)"/><path d="m464.484 626.465h-14.2a.409.409 0 0 0 0 .817h14.2a.409.409 0 1 0 0-.817zm0 0" transform="translate(-61.085 -258.234)"/><path d="m464.484 662.707h-14.2a.409.409 0 0 0 0 .817h14.2a.409.409 0 1 0 0-.817zm0 0" transform="translate(-61.085 -291.843)"/><path d="m579.171 479.777h-5.219a.409.409 0 1 0 0 .817h5.219a.409.409 0 1 0 0-.817zm0 0" transform="translate(-175.773 -122.203)"/><path d="m579.171 450.047h-5.219a.409.409 0 1 0 0 .817h5.219a.409.409 0 1 0 0-.817zm0 0" transform="translate(-175.773 -94.633)"/></g><path d="m406.229 370.726a.409.409 0 0 0 .409-.408v-18.327a1.609 1.609 0 0 0 -1.607-1.607h-.777v-.777a1.609 1.609 0 0 0 -1.608-1.607h-17.039a1.609 1.609 0 0 0 -1.607 1.607v22.3a1.609 1.609 0 0 0 1.607 1.607h.777v.777a1.609 1.609 0 0 0 1.607 1.607h17.039a1.609 1.609 0 0 0 1.607-1.607v-2.063a.409.409 0 1 0 -.817 0v2.063a.79.79 0 0 1 -.79.79h-17.039a.791.791 0 0 1 -.79-.79v-22.3a.791.791 0 0 1 .79-.79h17.039a.791.791 0 0 1 .79.79v18.326a.409.409 0 0 0 .409.408zm-19.845-18.734v20.708h-.777a.79.79 0 0 1 -.79-.79v-22.3a.79.79 0 0 1 .79-.789h17.039a.79.79 0 0 1 .79.789v.777h-15.445a1.609 1.609 0 0 0 -1.607 1.607zm0 0" fill="#cea955"/><path d="m449.827 419.719a.409.409 0 0 0 -.409.409v3.086a1.248 1.248 0 0 0 1.115 1.244c.154.017 4.558 0 4.565 0a1.248 1.248 0 0 0 1.116-1.244v-5.33a1.253 1.253 0 0 0 -1.251-1.251h-4.3a1.253 1.253 0 0 0 -1.251 1.251v.32a.409.409 0 0 0 .817 0v-.32a.434.434 0 0 1 .434-.434h4.3a.434.434 0 0 1 .434.434v4.184a3.539 3.539 0 0 0 -1.105-.791 1.751 1.751 0 1 0 -2.956 0 3.531 3.531 0 0 0 -1.105.791v-1.94a.409.409 0 0 0 -.409-.409zm2.991-.313a.933.933 0 1 1 -.933.933.934.934 0 0 1 .933-.933zm-.8 2.488a1.742 1.742 0 0 0 1.606 0 2.725 2.725 0 0 1 1.715 1.548.431.431 0 0 1 -.323.2c-.026 0-4.32.006-4.382 0h-.01a.431.431 0 0 1 -.323-.2 2.726 2.726 0 0 1 1.716-1.548zm0 0" fill="#252258" transform="translate(-60.665 -63.647)"/></g></g></svg>