<svg height="28" viewBox="0 0 28 28" width="28" xmlns="http://www.w3.org/2000/svg" xmlns:xlink="http://www.w3.org/1999/xlink"><clipPath id="a"><path d="m0 0h28v28h-28z"/></clipPath><g clip-path="url(#a)"><path d="m0 0h28v28h-28z" fill="#fff"/><path d="m580.866 528.375a1.757 1.757 0 0 0 -1.755 1.755v4.495a1.3 1.3 0 0 1 -.485 1.017l-.011.01-.952.816a.318.318 0 0 1 -.506-.2l-.275-2.615c0-.006 0-.012 0-.019a1.755 1.755 0 0 0 -3.493.243v4.408a4.436 4.436 0 0 0 .944 2.73l.211.269v1.385a.547.547 0 0 0 .546.547l4.359.005a.547.547 0 0 0 .547-.547v-1.274l2.041-3.018.013-.021a3.877 3.877 0 0 0 .572-2.027v-6.2a1.757 1.757 0 0 0 -1.755-1.755zm.661 7.955a2.787 2.787 0 0 1 -.4 1.446l-2.128 3.146a.546.546 0 0 0 -.094.306v.9h-3.266v-1.028a.546.546 0 0 0 -.117-.338l-.328-.418a3.34 3.34 0 0 1 -.71-2.054v-4.41a.661.661 0 0 1 1.315-.1l.276 2.615a1.42 1.42 0 0 0 2.3.909l.954-.818a2.392 2.392 0 0 0 .884-1.862v-4.494a.661.661 0 0 1 1.323 0zm0 0" fill="#cea955" transform="translate(-556.861 -515.223)"/><path d="m387.988 539.2a.547.547 0 0 0 -.71.307 3.327 3.327 0 0 1 -.477.829l-.328.418a.546.546 0 0 0 -.117.338v1.027h-3.266v-.9a.546.546 0 0 0 -.094-.306l-2.128-3.146a2.785 2.785 0 0 1 -.4-1.446v-6.2a.661.661 0 0 1 1.322 0v4.495a2.393 2.393 0 0 0 .884 1.862l.954.818a1.42 1.42 0 0 0 2.3-.909l.276-2.615a.661.661 0 0 1 1.314.1v1.033a.547.547 0 0 0 1.094 0v-1.025a1.755 1.755 0 0 0 -3.493-.243v.019l-.275 2.615a.318.318 0 0 1 -.506.2l-.953-.816-.011-.009a1.3 1.3 0 0 1 -.485-1.017v-4.499a1.755 1.755 0 0 0 -3.51 0v6.2a3.878 3.878 0 0 0 .572 2.027l.013.021 2.036 3.022v1.28a.547.547 0 0 0 .547.547l4.359-.005a.547.547 0 0 0 .546-.547v-1.385l.212-.269a4.416 4.416 0 0 0 .633-1.1.547.547 0 0 0 -.307-.71zm0 0" fill="#cea955" transform="translate(-376.993 -515.223)"/><path d="m604.187 422.964a2.592 2.592 0 1 0 2.592-2.593 2.6 2.6 0 0 0 -2.592 2.593zm4.091 0a1.5 1.5 0 1 1 -1.5-1.5 1.5 1.5 0 0 1 1.5 1.5zm0 0" fill="#cea955" transform="translate(-585.416 -415.094)"/><path d="m406.66 422.964a2.592 2.592 0 1 0 2.592-2.593 2.6 2.6 0 0 0 -2.592 2.593zm2.592-1.5a1.5 1.5 0 1 1 -1.5 1.5 1.5 1.5 0 0 1 1.5-1.5zm0 0" fill="#cea955" transform="translate(-402.292 -415.094)"/><g fill="#252258"><path d="m508.017 353.185a2.592 2.592 0 1 0 -2.592-2.592 2.6 2.6 0 0 0 2.592 2.592zm0-4.091a1.5 1.5 0 1 1 -1.5 1.5 1.5 1.5 0 0 1 1.5-1.5zm0 0" transform="translate(-493.855 -348)"/><path d="m506.545 496.184a2.592 2.592 0 1 0 2.592 2.592 2.6 2.6 0 0 0 -2.592-2.592zm0 4.091a1.5 1.5 0 1 1 1.5-1.5 1.5 1.5 0 0 1 -1.5 1.5zm0 0" transform="translate(-492.491 -485.379)"/><path d="m378.485 402.325a.552.552 0 0 0 .606-.481 3.49 3.49 0 0 1 1.614-2.327.547.547 0 1 0 -.584-.925 4.59 4.59 0 0 0 -2.121 3.127.547.547 0 0 0 .481.605zm0 0" transform="translate(-375.722 -394.825)"/><path d="m658.487 480.588a2.712 2.712 0 0 1 -.845.536.547.547 0 0 0 .43 1.006 3.821 3.821 0 0 0 1.97-1.821.547.547 0 0 0 -.969-.507 3.009 3.009 0 0 1 -.586.787zm0 0" transform="translate(-634.666 -469.92)"/><path d="m425.522 500.139a.547.547 0 0 0 -.987.473 8.071 8.071 0 0 0 4.535 3.761.547.547 0 0 0 .355-1.035 7.1 7.1 0 0 1 -3.9-3.2zm0 0" transform="translate(-418.815 -488.758)"/><path d="m586.872 355.463a7.029 7.029 0 0 1 4.109 2.93.552.552 0 0 0 .76.146.547.547 0 0 0 .145-.76 8.069 8.069 0 0 0 -4.817-3.391.547.547 0 1 0 -.2 1.076zm0 0" transform="translate(-568.948 -353.913)"/></g><path d="m492.086 643.207a.547.547 0 1 0 -.3.714.552.552 0 0 0 .3-.714zm0 0" transform="translate(-480.515 -621.37)"/></g></svg>