<svg height="28" viewBox="0 0 28 28" width="28" xmlns="http://www.w3.org/2000/svg" xmlns:xlink="http://www.w3.org/1999/xlink"><clipPath id="a"><path d="m0 0h28v28h-28z"/></clipPath><g clip-path="url(#a)"><g transform="translate(-403.267 -360)"><path d="m423.333 360h-15.866a.467.467 0 0 0 -.467.467v27.067a.467.467 0 0 0 .467.467h19.6a.467.467 0 0 0 .467-.467v-23.334a.467.467 0 0 0 -.137-.33l-3.733-3.733a.467.467 0 0 0 -.33-.137zm.467 1.593 2.14 2.14h-2.14zm-15.867 25.473v-26.133h14.933v3.267a.467.467 0 0 0 .467.467h3.267v22.4zm0 0" fill="#cea955"/><g fill="#252258"><path d="m437.467 396.933h5.133a.467.467 0 1 0 0-.933h-5.133a.467.467 0 1 0 0 .933zm0 0" transform="translate(-27.667 -33.2)"/><path d="m437.467 420.933h7a.467.467 0 1 0 0-.933h-7a.467.467 0 1 0 0 .933zm0 0" transform="translate(-27.667 -55.333)"/><path d="m485.6 456h-12.133a.467.467 0 0 0 0 .933h12.133a.467.467 0 0 0 0-.933zm0 0" transform="translate(-60.867 -88.533)"/><path d="m568.6 648h-5.133a.467.467 0 0 0 0 .933h5.133a.467.467 0 0 0 0-.933zm0 0" transform="translate(-143.867 -265.6)"/><path d="m440.733 624h-3.267a.467.467 0 1 0 0 .933h3.267a.467.467 0 0 0 0-.933zm0 0" transform="translate(-27.667 -243.467)"/><path d="m505.8 624h-2.333a.467.467 0 1 0 0 .933h2.333a.467.467 0 1 0 0-.933zm0 0" transform="translate(-88.533 -243.467)"/><path d="m601.8 672h-2.333a.467.467 0 0 0 0 .933h2.333a.467.467 0 1 0 0-.933zm0 0" transform="translate(-177.067 -287.733)"/><path d="m499.682 516.264a.467.467 0 0 0 -.841 0l-1.795 3.736a.467.467 0 1 0 .841.4l.546-1.136h1.657l.546 1.136a.467.467 0 0 0 .841-.4zm-.8 2.069.38-.79.379.79zm0 0" transform="translate(-83 -143.867)"/><path d="m552.867 522.933v-.467a.467.467 0 0 0 -.933 0v.467h-.467a.467.467 0 0 0 0 .933h.467v.467a.467.467 0 0 0 .933 0v-.467h.467a.467.467 0 0 0 0-.933zm0 0" transform="translate(-132.8 -149.4)"/></g><path d="m452.867 474.933a.467.467 0 0 0 -.467-.467h-5.23a5.593 5.593 0 0 0 -4.473 0h-5.23a.467.467 0 0 0 0 .933h3.767a5.626 5.626 0 0 0 -.846.933h-2.921a.467.467 0 0 0 0 .933h2.376a5.546 5.546 0 0 0 -.332.933h-2.044a.467.467 0 1 0 0 .933h1.886q-.02.231-.02.467t.02.467h-1.886a.467.467 0 0 0 0 .933h2.044a5.544 5.544 0 0 0 .333.933h-2.376a.467.467 0 1 0 0 .933h2.8a.47.47 0 0 0 .111-.014 5.631 5.631 0 0 0 .856.947h-3.767a.467.467 0 0 0 0 .933h5.132a.439.439 0 0 0 .08-.007 5.594 5.594 0 0 0 4.507 0 .438.438 0 0 0 .08.007h4.2a.467.467 0 0 0 0-.933h-2.834a5.624 5.624 0 0 0 .846-.933h2.921a.467.467 0 1 0 0-.933h-2.377a5.543 5.543 0 0 0 .332-.933h2.045a.467.467 0 0 0 0-.933h-1.886q.02-.231.02-.467t-.02-.467h1.886a.467.467 0 1 0 0-.933h-2.044a5.547 5.547 0 0 0 -.333-.933h2.377a.467.467 0 0 0 0-.933h-2.8a.467.467 0 0 0 -.111.014 5.627 5.627 0 0 0 -.856-.947h3.767a.467.467 0 0 0 .467-.467zm-3.267 4.667a4.667 4.667 0 1 1 -4.667-4.667 4.667 4.667 0 0 1 4.667 4.667zm0 0" fill="#cea955" transform="translate(-27.667 -105.133)"/></g></g></svg>