<svg height="28" viewBox="0 0 28 28" width="28" xmlns="http://www.w3.org/2000/svg" xmlns:xlink="http://www.w3.org/1999/xlink"><clipPath id="a"><path d="m0 0h28v28h-28z"/></clipPath><g clip-path="url(#a)"><g transform="translate(-243.133 -797.8)"><path d="m0 0h7.467v.933h-7.467z" fill="#252258" transform="translate(247.8 815.067)"/><path d="m0 0h7.467v.933h-7.467z" fill="#252258" transform="translate(247.8 816.933)"/><path d="m0 0h5.6v.933h-5.6z" fill="#252258" transform="translate(247.8 818.8)"/><path d="m0 0h4.667v.933h-4.667z" fill="#252258" transform="translate(250.6 813.2)"/><path d="m0 0h3.733v.933h-3.733z" fill="#252258" transform="translate(259.466 818.8)"/><path d="m0 0h3.733v.933h-3.733z" fill="#252258" transform="translate(259.466 809.467)"/><path d="m270.666 802.467h-1.866v-2.8a1.867 1.867 0 0 0 -1.867-1.867h-1.4a.467.467 0 0 0 -.467.467v2.333h-5.6a.467.467 0 0 0 -.33.137l-2 2-2-2a.467.467 0 0 0 -.33-.137h-8.867a.467.467 0 0 0 -.467.467v1.4h-1.872a.467.467 0 0 0 -.467.466v21.467a.467.467 0 0 0 .467.467h27.067a.467.467 0 0 0 .467-.467v-21.467a.467.467 0 0 0 -.468-.466zm-4.666-3.734h.933a.933.933 0 0 1 .933.933v19.384a1.855 1.855 0 0 0 -.933-.251h-.933zm-19.6 2.8h8.207l2.06 2.06v18.473h.933v-18.473l2.06-2.06h5.407v2.333h-2.8v.933h2.8v.933h-5.6v.933h5.6v.933h-5.6v.933h5.6v4.669h-2.8v.933h2.8v.933h-5.6v.934h5.6v.933h-5.6v.933h5.6v1.4a.467.467 0 0 0 .467.467h1.4a.933.933 0 1 1 0 1.867h-7.467a.466.466 0 0 0 -.33.137l-2 2-2-2a.466.466 0 0 0 -.33-.137h-8.4zm-2.333 1.867h1.4v18.667a.467.467 0 0 0 .467.467h8.674l1.4 1.4h-11.94zm26.133 20.533h-11.94l1.4-1.4h7.273a1.867 1.867 0 0 0 1.867-1.867v-17.266h1.4z" fill="#cea955"/><g fill="#252258"><path d="m0 0h.933v.933h-.933z" transform="translate(260.4 803.867)"/><path d="m0 0h.933v.933h-.933z" transform="translate(260.4 813.2)"/><path d="m0 0h.933v.933h-.933z" transform="translate(248.733 813.2)"/><path d="m0 0h.933v.933h-.933z" transform="translate(253.866 803.867)"/><path d="m0 0h.933v.933h-.933z" transform="translate(248.266 809.933)"/><path d="m0 0h.468v.245h-.468z" transform="translate(247.33 803.644)"/><path d="m281.26 832.247a.16.16 0 0 1 .312 0v.367h-.312z" transform="translate(-32.995 -29.704)"/><path d="m280.754 876.41-.259-.675h.518z" transform="translate(-32.333 -67.443)"/><path d="m0 0h.623v4.403h-.623z" transform="translate(248.109 803.644)"/><path d="m0 0h.623v.245h-.623z" transform="translate(248.109 803.155)"/><path d="m294.957 849.788-.535 1.619h-.687l1.749-5.148h.8l1.757 5.148h-.711l-.55-1.619zm1.688-.519-.5-1.481c-.115-.336-.191-.642-.267-.94h-.016c-.076.305-.16.619-.259.932l-.5 1.489z" transform="translate(-43.79 -41.937)"/></g></g></g></svg>