<svg height="28" viewBox="0 0 28 28" width="28" xmlns="http://www.w3.org/2000/svg" xmlns:xlink="http://www.w3.org/1999/xlink"><clipPath id="a"><path d="m0 0h28v28h-28z"/></clipPath><g clip-path="url(#a)"><g transform="translate(.001 -21.82)"><path d="m27.452 22.82h-8.338a.547.547 0 0 0 0 1.094h7.791v15.45h-9.356l1.111-1.207h6.526a.547.547 0 0 0 .547-.547v-11.942a.547.547 0 0 0 -.547-.547h-16.819a.547.547 0 0 0 -.547.547v3.465a5.906 5.906 0 0 0 -1.264.1v-5.319h7.744a.547.547 0 1 0 0-1.094h-8.291a.547.547 0 0 0 -.547.547v6.218a4.387 4.387 0 0 0 -1.423 1.03 4.193 4.193 0 0 0 -.906 1.526.553.553 0 0 0 .526.7h.314a6.758 6.758 0 0 0 .236 1.832v.594.021a3.711 3.711 0 0 0 1.591 2.929l-.187 1.422-2.489.6-.033.009a4.236 4.236 0 0 0 -2.975 3.8v.012l-.116 3.7a.547.547 0 0 0 .547.564h11.386a.547.547 0 0 0 .547-.547v-1.924a1.678 1.678 0 0 1 .387-1.07l2.862-3.441.814-.884h10.91a.547.547 0 0 0 .547-.548v-16.543a.547.547 0 0 0 -.547-.547zm-12.152 17.366-1.079-1.1 3.227-2.807a.547.547 0 0 0 .179-.313c.029-.158 0-.3.125-.428l.608-.624a.418.418 0 0 1 .583-.007l.624.608a.42.42 0 0 1 .007.583l-.608.624a.415.415 0 0 1 -.317.123.546.546 0 0 0 -.431.176zm-5.336-.566-.247-1.377c.042-.028.083-.056.123-.086h3.783l-1.663 1.352a.518.518 0 0 1 -.319.11zm-1.05-13.4h15.726v10.843h-4.477l.2-.205a1.505 1.505 0 0 0 -.028-2.13l-.624-.608a1.521 1.521 0 0 0 -2.13.028l-.608.624a1.516 1.516 0 0 0 -.41.828l-1.682 1.463h-4.036a3.541 3.541 0 0 0 .495-1.8v-.763a3.747 3.747 0 0 0 -2.426-5.217zm-1.858 4.044a4.827 4.827 0 0 1 .864-.033 2.666 2.666 0 0 1 2.68 2.743 2.156 2.156 0 0 0 -1.494-.61h-1.095c-.457 0-.586-.545-.6-.6a.552.552 0 0 0 -.969-.232l-1.366 1.759a2.938 2.938 0 0 1 .046-.873.557.557 0 0 0 -.583-.674 3.452 3.452 0 0 1 2.518-1.479zm-1.756 4.517 1.476-1.9a1.559 1.559 0 0 0 1.232.577h1.092a1.044 1.044 0 0 1 .952.617l.19.426v.763a2.521 2.521 0 0 1 -2.471 2.471 2.553 2.553 0 0 1 -2.471-2.483zm2.3 4.043a3.535 3.535 0 0 0 1.087-.117l.229 1.277a1.87 1.87 0 0 1 -2.244-.006l.17-1.278a3.5 3.5 0 0 0 .758.124zm4.424 5.259a2.774 2.774 0 0 0 -.64 1.77v1.377h-7.4v-2.472a.547.547 0 0 0 -1.094 0v2.472h-1.78l.1-3.127a3.18 3.18 0 0 1 2.19-2.803l2.426-.582a3.136 3.136 0 0 0 1.823.733 2.954 2.954 0 0 0 2.1-.733h1.9a1.641 1.641 0 0 0 1-.344l.745-.585 1.2 1.226z" fill="#cea955"/><g fill="#252258"><path d="m297.787 23.168a.547.547 0 1 0 -.094.715.551.551 0 0 0 .094-.715z" transform="translate(-280.556 -.105)"/><path d="m201.733 120.113h11.067a.547.547 0 1 0 0-1.094h-11.067a.547.547 0 0 0 0 1.094z" transform="translate(-190.185 -90.938)"/><path d="m320.12 167.62h-4.861a.547.547 0 0 0 0 1.094h4.861a.547.547 0 0 0 0-1.094z" transform="translate(-297.502 -136.881)"/></g></g></g></svg>