<svg height="28" viewBox="0 0 28 28" width="28" xmlns="http://www.w3.org/2000/svg" xmlns:xlink="http://www.w3.org/1999/xlink"><clipPath id="a"><path d="m0 0h28v28h-28z"/></clipPath><g clip-path="url(#a)"><g transform="translate(-517.248 -573.793)"><g fill="#252258"><path d="m534.115 614.6h-2.8a.467.467 0 0 0 -.467.467v2.8a.467.467 0 0 0 .467.467h2.8a.467.467 0 0 0 .467-.467v-2.8a.467.467 0 0 0 -.467-.467zm-.467 2.8h-1.867v-1.867h1.867zm0 0" transform="translate(-10.8 -32.401)"/><path d="m558.516 618.333h2.8a.467.467 0 0 0 .467-.467v-2.8a.467.467 0 0 0 -.467-.467h-2.8a.467.467 0 0 0 -.466.467v2.8a.467.467 0 0 0 .466.467zm.467-2.8h1.867v1.867h-1.867zm0 0" transform="translate(-32.401 -32.401)"/><path d="m534.115 637.267h-2.8a.467.467 0 0 0 -.467.466v2.8a.467.467 0 0 0 .467.467h2.8a.467.467 0 0 0 .467-.467v-2.8a.467.467 0 0 0 -.467-.466zm-.467 2.8h-1.867v-1.867h1.867zm0 0" transform="translate(-10.8 -50.401)"/><path d="m534.115 659.933h-2.8a.467.467 0 0 0 -.467.467v2.8a.467.467 0 0 0 .467.467h2.8a.467.467 0 0 0 .467-.467v-2.8a.467.467 0 0 0 -.467-.467zm-.467 2.8h-1.867v-1.866h1.867zm0 0" transform="translate(-10.8 -68.401)"/></g><path d="m540.58 585.126v-8.06a2.336 2.336 0 0 0 -2.333-2.333h-.933v-.933h-.933v.933h-2.8v-.933h-.933v.933h-2.8v-.933h-.933v.933h-2.8v-.933h-.933v.933h-2.8v-.933h-.933v.933h-1.867a2.336 2.336 0 0 0 -2.333 2.333v18.665a2.336 2.336 0 0 0 2.333 2.333h9.583a8.86 8.86 0 1 0 11.415-12.938zm-21-9.46h1.867v.933h.933v-.933h2.8v.933h.933v-.933h2.8v.933h.933v-.933h2.8v.933h.933v-.933h2.8v.933h.933v-.933h.933a1.4 1.4 0 0 1 1.4 1.4v2.334h-21.463v-2.333a1.4 1.4 0 0 1 1.4-1.4zm0 21.465a1.4 1.4 0 0 1 -1.4-1.4v-15.4h21.465v4.369a8.815 8.815 0 0 0 -10.266 2.813v-.178a.467.467 0 0 0 -.467-.466h-2.8a.467.467 0 0 0 -.466.466v2.8a.467.467 0 0 0 .466.467h1.722a8.625 8.625 0 0 0 -.2.933h-1.522a.467.467 0 0 0 -.466.467v2.8a.467.467 0 0 0 .466.467h1.722a8.787 8.787 0 0 0 .738 1.866zm8.868-8.131c-.109.218-.211.441-.3.669h-1.565v-1.869h1.867zm-.811 5.335h-1.055v-1.866h.957c-.008.155-.024.309-.024.466a8.833 8.833 0 0 0 .122 1.4zm13.1 5.22-.69-1.2-.808.467.688 1.192a7.862 7.862 0 0 1 -3.084.826v-1.376h-.933v1.376a7.861 7.861 0 0 1 -3.084-.826l.688-1.192-.808-.467-.69 1.2a8 8 0 0 1 -2.259-2.259l1.2-.69-.467-.808-1.193.688a7.857 7.857 0 0 1 -.826-3.084h1.376v-.933h-1.376a7.857 7.857 0 0 1 .826-3.084l1.193.688.467-.808-1.2-.69a8.008 8.008 0 0 1 2.259-2.259l.69 1.2.808-.466-.688-1.192a7.859 7.859 0 0 1 3.084-.826v1.368h.933v-1.376a7.86 7.86 0 0 1 3.084.826l-.688 1.192.808.466.69-1.2a8.007 8.007 0 0 1 2.263 2.263l-1.2.69.467.808 1.193-.688a7.858 7.858 0 0 1 .826 3.084h-1.376v.933h1.376a7.858 7.858 0 0 1 -.826 3.084l-1.193-.688-.467.808 1.2.69a8 8 0 0 1 -2.259 2.259zm0 0" fill="#cea955"/><path d="m0 0h28v28h-28z" fill="none" transform="translate(517.248 573.793)"/><path d="m605.247 643.819v-4.286h-.933v4.286a1.4 1.4 0 1 0 1.781 1.781h2.419v-.933h-2.419a1.4 1.4 0 0 0 -.847-.847zm-.467 1.781a.467.467 0 1 1 .467-.467.467.467 0 0 1 -.467.467zm0 0" fill="#252258" transform="translate(-68.4 -52.201)"/></g></g></svg>